STARTFONT 2.1
COMMENT Exported by Fony v1.4.7
FONT 7Segment72
SIZE 96 96 96
FONTBOUNDINGBOX 78 95 0 -4
STARTPROPERTIES 6
COPYRIGHT ""
RESOLUTION_X 96
RESOLUTION_Y 96
FONT_ASCENT 92
FONT_DESCENT 4
DEFAULT_CHAR 0
ENDPROPERTIES
CHARS 256
STARTCHAR 000
ENCODING 0
SWIDTH 2160 0
DWIDTH 30 0
BBX 0 0 0 0
BITMAP
ENDCHAR
STARTCHAR 001
ENCODING 1
SWIDTH 1800 0
DWIDTH 25 0
BBX 21 64 2 -3
BITMAP
FFFFF8
FFFFF8
FFFFF8
FFFFF8
FFFFF8
F800F8
F800F8
F800F8
F800F8
F800F8
F800F8
F800F8
F800F8
F800F8
F800F8
F800F8
F800F8
F800F8
F800F8
F800F8
F800F8
F800F8
F800F8
F800F8
F800F8
F800F8
F800F8
F800F8
F800F8
F800F8
F800F8
F800F8
F800F8
F800F8
F800F8
F800F8
F800F8
F800F8
F800F8
F800F8
F800F8
F800F8
F800F8
F800F8
F800F8
F800F8
F800F8
F800F8
F800F8
F800F8
F800F8
F800F8
F800F8
F800F8
F800F8
F800F8
F800F8
F800F8
F800F8
F800F8
FFFFF8
FFFFF8
FFFFF8
FFFFF8
ENDCHAR
STARTCHAR 002
ENCODING 2
SWIDTH 2520 0
DWIDTH 35 0
BBX 0 0 0 0
BITMAP
ENDCHAR
STARTCHAR 003
ENCODING 3
SWIDTH 1800 0
DWIDTH 25 0
BBX 21 64 2 -3
BITMAP
FFFFF8
FFFFF8
FFFFF8
FFFFF8
FFFFF8
F800F8
F800F8
F800F8
F800F8
F800F8
F800F8
F800F8
F800F8
F800F8
F800F8
F800F8
F800F8
F800F8
F800F8
F800F8
F800F8
F800F8
F800F8
F800F8
F800F8
F800F8
F800F8
F800F8
F800F8
F800F8
F800F8
F800F8
F800F8
F800F8
F800F8
F800F8
F800F8
F800F8
F800F8
F800F8
F800F8
F800F8
F800F8
F800F8
F800F8
F800F8
F800F8
F800F8
F800F8
F800F8
F800F8
F800F8
F800F8
F800F8
F800F8
F800F8
F800F8
F800F8
F800F8
F800F8
FFFFF8
FFFFF8
FFFFF8
FFFFF8
ENDCHAR
STARTCHAR 004
ENCODING 4
SWIDTH 1800 0
DWIDTH 25 0
BBX 21 64 2 -3
BITMAP
FFFFF8
FFFFF8
FFFFF8
FFFFF8
FFFFF8
F800F8
F800F8
F800F8
F800F8
F800F8
F800F8
F800F8
F800F8
F800F8
F800F8
F800F8
F800F8
F800F8
F800F8
F800F8
F800F8
F800F8
F800F8
F800F8
F800F8
F800F8
F800F8
F800F8
F800F8
F800F8
F800F8
F800F8
F800F8
F800F8
F800F8
F800F8
F800F8
F800F8
F800F8
F800F8
F800F8
F800F8
F800F8
F800F8
F800F8
F800F8
F800F8
F800F8
F800F8
F800F8
F800F8
F800F8
F800F8
F800F8
F800F8
F800F8
F800F8
F800F8
F800F8
F800F8
FFFFF8
FFFFF8
FFFFF8
FFFFF8
ENDCHAR
STARTCHAR 005
ENCODING 5
SWIDTH 1800 0
DWIDTH 25 0
BBX 21 64 2 -3
BITMAP
FFFFF8
FFFFF8
FFFFF8
FFFFF8
FFFFF8
F800F8
F800F8
F800F8
F800F8
F800F8
F800F8
F800F8
F800F8
F800F8
F800F8
F800F8
F800F8
F800F8
F800F8
F800F8
F800F8
F800F8
F800F8
F800F8
F800F8
F800F8
F800F8
F800F8
F800F8
F800F8
F800F8
F800F8
F800F8
F800F8
F800F8
F800F8
F800F8
F800F8
F800F8
F800F8
F800F8
F800F8
F800F8
F800F8
F800F8
F800F8
F800F8
F800F8
F800F8
F800F8
F800F8
F800F8
F800F8
F800F8
F800F8
F800F8
F800F8
F800F8
F800F8
F800F8
FFFFF8
FFFFF8
FFFFF8
FFFFF8
ENDCHAR
STARTCHAR 006
ENCODING 6
SWIDTH 1800 0
DWIDTH 25 0
BBX 21 64 2 -3
BITMAP
FFFFF8
FFFFF8
FFFFF8
FFFFF8
FFFFF8
F800F8
F800F8
F800F8
F800F8
F800F8
F800F8
F800F8
F800F8
F800F8
F800F8
F800F8
F800F8
F800F8
F800F8
F800F8
F800F8
F800F8
F800F8
F800F8
F800F8
F800F8
F800F8
F800F8
F800F8
F800F8
F800F8
F800F8
F800F8
F800F8
F800F8
F800F8
F800F8
F800F8
F800F8
F800F8
F800F8
F800F8
F800F8
F800F8
F800F8
F800F8
F800F8
F800F8
F800F8
F800F8
F800F8
F800F8
F800F8
F800F8
F800F8
F800F8
F800F8
F800F8
F800F8
F800F8
FFFFF8
FFFFF8
FFFFF8
FFFFF8
ENDCHAR
STARTCHAR 007
ENCODING 7
SWIDTH 1800 0
DWIDTH 25 0
BBX 21 64 2 -3
BITMAP
FFFFF8
FFFFF8
FFFFF8
FFFFF8
FFFFF8
F800F8
F800F8
F800F8
F800F8
F800F8
F800F8
F800F8
F800F8
F800F8
F800F8
F800F8
F800F8
F800F8
F800F8
F800F8
F800F8
F800F8
F800F8
F800F8
F800F8
F800F8
F800F8
F800F8
F800F8
F800F8
F800F8
F800F8
F800F8
F800F8
F800F8
F800F8
F800F8
F800F8
F800F8
F800F8
F800F8
F800F8
F800F8
F800F8
F800F8
F800F8
F800F8
F800F8
F800F8
F800F8
F800F8
F800F8
F800F8
F800F8
F800F8
F800F8
F800F8
F800F8
F800F8
F800F8
FFFFF8
FFFFF8
FFFFF8
FFFFF8
ENDCHAR
STARTCHAR 008
ENCODING 8
SWIDTH 1800 0
DWIDTH 25 0
BBX 21 64 2 -3
BITMAP
FFFFF8
FFFFF8
FFFFF8
FFFFF8
FFFFF8
F800F8
F800F8
F800F8
F800F8
F800F8
F800F8
F800F8
F800F8
F800F8
F800F8
F800F8
F800F8
F800F8
F800F8
F800F8
F800F8
F800F8
F800F8
F800F8
F800F8
F800F8
F800F8
F800F8
F800F8
F800F8
F800F8
F800F8
F800F8
F800F8
F800F8
F800F8
F800F8
F800F8
F800F8
F800F8
F800F8
F800F8
F800F8
F800F8
F800F8
F800F8
F800F8
F800F8
F800F8
F800F8
F800F8
F800F8
F800F8
F800F8
F800F8
F800F8
F800F8
F800F8
F800F8
F800F8
FFFFF8
FFFFF8
FFFFF8
FFFFF8
ENDCHAR
STARTCHAR 009
ENCODING 9
SWIDTH 0 0
DWIDTH 0 0
BBX 0 0 0 0
BITMAP
ENDCHAR
STARTCHAR 010
ENCODING 10
SWIDTH 0 0
DWIDTH 0 0
BBX 0 0 0 0
BITMAP
ENDCHAR
STARTCHAR 011
ENCODING 11
SWIDTH 1800 0
DWIDTH 25 0
BBX 21 64 2 -3
BITMAP
FFFFF8
FFFFF8
FFFFF8
FFFFF8
FFFFF8
F800F8
F800F8
F800F8
F800F8
F800F8
F800F8
F800F8
F800F8
F800F8
F800F8
F800F8
F800F8
F800F8
F800F8
F800F8
F800F8
F800F8
F800F8
F800F8
F800F8
F800F8
F800F8
F800F8
F800F8
F800F8
F800F8
F800F8
F800F8
F800F8
F800F8
F800F8
F800F8
F800F8
F800F8
F800F8
F800F8
F800F8
F800F8
F800F8
F800F8
F800F8
F800F8
F800F8
F800F8
F800F8
F800F8
F800F8
F800F8
F800F8
F800F8
F800F8
F800F8
F800F8
F800F8
F800F8
FFFFF8
FFFFF8
FFFFF8
FFFFF8
ENDCHAR
STARTCHAR 012
ENCODING 12
SWIDTH 3888 0
DWIDTH 54 0
BBX 46 45 4 -3
BITMAP
000003000000
000007800000
00000FC00000
00001FE00000
00003FF00000
00007FF80000
0000FFFC0000
0001FFFE0000
0003FFFF0000
0007FFFF8000
000FFFFFC000
001FFFFFE000
003FFFFFF000
007FFFFFF800
00FFFFFFFC00
01FFFFFFFE00
03FFFFFFFF00
07FFFFFFFF80
0FFFFFFFFFC0
1FFFFFFFFFE0
3FFFFFFFFFF0
7FFFFFFFFFF8
FFFFFFFFFFFC
FFFFFFFFFFFC
FFFFFFFFFFFC
FFFEFFFBFFFC
FFFCFFF9FFFC
FFF8FFF8FFFC
FFF0FFF87FFC
FFE0FFF83FFC
FFC0FFF80FFC
FF80FFF807FC
FF00FFF803FC
FE00FFF801FC
FC00FFF800FC
F800FFF8007C
F000FFF8003C
E000FFF8001C
C000FFF8000C
8000FFF80004
0000FFF80000
0000FFF80000
0000FFF80000
0000FFF80000
0000FFF80000
ENDCHAR
STARTCHAR 013
ENCODING 13
SWIDTH 0 0
DWIDTH 0 0
BBX 0 0 0 0
BITMAP
ENDCHAR
STARTCHAR 014
ENCODING 14
SWIDTH 1800 0
DWIDTH 25 0
BBX 21 64 2 -3
BITMAP
FFFFF8
FFFFF8
FFFFF8
FFFFF8
FFFFF8
F800F8
F800F8
F800F8
F800F8
F800F8
F800F8
F800F8
F800F8
F800F8
F800F8
F800F8
F800F8
F800F8
F800F8
F800F8
F800F8
F800F8
F800F8
F800F8
F800F8
F800F8
F800F8
F800F8
F800F8
F800F8
F800F8
F800F8
F800F8
F800F8
F800F8
F800F8
F800F8
F800F8
F800F8
F800F8
F800F8
F800F8
F800F8
F800F8
F800F8
F800F8
F800F8
F800F8
F800F8
F800F8
F800F8
F800F8
F800F8
F800F8
F800F8
F800F8
F800F8
F800F8
F800F8
F800F8
FFFFF8
FFFFF8
FFFFF8
FFFFF8
ENDCHAR
STARTCHAR 015
ENCODING 15
SWIDTH 1800 0
DWIDTH 25 0
BBX 21 64 2 -3
BITMAP
FFFFF8
FFFFF8
FFFFF8
FFFFF8
FFFFF8
F800F8
F800F8
F800F8
F800F8
F800F8
F800F8
F800F8
F800F8
F800F8
F800F8
F800F8
F800F8
F800F8
F800F8
F800F8
F800F8
F800F8
F800F8
F800F8
F800F8
F800F8
F800F8
F800F8
F800F8
F800F8
F800F8
F800F8
F800F8
F800F8
F800F8
F800F8
F800F8
F800F8
F800F8
F800F8
F800F8
F800F8
F800F8
F800F8
F800F8
F800F8
F800F8
F800F8
F800F8
F800F8
F800F8
F800F8
F800F8
F800F8
F800F8
F800F8
F800F8
F800F8
F800F8
F800F8
FFFFF8
FFFFF8
FFFFF8
FFFFF8
ENDCHAR
STARTCHAR 016
ENCODING 16
SWIDTH 1800 0
DWIDTH 25 0
BBX 21 64 2 -3
BITMAP
FFFFF8
FFFFF8
FFFFF8
FFFFF8
FFFFF8
F800F8
F800F8
F800F8
F800F8
F800F8
F800F8
F800F8
F800F8
F800F8
F800F8
F800F8
F800F8
F800F8
F800F8
F800F8
F800F8
F800F8
F800F8
F800F8
F800F8
F800F8
F800F8
F800F8
F800F8
F800F8
F800F8
F800F8
F800F8
F800F8
F800F8
F800F8
F800F8
F800F8
F800F8
F800F8
F800F8
F800F8
F800F8
F800F8
F800F8
F800F8
F800F8
F800F8
F800F8
F800F8
F800F8
F800F8
F800F8
F800F8
F800F8
F800F8
F800F8
F800F8
F800F8
F800F8
FFFFF8
FFFFF8
FFFFF8
FFFFF8
ENDCHAR
STARTCHAR 017
ENCODING 17
SWIDTH 1800 0
DWIDTH 25 0
BBX 21 64 2 -3
BITMAP
FFFFF8
FFFFF8
FFFFF8
FFFFF8
FFFFF8
F800F8
F800F8
F800F8
F800F8
F800F8
F800F8
F800F8
F800F8
F800F8
F800F8
F800F8
F800F8
F800F8
F800F8
F800F8
F800F8
F800F8
F800F8
F800F8
F800F8
F800F8
F800F8
F800F8
F800F8
F800F8
F800F8
F800F8
F800F8
F800F8
F800F8
F800F8
F800F8
F800F8
F800F8
F800F8
F800F8
F800F8
F800F8
F800F8
F800F8
F800F8
F800F8
F800F8
F800F8
F800F8
F800F8
F800F8
F800F8
F800F8
F800F8
F800F8
F800F8
F800F8
F800F8
F800F8
FFFFF8
FFFFF8
FFFFF8
FFFFF8
ENDCHAR
STARTCHAR 018
ENCODING 18
SWIDTH 1800 0
DWIDTH 25 0
BBX 21 64 2 -3
BITMAP
FFFFF8
FFFFF8
FFFFF8
FFFFF8
FFFFF8
F800F8
F800F8
F800F8
F800F8
F800F8
F800F8
F800F8
F800F8
F800F8
F800F8
F800F8
F800F8
F800F8
F800F8
F800F8
F800F8
F800F8
F800F8
F800F8
F800F8
F800F8
F800F8
F800F8
F800F8
F800F8
F800F8
F800F8
F800F8
F800F8
F800F8
F800F8
F800F8
F800F8
F800F8
F800F8
F800F8
F800F8
F800F8
F800F8
F800F8
F800F8
F800F8
F800F8
F800F8
F800F8
F800F8
F800F8
F800F8
F800F8
F800F8
F800F8
F800F8
F800F8
F800F8
F800F8
FFFFF8
FFFFF8
FFFFF8
FFFFF8
ENDCHAR
STARTCHAR 019
ENCODING 19
SWIDTH 1800 0
DWIDTH 25 0
BBX 21 64 2 -3
BITMAP
FFFFF8
FFFFF8
FFFFF8
FFFFF8
FFFFF8
F800F8
F800F8
F800F8
F800F8
F800F8
F800F8
F800F8
F800F8
F800F8
F800F8
F800F8
F800F8
F800F8
F800F8
F800F8
F800F8
F800F8
F800F8
F800F8
F800F8
F800F8
F800F8
F800F8
F800F8
F800F8
F800F8
F800F8
F800F8
F800F8
F800F8
F800F8
F800F8
F800F8
F800F8
F800F8
F800F8
F800F8
F800F8
F800F8
F800F8
F800F8
F800F8
F800F8
F800F8
F800F8
F800F8
F800F8
F800F8
F800F8
F800F8
F800F8
F800F8
F800F8
F800F8
F800F8
FFFFF8
FFFFF8
FFFFF8
FFFFF8
ENDCHAR
STARTCHAR 020
ENCODING 20
SWIDTH 1800 0
DWIDTH 25 0
BBX 21 64 2 -3
BITMAP
FFFFF8
FFFFF8
FFFFF8
FFFFF8
FFFFF8
F800F8
F800F8
F800F8
F800F8
F800F8
F800F8
F800F8
F800F8
F800F8
F800F8
F800F8
F800F8
F800F8
F800F8
F800F8
F800F8
F800F8
F800F8
F800F8
F800F8
F800F8
F800F8
F800F8
F800F8
F800F8
F800F8
F800F8
F800F8
F800F8
F800F8
F800F8
F800F8
F800F8
F800F8
F800F8
F800F8
F800F8
F800F8
F800F8
F800F8
F800F8
F800F8
F800F8
F800F8
F800F8
F800F8
F800F8
F800F8
F800F8
F800F8
F800F8
F800F8
F800F8
F800F8
F800F8
FFFFF8
FFFFF8
FFFFF8
FFFFF8
ENDCHAR
STARTCHAR 021
ENCODING 21
SWIDTH 1800 0
DWIDTH 25 0
BBX 21 64 2 -3
BITMAP
FFFFF8
FFFFF8
FFFFF8
FFFFF8
FFFFF8
F800F8
F800F8
F800F8
F800F8
F800F8
F800F8
F800F8
F800F8
F800F8
F800F8
F800F8
F800F8
F800F8
F800F8
F800F8
F800F8
F800F8
F800F8
F800F8
F800F8
F800F8
F800F8
F800F8
F800F8
F800F8
F800F8
F800F8
F800F8
F800F8
F800F8
F800F8
F800F8
F800F8
F800F8
F800F8
F800F8
F800F8
F800F8
F800F8
F800F8
F800F8
F800F8
F800F8
F800F8
F800F8
F800F8
F800F8
F800F8
F800F8
F800F8
F800F8
F800F8
F800F8
F800F8
F800F8
FFFFF8
FFFFF8
FFFFF8
FFFFF8
ENDCHAR
STARTCHAR 022
ENCODING 22
SWIDTH 1800 0
DWIDTH 25 0
BBX 21 64 2 -3
BITMAP
FFFFF8
FFFFF8
FFFFF8
FFFFF8
FFFFF8
F800F8
F800F8
F800F8
F800F8
F800F8
F800F8
F800F8
F800F8
F800F8
F800F8
F800F8
F800F8
F800F8
F800F8
F800F8
F800F8
F800F8
F800F8
F800F8
F800F8
F800F8
F800F8
F800F8
F800F8
F800F8
F800F8
F800F8
F800F8
F800F8
F800F8
F800F8
F800F8
F800F8
F800F8
F800F8
F800F8
F800F8
F800F8
F800F8
F800F8
F800F8
F800F8
F800F8
F800F8
F800F8
F800F8
F800F8
F800F8
F800F8
F800F8
F800F8
F800F8
F800F8
F800F8
F800F8
FFFFF8
FFFFF8
FFFFF8
FFFFF8
ENDCHAR
STARTCHAR 023
ENCODING 23
SWIDTH 1800 0
DWIDTH 25 0
BBX 21 64 2 -3
BITMAP
FFFFF8
FFFFF8
FFFFF8
FFFFF8
FFFFF8
F800F8
F800F8
F800F8
F800F8
F800F8
F800F8
F800F8
F800F8
F800F8
F800F8
F800F8
F800F8
F800F8
F800F8
F800F8
F800F8
F800F8
F800F8
F800F8
F800F8
F800F8
F800F8
F800F8
F800F8
F800F8
F800F8
F800F8
F800F8
F800F8
F800F8
F800F8
F800F8
F800F8
F800F8
F800F8
F800F8
F800F8
F800F8
F800F8
F800F8
F800F8
F800F8
F800F8
F800F8
F800F8
F800F8
F800F8
F800F8
F800F8
F800F8
F800F8
F800F8
F800F8
F800F8
F800F8
FFFFF8
FFFFF8
FFFFF8
FFFFF8
ENDCHAR
STARTCHAR 024
ENCODING 24
SWIDTH 1800 0
DWIDTH 25 0
BBX 21 64 2 -3
BITMAP
FFFFF8
FFFFF8
FFFFF8
FFFFF8
FFFFF8
F800F8
F800F8
F800F8
F800F8
F800F8
F800F8
F800F8
F800F8
F800F8
F800F8
F800F8
F800F8
F800F8
F800F8
F800F8
F800F8
F800F8
F800F8
F800F8
F800F8
F800F8
F800F8
F800F8
F800F8
F800F8
F800F8
F800F8
F800F8
F800F8
F800F8
F800F8
F800F8
F800F8
F800F8
F800F8
F800F8
F800F8
F800F8
F800F8
F800F8
F800F8
F800F8
F800F8
F800F8
F800F8
F800F8
F800F8
F800F8
F800F8
F800F8
F800F8
F800F8
F800F8
F800F8
F800F8
FFFFF8
FFFFF8
FFFFF8
FFFFF8
ENDCHAR
STARTCHAR 025
ENCODING 25
SWIDTH 1800 0
DWIDTH 25 0
BBX 21 64 2 -3
BITMAP
FFFFF8
FFFFF8
FFFFF8
FFFFF8
FFFFF8
F800F8
F800F8
F800F8
F800F8
F800F8
F800F8
F800F8
F800F8
F800F8
F800F8
F800F8
F800F8
F800F8
F800F8
F800F8
F800F8
F800F8
F800F8
F800F8
F800F8
F800F8
F800F8
F800F8
F800F8
F800F8
F800F8
F800F8
F800F8
F800F8
F800F8
F800F8
F800F8
F800F8
F800F8
F800F8
F800F8
F800F8
F800F8
F800F8
F800F8
F800F8
F800F8
F800F8
F800F8
F800F8
F800F8
F800F8
F800F8
F800F8
F800F8
F800F8
F800F8
F800F8
F800F8
F800F8
FFFFF8
FFFFF8
FFFFF8
FFFFF8
ENDCHAR
STARTCHAR 026
ENCODING 26
SWIDTH 1800 0
DWIDTH 25 0
BBX 21 64 2 -3
BITMAP
FFFFF8
FFFFF8
FFFFF8
FFFFF8
FFFFF8
F800F8
F800F8
F800F8
F800F8
F800F8
F800F8
F800F8
F800F8
F800F8
F800F8
F800F8
F800F8
F800F8
F800F8
F800F8
F800F8
F800F8
F800F8
F800F8
F800F8
F800F8
F800F8
F800F8
F800F8
F800F8
F800F8
F800F8
F800F8
F800F8
F800F8
F800F8
F800F8
F800F8
F800F8
F800F8
F800F8
F800F8
F800F8
F800F8
F800F8
F800F8
F800F8
F800F8
F800F8
F800F8
F800F8
F800F8
F800F8
F800F8
F800F8
F800F8
F800F8
F800F8
F800F8
F800F8
FFFFF8
FFFFF8
FFFFF8
FFFFF8
ENDCHAR
STARTCHAR 027
ENCODING 27
SWIDTH 1800 0
DWIDTH 25 0
BBX 21 64 2 -3
BITMAP
FFFFF8
FFFFF8
FFFFF8
FFFFF8
FFFFF8
F800F8
F800F8
F800F8
F800F8
F800F8
F800F8
F800F8
F800F8
F800F8
F800F8
F800F8
F800F8
F800F8
F800F8
F800F8
F800F8
F800F8
F800F8
F800F8
F800F8
F800F8
F800F8
F800F8
F800F8
F800F8
F800F8
F800F8
F800F8
F800F8
F800F8
F800F8
F800F8
F800F8
F800F8
F800F8
F800F8
F800F8
F800F8
F800F8
F800F8
F800F8
F800F8
F800F8
F800F8
F800F8
F800F8
F800F8
F800F8
F800F8
F800F8
F800F8
F800F8
F800F8
F800F8
F800F8
FFFFF8
FFFFF8
FFFFF8
FFFFF8
ENDCHAR
STARTCHAR 028
ENCODING 28
SWIDTH 0 0
DWIDTH 0 0
BBX 0 0 0 0
BITMAP
ENDCHAR
STARTCHAR 029
ENCODING 29
SWIDTH 0 0
DWIDTH 0 0
BBX 0 0 0 0
BITMAP
ENDCHAR
STARTCHAR 030
ENCODING 30
SWIDTH 0 0
DWIDTH 0 0
BBX 0 0 0 0
BITMAP
ENDCHAR
STARTCHAR 031
ENCODING 31
SWIDTH 0 0
DWIDTH 0 0
BBX 0 0 0 0
BITMAP
ENDCHAR
STARTCHAR 032
ENCODING 32
SWIDTH 1368 0
DWIDTH 19 0
BBX 0 0 0 0
BITMAP
ENDCHAR
STARTCHAR 033
ENCODING 33
SWIDTH 5616 0
DWIDTH 78 0
BBX 0 0 0 0
BITMAP
ENDCHAR
STARTCHAR 034
ENCODING 34
SWIDTH 1872 0
DWIDTH 26 0
BBX 19 18 3 31
BITMAP
FE0FE0
FE0FE0
FE0FE0
FE0FE0
FE0FE0
FE0FE0
FE0FE0
FE0FE0
FE0FE0
FE0FE0
FE0FE0
7C07C0
7C07C0
7C07C0
7C07C0
7C07C0
7C07C0
3C03C0
ENDCHAR
STARTCHAR 035
ENCODING 35
SWIDTH 2880 0
DWIDTH 40 0
BBX 38 52 1 -3
BITMAP
0003E003E0
0003E003E0
0007E007C0
0007C007C0
0007C007C0
0007C007C0
0007C007C0
000F800F80
000F800F80
000F800F80
000F800F80
000F801F80
001F001F00
001F001F00
1FFFFFFFFC
1FFFFFFFFC
1FFFFFFFFC
1FFFFFFFFC
1FFFFFFFFC
003E003E00
003E003E00
007E007C00
007C007C00
007C007C00
007C007C00
007C007C00
00F800F800
00F800F800
00F800F800
00F800F800
00F801F800
01F001F000
01F001F000
FFFFFFFFE0
FFFFFFFFE0
FFFFFFFFE0
FFFFFFFFE0
FFFFFFFFE0
03E003E000
03E003E000
07E007C000
07C007C000
07C007C000
07C007C000
07C007C000
0F800F8000
0F800F8000
0F800F8000
0F800F8000
0F801F8000
1F001F0000
1F001F0000
ENDCHAR
STARTCHAR 036
ENCODING 36
SWIDTH 2880 0
DWIDTH 40 0
BBX 34 59 3 -4
BITMAP
0001E00000
0001E00000
0001E00000
0001E00000
0001E00000
000FFC0000
007FFF8000
01FFFFE000
03FFFFF800
07FFFFFC00
0FF9E7FC00
1FE1E1FE00
1FC1E0FF00
3F81E07F00
3F81E07F00
7F01E03F80
7F01E03F80
7F01E03F80
7F01E00000
7F01E00000
7F01E00000
7F01E00000
7F01E00000
7F81E00000
3FC1E00000
3FE1E00000
1FF1E00000
1FFFE00000
0FFFF00000
07FFFF0000
01FFFFC000
00FFFFF000
001FFFFC00
0003FFFE00
0001FFFF00
0001E3FF00
0001E0FF80
0001E07F80
0001E03F80
0001E03FC0
0001E01FC0
0001E01FC0
0001E01FC0
0001E01FC0
FE01E01FC0
FE01E01FC0
FE01E01FC0
7F01E01F80
7F01E03F80
7F01E03F80
3F81E07F00
3FC1E0FF00
1FE1E1FE00
1FF9E7FC00
0FFFFFFC00
07FFFFF000
01FFFFE000
007FFF8000
000FFC0000
ENDCHAR
STARTCHAR 037
ENCODING 37
SWIDTH 4608 0
DWIDTH 64 0
BBX 54 54 5 -4
BITMAP
00FE0000000000
03FF800007E000
0FFFE00007C000
1FFFF0000FC000
3F83F0000F8000
3F01F8001F8000
7E00FC001F0000
7E00FC003F0000
7E00FC003E0000
FC007E007E0000
FC007E007C0000
FC007E00FC0000
FC007E00F80000
FC007E01F80000
FC007E01F00000
FC007E03F00000
FC007E03E00000
FC007E07E00000
7E00FC07C00000
7E00FC0FC00000
7E00FC0F800000
3F01F81F800000
3F83F01F000000
1FFFF03F000000
0FFFE03E000000
03FF807E000000
00FE007C000000
000000F801FC00
000001F807FF00
000001F01FFFC0
000003F03FFFE0
000003E07F07E0
000007E07E03F0
000007C0FC01F8
00000FC0FC01F8
00000F80FC01F8
00001F81F800FC
00001F01F800FC
00003F01F800FC
00003E01F800FC
00007E01F800FC
00007C01F800FC
0000FC01F800FC
0000F801F800FC
0001F801F800FC
0001F000FC01F8
0003F000FC01F8
0003E000FC01F8
0007E0007E03F0
0007C0007F07E0
000FC0003FFFE0
000F80001FFFC0
001F800007FF00
0000000001FC00
ENDCHAR
STARTCHAR 038
ENCODING 38
SWIDTH 3456 0
DWIDTH 48 0
BBX 41 54 3 -4
BITMAP
0001FE000000
000FFF800000
001FFFE00000
003FFFF00000
007FFFF80000
00FF07F80000
01FE03FC0000
01FC01FC0000
03F800FE0000
03F800FE0000
03F800FE0000
03F800FE0000
03F800FE0000
03FC00FE0000
03FC01FE0000
01FC01FC0000
01FE03FC0000
00FF07F80000
00FF0FF00000
007FBFE00000
003FFFC00000
003FFF800000
001FFF000000
001FFC000000
007FF8000000
00FFFC000000
01FFFE000000
03FFFF000000
0FFCFF800000
1FF07F807F00
1FE07FC07F00
3FC03FE07F00
7F801FF07F00
7F000FF87E00
7F0007F8FE00
FE0007FCFE00
FE0003FEFE00
FE0001FFFC00
FE0000FFFC00
FE00007FFC00
FE00007FF800
FE00003FF800
FF00001FF000
7F00000FF000
7F80001FF800
3F80003FFC00
3FC0007FFE00
1FE001FFFF00
0FF80FFEFF00
07FFFFFC7F80
03FFFFF87F00
01FFFFE03E00
007FFF801C00
000FF8000800
ENDCHAR
STARTCHAR 039
ENCODING 39
SWIDTH 1008 0
DWIDTH 14 0
BBX 7 18 3 31
BITMAP
FE
FE
FE
FE
FE
FE
FE
FE
FE
FE
FE
7C
7C
7C
7C
7C
7C
3C
ENDCHAR
STARTCHAR 040
ENCODING 40
SWIDTH 1728 0
DWIDTH 24 0
BBX 17 54 4 -4
BITMAP
000F80
000F00
001F00
003E00
003E00
007C00
00FC00
00F800
01F800
01F000
03F000
03F000
07E000
07E000
0FE000
0FC000
1FC000
1FC000
1F8000
3F8000
3F8000
3F8000
3F0000
7F0000
7F0000
7F0000
7F0000
7F0000
7F0000
7E0000
FE0000
FE0000
FE0000
FE0000
FE0000
FE0000
FE0000
FE0000
7E0000
7F0000
7F0000
7F0000
7F0000
7F0000
7F0000
3F0000
3F8000
3F8000
3F8000
1F8000
1FC000
0FC000
0FC000
0FE000
ENDCHAR
STARTCHAR 041
ENCODING 41
SWIDTH 1728 0
DWIDTH 24 0
BBX 17 54 3 -4
BITMAP
F80000
780000
7C0000
3E0000
3E0000
1F0000
1F8000
0F8000
0FC000
07C000
07E000
07E000
03F000
03F000
03F800
01F800
01F800
01FC00
00FC00
00FE00
00FE00
00FE00
007E00
007F00
007F00
007F00
007F00
007F00
007F00
003F00
003F80
003F80
003F80
003F80
003F80
003F80
003F80
003F80
003F00
007F00
007F00
007F00
007F00
007F00
007F00
007E00
00FE00
00FE00
00FE00
00FC00
01FC00
01F800
01F800
03F800
ENDCHAR
STARTCHAR 042
ENCODING 42
SWIDTH 2016 0
DWIDTH 28 0
BBX 23 22 2 28
BITMAP
007C00
007C00
007C00
007C00
007C00
407C04
70381C
7E38FC
7FBBFC
FFFFFE
7FFFFC
07FFC0
00FE00
01FF00
01EF00
03EF80
07C7C0
0FC7E0
1F83F0
0F03E0
0701C0
020080
ENDCHAR
STARTCHAR 043
ENCODING 43
SWIDTH 3024 0
DWIDTH 42 0
BBX 34 34 4 5
BITMAP
0003F00000
0003F00000
0003F00000
0003F00000
0003F00000
0003F00000
0003F00000
0003F00000
0003F00000
0003F00000
0003F00000
0003F00000
0003F00000
0003F00000
FFFFFFFFC0
FFFFFFFFC0
FFFFFFFFC0
FFFFFFFFC0
FFFFFFFFC0
FFFFFFFFC0
0003F00000
0003F00000
0003F00000
0003F00000
0003F00000
0003F00000
0003F00000
0003F00000
0003F00000
0003F00000
0003F00000
0003F00000
0003F00000
0003F00000
ENDCHAR
STARTCHAR 044
ENCODING 44
SWIDTH 1440 0
DWIDTH 20 0
BBX 7 8 6 -4
BITMAP
FE
FE
FE
FE
FE
FE
FE
1E
ENDCHAR
STARTCHAR 045
ENCODING 45
SWIDTH 5616 0
DWIDTH 78 0
BBX 50 8 14 40
BITMAP
1FFFFFFFFFFE00
3FFFFFFFFFFF00
7FFFFFFFFFFF80
FFFFFFFFFFFFC0
FFFFFFFFFFFFC0
7FFFFFFFFFFF80
3FFFFFFFFFFF00
1FFFFFFFFFFE00
ENDCHAR
STARTCHAR 046
ENCODING 46
SWIDTH 0 0
DWIDTH 0 0
BBX 0 0 0 0
BITMAP
ENDCHAR
STARTCHAR 047
ENCODING 47
SWIDTH 1440 0
DWIDTH 20 0
BBX 20 52 0 -3
BITMAP
0001F0
0003F0
0003E0
0003E0
0003E0
0007C0
0007C0
0007C0
000FC0
000F80
000F80
000F80
001F00
001F00
001F00
003F00
003E00
003E00
003E00
007C00
007C00
007C00
00FC00
00F800
00F800
00F800
01F000
01F000
01F000
03F000
03E000
03E000
03E000
07C000
07C000
07C000
0FC000
0F8000
0F8000
0F8000
1F0000
1F0000
1F0000
3F0000
3E0000
3E0000
3E0000
7C0000
7C0000
7C0000
FC0000
F80000
ENDCHAR
STARTCHAR 048
ENCODING 48
SWIDTH 5616 0
DWIDTH 78 0
BBX 60 96 9 -4
BITMAP
01FFFFFFFFFFF800
03FFFFFFFFFFFC00
07FFFFFFFFFFFE00
07FFFFFFFFFFFE00
13FFFFFFFFFFFC00
39FFFFFFFFFFF8C0
7CFFFFFFFFFFF1E0
FE7FFFFFFFFFE3F0
FF3FFFFFFFFFC7F0
FF80000000000FF0
FF80000000001FF0
FF80000000001FF0
FF80000000001FF0
FF80000000001FF0
FF80000000001FF0
FF80000000001FF0
FF80000000001FF0
FF80000000001FF0
FF80000000001FF0
FF80000000001FF0
FF80000000001FF0
FF80000000001FF0
FF80000000001FF0
FF80000000001FF0
FF80000000001FF0
FF80000000001FF0
FF80000000001FF0
FF80000000001FF0
FF80000000001FF0
FF80000000001FF0
FF80000000001FF0
FF80000000001FF0
FF80000000001FF0
FF80000000001FF0
FF80000000001FF0
FF80000000001FF0
FF80000000001FF0
FF80000000001FF0
FF80000000001FF0
FF80000000001FF0
FF80000000001FF0
FF80000000000FF0
FF000000000007F0
FE000000000003F0
FC000000000001F0
F8000000000000F0
F000000000000070
0000000000000000
0000000000000000
F000000000000070
F8000000000000F0
FC000000000001F0
FE000000000003F0
FF000000000007F0
FF80000000000FF0
FF80000000001FF0
FF80000000001FF0
FF80000000001FF0
FF80000000001FF0
FF80000000001FF0
FF80000000001FF0
FF80000000001FF0
FF80000000001FF0
FF80000000001FF0
FF80000000001FF0
FF80000000001FF0
FF80000000001FF0
FF80000000001FF0
FF80000000001FF0
FF80000000001FF0
FF80000000001FF0
FF80000000001FF0
FF80000000001FF0
FF80000000001FF0
FF80000000001FF0
FF80000000001FF0
FF80000000001FF0
FF80000000001FF0
FF80000000001FF0
FF80000000001FF0
FF80000000001FF0
FF80000000001FF0
FF80000000001FF0
FF80000000001FF0
FF80000000001FF0
FF80000000001FF0
FF80000000000FF0
FF3FFFFFFFFFC7F0
FE7FFFFFFFFFE3F0
7CFFFFFFFFFFF1E0
39FFFFFFFFFFF8C0
13FFFFFFFFFFFC00
07FFFFFFFFFFFE00
07FFFFFFFFFFFE00
03FFFFFFFFFFFC00
01FFFFFFFFFFF800
ENDCHAR
STARTCHAR 049
ENCODING 49
SWIDTH 5616 0
DWIDTH 78 0
BBX 9 86 60 1
BITMAP
0600
0F00
1F80
3F80
7F80
FF80
FF80
FF80
FF80
FF80
FF80
FF80
FF80
FF80
FF80
FF80
FF80
FF80
FF80
FF80
FF80
FF80
FF80
FF80
FF80
FF80
FF80
FF80
FF80
FF80
FF80
FF80
FF80
FF80
FF80
FF80
7F80
3F80
1F80
0F80
0780
0380
0000
0000
0380
0780
0F80
1F80
3F80
7F80
FF80
FF80
FF80
FF80
FF80
FF80
FF80
FF80
FF80
FF80
FF80
FF80
FF80
FF80
FF80
FF80
FF80
FF80
FF80
FF80
FF80
FF80
FF80
FF80
FF80
FF80
FF80
FF80
FF80
FF80
FF80
7F80
3F80
1F80
0F00
0600
ENDCHAR
STARTCHAR 050
ENCODING 50
SWIDTH 5616 0
DWIDTH 78 0
BBX 60 96 9 -4
BITMAP
01FFFFFFFFFFF800
03FFFFFFFFFFFC00
07FFFFFFFFFFFE00
07FFFFFFFFFFFE00
03FFFFFFFFFFFC00
01FFFFFFFFFFF8C0
00FFFFFFFFFFF1E0
007FFFFFFFFFE3F0
003FFFFFFFFFC7F0
0000000000000FF0
0000000000001FF0
0000000000001FF0
0000000000001FF0
0000000000001FF0
0000000000001FF0
0000000000001FF0
0000000000001FF0
0000000000001FF0
0000000000001FF0
0000000000001FF0
0000000000001FF0
0000000000001FF0
0000000000001FF0
0000000000001FF0
0000000000001FF0
0000000000001FF0
0000000000001FF0
0000000000001FF0
0000000000001FF0
0000000000001FF0
0000000000001FF0
0000000000001FF0
0000000000001FF0
0000000000001FF0
0000000000001FF0
0000000000001FF0
0000000000001FF0
0000000000001FF0
0000000000001FF0
0000000000001FF0
0000000000001FF0
0000000000000FF0
00000000000007F0
00000000000003F0
00FFFFFFFFFFF1F0
01FFFFFFFFFFF8F0
03FFFFFFFFFFFC70
07FFFFFFFFFFFE00
07FFFFFFFFFFFE00
F3FFFFFFFFFFFC00
F9FFFFFFFFFFF800
FCFFFFFFFFFFF000
FE00000000000000
FF00000000000000
FF80000000000000
FF80000000000000
FF80000000000000
FF80000000000000
FF80000000000000
FF80000000000000
FF80000000000000
FF80000000000000
FF80000000000000
FF80000000000000
FF80000000000000
FF80000000000000
FF80000000000000
FF80000000000000
FF80000000000000
FF80000000000000
FF80000000000000
FF80000000000000
FF80000000000000
FF80000000000000
FF80000000000000
FF80000000000000
FF80000000000000
FF80000000000000
FF80000000000000
FF80000000000000
FF80000000000000
FF80000000000000
FF80000000000000
FF80000000000000
FF80000000000000
FF80000000000000
FF80000000000000
FF3FFFFFFFFFC000
FE7FFFFFFFFFE000
7CFFFFFFFFFFF000
39FFFFFFFFFFF800
13FFFFFFFFFFFC00
07FFFFFFFFFFFE00
07FFFFFFFFFFFE00
03FFFFFFFFFFFC00
01FFFFFFFFFFF800
ENDCHAR
STARTCHAR 051
ENCODING 51
SWIDTH 5616 0
DWIDTH 78 0
BBX 55 96 14 -4
BITMAP
3FFFFFFFFFFF00
7FFFFFFFFFFF80
FFFFFFFFFFFFC0
FFFFFFFFFFFFC0
7FFFFFFFFFFF80
3FFFFFFFFFFF18
1FFFFFFFFFFE3C
0FFFFFFFFFFC7E
07FFFFFFFFF8FE
000000000001FE
000000000003FE
000000000003FE
000000000003FE
000000000003FE
000000000003FE
000000000003FE
000000000003FE
000000000003FE
000000000003FE
000000000003FE
000000000003FE
000000000003FE
000000000003FE
000000000003FE
000000000003FE
000000000003FE
000000000003FE
000000000003FE
000000000003FE
000000000003FE
000000000003FE
000000000003FE
000000000003FE
000000000003FE
000000000003FE
000000000003FE
000000000003FE
000000000003FE
000000000003FE
000000000003FE
000000000003FE
000000000001FE
000000000000FE
0000000000007E
1FFFFFFFFFFE3E
3FFFFFFFFFFF1E
7FFFFFFFFFFF8E
FFFFFFFFFFFFC0
FFFFFFFFFFFFC0
7FFFFFFFFFFF8E
3FFFFFFFFFFF1E
1FFFFFFFFFFE3E
0000000000007E
000000000000FE
000000000001FE
000000000003FE
000000000003FE
000000000003FE
000000000003FE
000000000003FE
000000000003FE
000000000003FE
000000000003FE
000000000003FE
000000000003FE
000000000003FE
000000000003FE
000000000003FE
000000000003FE
000000000003FE
000000000003FE
000000000003FE
000000000003FE
000000000003FE
000000000003FE
000000000003FE
000000000003FE
000000000003FE
000000000003FE
000000000003FE
000000000003FE
000000000003FE
000000000003FE
000000000003FE
000000000003FE
000000000003FE
000000000001FE
07FFFFFFFFF8FE
0FFFFFFFFFFC7E
1FFFFFFFFFFE3C
3FFFFFFFFFFF18
7FFFFFFFFFFF80
FFFFFFFFFFFFC0
FFFFFFFFFFFFC0
7FFFFFFFFFFF80
3FFFFFFFFFFF00
ENDCHAR
STARTCHAR 052
ENCODING 52
SWIDTH 5616 0
DWIDTH 78 0
BBX 60 87 9 1
BITMAP
1000000000000000
38000000000000C0
7C000000000001E0
FE000000000003F0
FF000000000007F0
FF80000000000FF0
FF80000000001FF0
FF80000000001FF0
FF80000000001FF0
FF80000000001FF0
FF80000000001FF0
FF80000000001FF0
FF80000000001FF0
FF80000000001FF0
FF80000000001FF0
FF80000000001FF0
FF80000000001FF0
FF80000000001FF0
FF80000000001FF0
FF80000000001FF0
FF80000000001FF0
FF80000000001FF0
FF80000000001FF0
FF80000000001FF0
FF80000000001FF0
FF80000000001FF0
FF80000000001FF0
FF80000000001FF0
FF80000000001FF0
FF80000000001FF0
FF80000000001FF0
FF80000000001FF0
FF80000000001FF0
FF80000000001FF0
FF80000000001FF0
FF80000000001FF0
FF80000000001FF0
FF80000000000FF0
FF000000000007F0
FE000000000003F0
FCFFFFFFFFFFF1F0
F9FFFFFFFFFFF8F0
F3FFFFFFFFFFFC70
07FFFFFFFFFFFE00
07FFFFFFFFFFFE00
03FFFFFFFFFFFC70
01FFFFFFFFFFF8F0
00FFFFFFFFFFF1F0
00000000000003F0
00000000000007F0
0000000000000FF0
0000000000001FF0
0000000000001FF0
0000000000001FF0
0000000000001FF0
0000000000001FF0
0000000000001FF0
0000000000001FF0
0000000000001FF0
0000000000001FF0
0000000000001FF0
0000000000001FF0
0000000000001FF0
0000000000001FF0
0000000000001FF0
0000000000001FF0
0000000000001FF0
0000000000001FF0
0000000000001FF0
0000000000001FF0
0000000000001FF0
0000000000001FF0
0000000000001FF0
0000000000001FF0
0000000000001FF0
0000000000001FF0
0000000000001FF0
0000000000001FF0
0000000000001FF0
0000000000001FF0
0000000000001FF0
0000000000001FF0
0000000000000FF0
00000000000007F0
00000000000003F0
00000000000001E0
00000000000000C0
ENDCHAR
STARTCHAR 053
ENCODING 53
SWIDTH 5616 0
DWIDTH 78 0
BBX 60 96 9 -4
BITMAP
01FFFFFFFFFFF800
03FFFFFFFFFFFC00
07FFFFFFFFFFFE00
07FFFFFFFFFFFE00
13FFFFFFFFFFFC00
39FFFFFFFFFFF800
7CFFFFFFFFFFF000
FE7FFFFFFFFFE000
FF3FFFFFFFFFC000
FF80000000000000
FF80000000000000
FF80000000000000
FF80000000000000
FF80000000000000
FF80000000000000
FF80000000000000
FF80000000000000
FF80000000000000
FF80000000000000
FF80000000000000
FF80000000000000
FF80000000000000
FF80000000000000
FF80000000000000
FF80000000000000
FF80000000000000
FF80000000000000
FF80000000000000
FF80000000000000
FF80000000000000
FF80000000000000
FF80000000000000
FF80000000000000
FF80000000000000
FF80000000000000
FF80000000000000
FF80000000000000
FF80000000000000
FF80000000000000
FF80000000000000
FF80000000000000
FF80000000000000
FF00000000000000
FE00000000000000
FCFFFFFFFFFFF000
F9FFFFFFFFFFF800
F3FFFFFFFFFFFC00
07FFFFFFFFFFFE00
07FFFFFFFFFFFE00
03FFFFFFFFFFFC70
01FFFFFFFFFFF8F0
00FFFFFFFFFFF1F0
00000000000003F0
00000000000007F0
0000000000000FF0
0000000000001FF0
0000000000001FF0
0000000000001FF0
0000000000001FF0
0000000000001FF0
0000000000001FF0
0000000000001FF0
0000000000001FF0
0000000000001FF0
0000000000001FF0
0000000000001FF0
0000000000001FF0
0000000000001FF0
0000000000001FF0
0000000000001FF0
0000000000001FF0
0000000000001FF0
0000000000001FF0
0000000000001FF0
0000000000001FF0
0000000000001FF0
0000000000001FF0
0000000000001FF0
0000000000001FF0
0000000000001FF0
0000000000001FF0
0000000000001FF0
0000000000001FF0
0000000000001FF0
0000000000001FF0
0000000000001FF0
0000000000000FF0
003FFFFFFFFFC7F0
007FFFFFFFFFE3F0
00FFFFFFFFFFF1E0
01FFFFFFFFFFF8C0
03FFFFFFFFFFFC00
07FFFFFFFFFFFE00
07FFFFFFFFFFFE00
03FFFFFFFFFFFC00
01FFFFFFFFFFF800
ENDCHAR
STARTCHAR 054
ENCODING 54
SWIDTH 5616 0
DWIDTH 78 0
BBX 60 96 9 -4
BITMAP
01FFFFFFFFFFF800
03FFFFFFFFFFFC00
07FFFFFFFFFFFE00
07FFFFFFFFFFFE00
13FFFFFFFFFFFC00
39FFFFFFFFFFF800
7CFFFFFFFFFFF000
FE7FFFFFFFFFE000
FF3FFFFFFFFFC000
FF80000000000000
FF80000000000000
FF80000000000000
FF80000000000000
FF80000000000000
FF80000000000000
FF80000000000000
FF80000000000000
FF80000000000000
FF80000000000000
FF80000000000000
FF80000000000000
FF80000000000000
FF80000000000000
FF80000000000000
FF80000000000000
FF80000000000000
FF80000000000000
FF80000000000000
FF80000000000000
FF80000000000000
FF80000000000000
FF80000000000000
FF80000000000000
FF80000000000000
FF80000000000000
FF80000000000000
FF80000000000000
FF80000000000000
FF80000000000000
FF80000000000000
FF80000000000000
FF80000000000000
FF00000000000000
FE00000000000000
FCFFFFFFFFFFF000
F9FFFFFFFFFFF800
F3FFFFFFFFFFFC00
07FFFFFFFFFFFE00
07FFFFFFFFFFFE00
F3FFFFFFFFFFFC70
F9FFFFFFFFFFF8F0
FCFFFFFFFFFFF1F0
FE000000000003F0
FF000000000007F0
FF80000000000FF0
FF80000000001FF0
FF80000000001FF0
FF80000000001FF0
FF80000000001FF0
FF80000000001FF0
FF80000000001FF0
FF80000000001FF0
FF80000000001FF0
FF80000000001FF0
FF80000000001FF0
FF80000000001FF0
FF80000000001FF0
FF80000000001FF0
FF80000000001FF0
FF80000000001FF0
FF80000000001FF0
FF80000000001FF0
FF80000000001FF0
FF80000000001FF0
FF80000000001FF0
FF80000000001FF0
FF80000000001FF0
FF80000000001FF0
FF80000000001FF0
FF80000000001FF0
FF80000000001FF0
FF80000000001FF0
FF80000000001FF0
FF80000000001FF0
FF80000000001FF0
FF80000000001FF0
FF80000000000FF0
FF3FFFFFFFFFC7F0
FE7FFFFFFFFFE3F0
7CFFFFFFFFFFF1E0
39FFFFFFFFFFF8C0
13FFFFFFFFFFFC00
07FFFFFFFFFFFE00
07FFFFFFFFFFFE00
03FFFFFFFFFFFC00
01FFFFFFFFFFF800
ENDCHAR
STARTCHAR 055
ENCODING 55
SWIDTH 5616 0
DWIDTH 78 0
BBX 60 91 9 1
BITMAP
01FFFFFFFFFFF800
03FFFFFFFFFFFC00
07FFFFFFFFFFFE00
07FFFFFFFFFFFE00
13FFFFFFFFFFFC00
39FFFFFFFFFFF8C0
7CFFFFFFFFFFF1E0
FE7FFFFFFFFFE3F0
FF3FFFFFFFFFC7F0
FF80000000000FF0
FF80000000001FF0
FF80000000001FF0
FF80000000001FF0
FF80000000001FF0
FF80000000001FF0
FF80000000001FF0
FF80000000001FF0
FF80000000001FF0
FF80000000001FF0
FF80000000001FF0
FF80000000001FF0
FF80000000001FF0
FF80000000001FF0
FF80000000001FF0
FF80000000001FF0
FF80000000001FF0
FF80000000001FF0
FF80000000001FF0
FF80000000001FF0
FF80000000001FF0
FF80000000001FF0
FF80000000001FF0
FF80000000001FF0
FF80000000001FF0
FF80000000001FF0
FF80000000001FF0
FF80000000001FF0
FF80000000001FF0
FF80000000001FF0
FF80000000001FF0
FF80000000001FF0
FF80000000000FF0
FF000000000007F0
FE000000000003F0
FC000000000001F0
F8000000000000F0
F000000000000070
0000000000000000
0000000000000000
0000000000000070
00000000000000F0
00000000000001F0
00000000000003F0
00000000000007F0
0000000000000FF0
0000000000001FF0
0000000000001FF0
0000000000001FF0
0000000000001FF0
0000000000001FF0
0000000000001FF0
0000000000001FF0
0000000000001FF0
0000000000001FF0
0000000000001FF0
0000000000001FF0
0000000000001FF0
0000000000001FF0
0000000000001FF0
0000000000001FF0
0000000000001FF0
0000000000001FF0
0000000000001FF0
0000000000001FF0
0000000000001FF0
0000000000001FF0
0000000000001FF0
0000000000001FF0
0000000000001FF0
0000000000001FF0
0000000000001FF0
0000000000001FF0
0000000000001FF0
0000000000001FF0
0000000000001FF0
0000000000001FF0
0000000000000FF0
00000000000007F0
00000000000003F0
00000000000001E0
00000000000000C0
ENDCHAR
STARTCHAR 056
ENCODING 56
SWIDTH 5616 0
DWIDTH 78 0
BBX 60 96 9 -4
BITMAP
01FFFFFFFFFFF800
03FFFFFFFFFFFC00
07FFFFFFFFFFFE00
07FFFFFFFFFFFE00
13FFFFFFFFFFFC00
39FFFFFFFFFFF8C0
7CFFFFFFFFFFF1E0
FE7FFFFFFFFFE3F0
FF3FFFFFFFFFC7F0
FF80000000000FF0
FF80000000001FF0
FF80000000001FF0
FF80000000001FF0
FF80000000001FF0
FF80000000001FF0
FF80000000001FF0
FF80000000001FF0
FF80000000001FF0
FF80000000001FF0
FF80000000001FF0
FF80000000001FF0
FF80000000001FF0
FF80000000001FF0
FF80000000001FF0
FF80000000001FF0
FF80000000001FF0
FF80000000001FF0
FF80000000001FF0
FF80000000001FF0
FF80000000001FF0
FF80000000001FF0
FF80000000001FF0
FF80000000001FF0
FF80000000001FF0
FF80000000001FF0
FF80000000001FF0
FF80000000001FF0
FF80000000001FF0
FF80000000001FF0
FF80000000001FF0
FF80000000001FF0
FF80000000000FF0
FF000000000007F0
FE000000000003F0
FCFFFFFFFFFFF1F0
F9FFFFFFFFFFF8F0
F3FFFFFFFFFFFC70
07FFFFFFFFFFFE00
07FFFFFFFFFFFE00
F3FFFFFFFFFFFC70
F9FFFFFFFFFFF8F0
FCFFFFFFFFFFF1F0
FE000000000003F0
FF000000000007F0
FF80000000000FF0
FF80000000001FF0
FF80000000001FF0
FF80000000001FF0
FF80000000001FF0
FF80000000001FF0
FF80000000001FF0
FF80000000001FF0
FF80000000001FF0
FF80000000001FF0
FF80000000001FF0
FF80000000001FF0
FF80000000001FF0
FF80000000001FF0
FF80000000001FF0
FF80000000001FF0
FF80000000001FF0
FF80000000001FF0
FF80000000001FF0
FF80000000001FF0
FF80000000001FF0
FF80000000001FF0
FF80000000001FF0
FF80000000001FF0
FF80000000001FF0
FF80000000001FF0
FF80000000001FF0
FF80000000001FF0
FF80000000001FF0
FF80000000001FF0
FF80000000001FF0
FF80000000001FF0
FF80000000000FF0
FF3FFFFFFFFFC7F0
FE7FFFFFFFFFE3F0
7CFFFFFFFFFFF1E0
39FFFFFFFFFFF8C0
13FFFFFFFFFFFC00
07FFFFFFFFFFFE00
07FFFFFFFFFFFE00
03FFFFFFFFFFFC00
01FFFFFFFFFFF800
ENDCHAR
STARTCHAR 057
ENCODING 57
SWIDTH 5616 0
DWIDTH 78 0
BBX 60 96 9 -4
BITMAP
01FFFFFFFFFFF800
03FFFFFFFFFFFC00
07FFFFFFFFFFFE00
07FFFFFFFFFFFE00
13FFFFFFFFFFFC00
39FFFFFFFFFFF8C0
7CFFFFFFFFFFF1E0
FE7FFFFFFFFFE3F0
FF3FFFFFFFFFC7F0
FF80000000000FF0
FF80000000001FF0
FF80000000001FF0
FF80000000001FF0
FF80000000001FF0
FF80000000001FF0
FF80000000001FF0
FF80000000001FF0
FF80000000001FF0
FF80000000001FF0
FF80000000001FF0
FF80000000001FF0
FF80000000001FF0
FF80000000001FF0
FF80000000001FF0
FF80000000001FF0
FF80000000001FF0
FF80000000001FF0
FF80000000001FF0
FF80000000001FF0
FF80000000001FF0
FF80000000001FF0
FF80000000001FF0
FF80000000001FF0
FF80000000001FF0
FF80000000001FF0
FF80000000001FF0
FF80000000001FF0
FF80000000001FF0
FF80000000001FF0
FF80000000001FF0
FF80000000001FF0
FF80000000000FF0
FF000000000007F0
FE000000000003F0
FCFFFFFFFFFFF1F0
F9FFFFFFFFFFF8F0
F3FFFFFFFFFFFC70
07FFFFFFFFFFFE00
07FFFFFFFFFFFE00
03FFFFFFFFFFFC70
01FFFFFFFFFFF8F0
00FFFFFFFFFFF1F0
00000000000003F0
00000000000007F0
0000000000000FF0
0000000000001FF0
0000000000001FF0
0000000000001FF0
0000000000001FF0
0000000000001FF0
0000000000001FF0
0000000000001FF0
0000000000001FF0
0000000000001FF0
0000000000001FF0
0000000000001FF0
0000000000001FF0
0000000000001FF0
0000000000001FF0
0000000000001FF0
0000000000001FF0
0000000000001FF0
0000000000001FF0
0000000000001FF0
0000000000001FF0
0000000000001FF0
0000000000001FF0
0000000000001FF0
0000000000001FF0
0000000000001FF0
0000000000001FF0
0000000000001FF0
0000000000001FF0
0000000000001FF0
0000000000001FF0
0000000000001FF0
0000000000000FF0
003FFFFFFFFFC7F0
007FFFFFFFFFE3F0
00FFFFFFFFFFF1E0
01FFFFFFFFFFF8C0
03FFFFFFFFFFFC00
07FFFFFFFFFFFE00
07FFFFFFFFFFFE00
03FFFFFFFFFFFC00
01FFFFFFFFFFF800
ENDCHAR
STARTCHAR 058
ENCODING 58
SWIDTH 1368 0
DWIDTH 19 0
BBX 12 51 4 17
BITMAP
3F80
7FC0
FFE0
FFE0
FFE0
FFF0
FFE0
FFE0
FFE0
7FC0
3F80
0000
0000
0000
0000
0000
0000
0000
0000
0000
0000
0000
0000
0000
0000
0000
0000
0000
0000
0000
0000
0000
0000
0000
0000
0000
0000
0000
0000
1F00
3F80
7FC0
FFE0
FFE0
FFF0
FFF0
FFE0
FFE0
7FC0
3FC0
1F00
ENDCHAR
STARTCHAR 059
ENCODING 59
SWIDTH 1440 0
DWIDTH 20 0
BBX 7 38 6 -4
BITMAP
FE
FE
FE
FE
FE
FE
FE
00
00
00
00
00
00
00
00
00
00
00
00
00
00
00
00
00
00
00
00
00
00
00
FE
FE
FE
FE
FE
FE
FE
1E
ENDCHAR
STARTCHAR 060
ENCODING 60
SWIDTH 3024 0
DWIDTH 42 0
BBX 34 35 4 5
BITMAP
0000000040
00000003C0
0000000FC0
0000003FC0
000001FFC0
000007FFC0
00001FFFC0
0000FFFE00
0003FFF800
000FFFE000
007FFF0000
01FFFC0000
07FFF00000
3FFF800000
FFFE000000
FFF8000000
FFC0000000
FF00000000
FFC0000000
FFF8000000
FFFE000000
3FFF800000
07FFF00000
01FFFC0000
007FFF0000
000FFFE000
0003FFF800
0000FFFE00
00001FFFC0
000007FFC0
000001FFC0
0000003FC0
0000000FC0
00000003C0
0000000040
ENDCHAR
STARTCHAR 061
ENCODING 61
SWIDTH 3024 0
DWIDTH 42 0
BBX 34 22 4 11
BITMAP
FFFFFFFFC0
FFFFFFFFC0
FFFFFFFFC0
FFFFFFFFC0
FFFFFFFFC0
FFFFFFFFC0
0000000000
0000000000
0000000000
0000000000
0000000000
0000000000
0000000000
0000000000
0000000000
0000000000
FFFFFFFFC0
FFFFFFFFC0
FFFFFFFFC0
FFFFFFFFC0
FFFFFFFFC0
FFFFFFFFC0
ENDCHAR
STARTCHAR 062
ENCODING 62
SWIDTH 3024 0
DWIDTH 42 0
BBX 34 35 4 5
BITMAP
8000000000
F000000000
FC00000000
FF00000000
FFE0000000
FFF8000000
FFFE000000
1FFFC00000
07FFF00000
01FFFC0000
003FFF8000
000FFFE000
0003FFF800
00007FFF00
00001FFFC0
000007FFC0
000000FFC0
0000003FC0
000000FFC0
000007FFC0
00001FFFC0
00007FFF00
0003FFF800
000FFFE000
003FFF8000
01FFFC0000
07FFF00000
1FFFC00000
FFFE000000
FFF8000000
FFE0000000
FF00000000
FC00000000
F000000000
8000000000
ENDCHAR
STARTCHAR 063
ENCODING 63
SWIDTH 2880 0
DWIDTH 40 0
BBX 34 53 3 -3
BITMAP
000FFC0000
007FFF8000
01FFFFE000
03FFFFF800
07FFFFFC00
0FFC07FE00
1FF001FF00
3FC000FF00
3F80007F80
7F80003F80
7F00003F80
7F00001FC0
FF00001FC0
FE00001FC0
FE00001FC0
0000001FC0
0000001FC0
0000001FC0
0000003F80
0000003F80
0000007F80
000000FF00
000001FF00
000003FE00
000007FC00
00000FF800
00001FF000
00003FE000
00007FC000
0000FF0000
0000FE0000
0001FE0000
0001FC0000
0001F80000
0003F80000
0003F00000
0003F00000
0003F00000
0003F00000
0003F00000
0003F00000
0000000000
0000000000
0000000000
0000000000
0000000000
0003F80000
0003F80000
0003F80000
0003F80000
0003F80000
0003F80000
0003F80000
ENDCHAR
STARTCHAR 064
ENCODING 64
SWIDTH 5256 0
DWIDTH 73 0
BBX 65 54 4 -4
BITMAP
0000000FFF80000000
000000FFFFFC000000
000007FFFFFF800000
00001FFFFFFFE00000
00007FFFFFFFF00000
0000FFF8007FFC0000
0003FF800007FE0000
0007FC000001FF0000
000FF00000007F8000
001FE00000001FC000
003F800000000FE000
007F0000000007F000
00FE0000000003F800
00FC0000000001F800
00F80000000000FC00
00F0000FF800007C00
00E0003FFF0FC07E00
00E000FFFF8FC03E00
00C001FFFFCFC03F00
008007FFFFFFC01F00
00800FF80FFF801F00
00000FE001FF801F00
00001FC000FF801F80
00003F80007F800F80
00007F00003F000F80
00007E00003F000F80
0000FE00003F000F80
0001FC00007F000F80
0001F800007E000F80
0001F800007E000F80
0003F800007E000F80
0003F000007E000F80
0003F00000FE000F80
0007F00000FC000F80
0007E00000FC001F00
0007E00000FC001F00
0007E00001FC001F00
0007E00001F8001F00
0007E00001F8003E00
0007E00003F8003E00
0007E00003F8007E00
0007E00007F0007C00
0007E00007F000FC00
0003F0000FF001F800
0003F0001FF003F800
0003F8003FF007F000
0001FC00FFF00FE000
0001FF03FBF87FC000
0000FFFFFBFFFF8000
00007FFFF3FFFF0000
00003FFFC1FFFC0000
00800FFF80FFF00000
00C003FC007F800000
00E000000000000000
ENDCHAR
STARTCHAR 065
ENCODING 65
SWIDTH 5616 0
DWIDTH 78 0
BBX 60 92 9 0
BITMAP
01FFFFFFFFFFF800
03FFFFFFFFFFFC00
07FFFFFFFFFFFE00
07FFFFFFFFFFFE00
13FFFFFFFFFFFC00
39FFFFFFFFFFF8C0
7CFFFFFFFFFFF1E0
FE7FFFFFFFFFE3F0
FF3FFFFFFFFFC7F0
FF80000000000FF0
FF80000000001FF0
FF80000000001FF0
FF80000000001FF0
FF80000000001FF0
FF80000000001FF0
FF80000000001FF0
FF80000000001FF0
FF80000000001FF0
FF80000000001FF0
FF80000000001FF0
FF80000000001FF0
FF80000000001FF0
FF80000000001FF0
FF80000000001FF0
FF80000000001FF0
FF80000000001FF0
FF80000000001FF0
FF80000000001FF0
FF80000000001FF0
FF80000000001FF0
FF80000000001FF0
FF80000000001FF0
FF80000000001FF0
FF80000000001FF0
FF80000000001FF0
FF80000000001FF0
FF80000000001FF0
FF80000000001FF0
FF80000000001FF0
FF80000000001FF0
FF80000000001FF0
FF80000000000FF0
FF000000000007F0
FE000000000003F0
FCFFFFFFFFFFF1F0
F9FFFFFFFFFFF8F0
F3FFFFFFFFFFFC70
07FFFFFFFFFFFE00
07FFFFFFFFFFFE00
F3FFFFFFFFFFFC70
F9FFFFFFFFFFF8F0
FCFFFFFFFFFFF1F0
FE000000000003F0
FF000000000007F0
FF80000000000FF0
FF80000000001FF0
FF80000000001FF0
FF80000000001FF0
FF80000000001FF0
FF80000000001FF0
FF80000000001FF0
FF80000000001FF0
FF80000000001FF0
FF80000000001FF0
FF80000000001FF0
FF80000000001FF0
FF80000000001FF0
FF80000000001FF0
FF80000000001FF0
FF80000000001FF0
FF80000000001FF0
FF80000000001FF0
FF80000000001FF0
FF80000000001FF0
FF80000000001FF0
FF80000000001FF0
FF80000000001FF0
FF80000000001FF0
FF80000000001FF0
FF80000000001FF0
FF80000000001FF0
FF80000000001FF0
FF80000000001FF0
FF80000000001FF0
FF80000000001FF0
FF80000000001FF0
FF80000000000FF0
FF000000000007F0
FE000000000003F0
7C000000000001E0
38000000000000C0
1000000000000000
ENDCHAR
STARTCHAR 066
ENCODING 66
SWIDTH 5616 0
DWIDTH 78 0
BBX 60 92 9 -4
BITMAP
1000000000000000
3800000000000000
7C00000000000000
FE00000000000000
FF00000000000000
FF80000000000000
FF80000000000000
FF80000000000000
FF80000000000000
FF80000000000000
FF80000000000000
FF80000000000000
FF80000000000000
FF80000000000000
FF80000000000000
FF80000000000000
FF80000000000000
FF80000000000000
FF80000000000000
FF80000000000000
FF80000000000000
FF80000000000000
FF80000000000000
FF80000000000000
FF80000000000000
FF80000000000000
FF80000000000000
FF80000000000000
FF80000000000000
FF80000000000000
FF80000000000000
FF80000000000000
FF80000000000000
FF80000000000000
FF80000000000000
FF80000000000000
FF80000000000000
FF80000000000000
FF00000000000000
FE00000000000000
FCFFFFFFFFFFF000
F9FFFFFFFFFFF800
F3FFFFFFFFFFFC00
07FFFFFFFFFFFE00
07FFFFFFFFFFFE00
F3FFFFFFFFFFFC70
F9FFFFFFFFFFF8F0
FCFFFFFFFFFFF1F0
FE000000000003F0
FF000000000007F0
FF80000000000FF0
FF80000000001FF0
FF80000000001FF0
FF80000000001FF0
FF80000000001FF0
FF80000000001FF0
FF80000000001FF0
FF80000000001FF0
FF80000000001FF0
FF80000000001FF0
FF80000000001FF0
FF80000000001FF0
FF80000000001FF0
FF80000000001FF0
FF80000000001FF0
FF80000000001FF0
FF80000000001FF0
FF80000000001FF0
FF80000000001FF0
FF80000000001FF0
FF80000000001FF0
FF80000000001FF0
FF80000000001FF0
FF80000000001FF0
FF80000000001FF0
FF80000000001FF0
FF80000000001FF0
FF80000000001FF0
FF80000000001FF0
FF80000000001FF0
FF80000000001FF0
FF80000000001FF0
FF80000000000FF0
FF3FFFFFFFFFC7F0
FE7FFFFFFFFFE3F0
7CFFFFFFFFFFF1E0
39FFFFFFFFFFF8C0
13FFFFFFFFFFFC00
07FFFFFFFFFFFE00
07FFFFFFFFFFFE00
03FFFFFFFFFFFC00
01FFFFFFFFFFF800
ENDCHAR
STARTCHAR 067
ENCODING 67
SWIDTH 5616 0
DWIDTH 78 0
BBX 55 52 9 -4
BITMAP
00FFFFFFFFFFF0
01FFFFFFFFFFF8
03FFFFFFFFFFFC
07FFFFFFFFFFFE
07FFFFFFFFFFFE
F3FFFFFFFFFFFC
F9FFFFFFFFFFF8
FCFFFFFFFFFFF0
FE000000000000
FF000000000000
FF800000000000
FF800000000000
FF800000000000
FF800000000000
FF800000000000
FF800000000000
FF800000000000
FF800000000000
FF800000000000
FF800000000000
FF800000000000
FF800000000000
FF800000000000
FF800000000000
FF800000000000
FF800000000000
FF800000000000
FF800000000000
FF800000000000
FF800000000000
FF800000000000
FF800000000000
FF800000000000
FF800000000000
FF800000000000
FF800000000000
FF800000000000
FF800000000000
FF800000000000
FF800000000000
FF800000000000
FF800000000000
FF800000000000
FF3FFFFFFFFFC0
FE7FFFFFFFFFE0
7CFFFFFFFFFFF0
39FFFFFFFFFFF8
13FFFFFFFFFFFC
07FFFFFFFFFFFE
07FFFFFFFFFFFE
03FFFFFFFFFFFC
01FFFFFFFFFFF8
ENDCHAR
STARTCHAR 068
ENCODING 68
SWIDTH 5616 0
DWIDTH 78 0
BBX 60 91 9 -4
BITMAP
00000000000000C0
00000000000001E0
00000000000003F0
00000000000007F0
0000000000000FF0
0000000000001FF0
0000000000001FF0
0000000000001FF0
0000000000001FF0
0000000000001FF0
0000000000001FF0
0000000000001FF0
0000000000001FF0
0000000000001FF0
0000000000001FF0
0000000000001FF0
0000000000001FF0
0000000000001FF0
0000000000001FF0
0000000000001FF0
0000000000001FF0
0000000000001FF0
0000000000001FF0
0000000000001FF0
0000000000001FF0
0000000000001FF0
0000000000001FF0
0000000000001FF0
0000000000001FF0
0000000000001FF0
0000000000001FF0
0000000000001FF0
0000000000001FF0
0000000000001FF0
0000000000001FF0
0000000000001FF0
0000000000000FF0
00000000000007F0
00000000000003F0
00FFFFFFFFFFF1F0
01FFFFFFFFFFF8F0
03FFFFFFFFFFFC70
07FFFFFFFFFFFE00
07FFFFFFFFFFFE00
F3FFFFFFFFFFFC70
F9FFFFFFFFFFF8F0
FCFFFFFFFFFFF1F0
FE000000000003F0
FF000000000007F0
FF80000000000FF0
FF80000000001FF0
FF80000000001FF0
FF80000000001FF0
FF80000000001FF0
FF80000000001FF0
FF80000000001FF0
FF80000000001FF0
FF80000000001FF0
FF80000000001FF0
FF80000000001FF0
FF80000000001FF0
FF80000000001FF0
FF80000000001FF0
FF80000000001FF0
FF80000000001FF0
FF80000000001FF0
FF80000000001FF0
FF80000000001FF0
FF80000000001FF0
FF80000000001FF0
FF80000000001FF0
FF80000000001FF0
FF80000000001FF0
FF80000000001FF0
FF80000000001FF0
FF80000000001FF0
FF80000000001FF0
FF80000000001FF0
FF80000000001FF0
FF80000000001FF0
FF80000000001FF0
FF80000000000FF0
FF3FFFFFFFFFC7F0
FE7FFFFFFFFFE3F0
7CFFFFFFFFFFF1E0
39FFFFFFFFFFF8C0
13FFFFFFFFFFFC00
07FFFFFFFFFFFE00
07FFFFFFFFFFFE00
03FFFFFFFFFFFC00
01FFFFFFFFFFF800
ENDCHAR
STARTCHAR 069
ENCODING 69
SWIDTH 5616 0
DWIDTH 78 0
BBX 55 96 9 -4
BITMAP
01FFFFFFFFFFF8
03FFFFFFFFFFFC
07FFFFFFFFFFFE
07FFFFFFFFFFFE
13FFFFFFFFFFFC
39FFFFFFFFFFF8
7CFFFFFFFFFFF0
FE7FFFFFFFFFE0
FF3FFFFFFFFFC0
FF800000000000
FF800000000000
FF800000000000
FF800000000000
FF800000000000
FF800000000000
FF800000000000
FF800000000000
FF800000000000
FF800000000000
FF800000000000
FF800000000000
FF800000000000
FF800000000000
FF800000000000
FF800000000000
FF800000000000
FF800000000000
FF800000000000
FF800000000000
FF800000000000
FF800000000000
FF800000000000
FF800000000000
FF800000000000
FF800000000000
FF800000000000
FF800000000000
FF800000000000
FF800000000000
FF800000000000
FF800000000000
FF800000000000
FF000000000000
FE000000000000
FCFFFFFFFFFFF0
F9FFFFFFFFFFF8
F3FFFFFFFFFFFC
07FFFFFFFFFFFE
07FFFFFFFFFFFE
F3FFFFFFFFFFFC
F9FFFFFFFFFFF8
FCFFFFFFFFFFF0
FE000000000000
FF000000000000
FF800000000000
FF800000000000
FF800000000000
FF800000000000
FF800000000000
FF800000000000
FF800000000000
FF800000000000
FF800000000000
FF800000000000
FF800000000000
FF800000000000
FF800000000000
FF800000000000
FF800000000000
FF800000000000
FF800000000000
FF800000000000
FF800000000000
FF800000000000
FF800000000000
FF800000000000
FF800000000000
FF800000000000
FF800000000000
FF800000000000
FF800000000000
FF800000000000
FF800000000000
FF800000000000
FF800000000000
FF800000000000
FF800000000000
FF3FFFFFFFFFC0
FE7FFFFFFFFFE0
7CFFFFFFFFFFF0
39FFFFFFFFFFF8
13FFFFFFFFFFFC
07FFFFFFFFFFFE
07FFFFFFFFFFFE
03FFFFFFFFFFFC
01FFFFFFFFFFF8
ENDCHAR
STARTCHAR 070
ENCODING 70
SWIDTH 5616 0
DWIDTH 78 0
BBX 55 92 9 0
BITMAP
01FFFFFFFFFFF8
03FFFFFFFFFFFC
07FFFFFFFFFFFE
07FFFFFFFFFFFE
13FFFFFFFFFFFC
39FFFFFFFFFFF8
7CFFFFFFFFFFF0
FE7FFFFFFFFFE0
FF3FFFFFFFFFC0
FF800000000000
FF800000000000
FF800000000000
FF800000000000
FF800000000000
FF800000000000
FF800000000000
FF800000000000
FF800000000000
FF800000000000
FF800000000000
FF800000000000
FF800000000000
FF800000000000
FF800000000000
FF800000000000
FF800000000000
FF800000000000
FF800000000000
FF800000000000
FF800000000000
FF800000000000
FF800000000000
FF800000000000
FF800000000000
FF800000000000
FF800000000000
FF800000000000
FF800000000000
FF800000000000
FF800000000000
FF800000000000
FF800000000000
FF000000000000
FE000000000000
FCFFFFFFFFFFF0
F9FFFFFFFFFFF8
F3FFFFFFFFFFFC
07FFFFFFFFFFFE
07FFFFFFFFFFFE
F3FFFFFFFFFFFC
F9FFFFFFFFFFF8
FCFFFFFFFFFFF0
FE000000000000
FF000000000000
FF800000000000
FF800000000000
FF800000000000
FF800000000000
FF800000000000
FF800000000000
FF800000000000
FF800000000000
FF800000000000
FF800000000000
FF800000000000
FF800000000000
FF800000000000
FF800000000000
FF800000000000
FF800000000000
FF800000000000
FF800000000000
FF800000000000
FF800000000000
FF800000000000
FF800000000000
FF800000000000
FF800000000000
FF800000000000
FF800000000000
FF800000000000
FF800000000000
FF800000000000
FF800000000000
FF800000000000
FF800000000000
FF800000000000
FF000000000000
FE000000000000
7C000000000000
38000000000000
10000000000000
ENDCHAR
STARTCHAR 071
ENCODING 71
SWIDTH 5616 0
DWIDTH 78 0
BBX 60 96 9 -4
BITMAP
01FFFFFFFFFFF800
03FFFFFFFFFFFC00
07FFFFFFFFFFFE00
07FFFFFFFFFFFE00
13FFFFFFFFFFFC00
39FFFFFFFFFFF800
7CFFFFFFFFFFF000
FE7FFFFFFFFFE000
FF3FFFFFFFFFC000
FF80000000000000
FF80000000000000
FF80000000000000
FF80000000000000
FF80000000000000
FF80000000000000
FF80000000000000
FF80000000000000
FF80000000000000
FF80000000000000
FF80000000000000
FF80000000000000
FF80000000000000
FF80000000000000
FF80000000000000
FF80000000000000
FF80000000000000
FF80000000000000
FF80000000000000
FF80000000000000
FF80000000000000
FF80000000000000
FF80000000000000
FF80000000000000
FF80000000000000
FF80000000000000
FF80000000000000
FF80000000000000
FF80000000000000
FF80000000000000
FF80000000000000
FF80000000000000
FF80000000000000
FF00000000000000
FE00000000000000
FC00000000000000
F800000000000000
F000000000000000
0000000000000000
0000000000000000
F000000000000070
F8000000000000F0
FC000000000001F0
FE000000000003F0
FF000000000007F0
FF80000000000FF0
FF80000000001FF0
FF80000000001FF0
FF80000000001FF0
FF80000000001FF0
FF80000000001FF0
FF80000000001FF0
FF80000000001FF0
FF80000000001FF0
FF80000000001FF0
FF80000000001FF0
FF80000000001FF0
FF80000000001FF0
FF80000000001FF0
FF80000000001FF0
FF80000000001FF0
FF80000000001FF0
FF80000000001FF0
FF80000000001FF0
FF80000000001FF0
FF80000000001FF0
FF80000000001FF0
FF80000000001FF0
FF80000000001FF0
FF80000000001FF0
FF80000000001FF0
FF80000000001FF0
FF80000000001FF0
FF80000000001FF0
FF80000000001FF0
FF80000000001FF0
FF80000000001FF0
FF80000000000FF0
FF3FFFFFFFFFC7F0
FE7FFFFFFFFFE3F0
7CFFFFFFFFFFF1E0
39FFFFFFFFFFF8C0
13FFFFFFFFFFFC00
07FFFFFFFFFFFE00
07FFFFFFFFFFFE00
03FFFFFFFFFFFC00
01FFFFFFFFFFF800
ENDCHAR
STARTCHAR 072
ENCODING 72
SWIDTH 5616 0
DWIDTH 78 0
BBX 60 88 9 0
BITMAP
1000000000000000
3800000000000000
7C00000000000000
FE00000000000000
FF00000000000000
FF80000000000000
FF80000000000000
FF80000000000000
FF80000000000000
FF80000000000000
FF80000000000000
FF80000000000000
FF80000000000000
FF80000000000000
FF80000000000000
FF80000000000000
FF80000000000000
FF80000000000000
FF80000000000000
FF80000000000000
FF80000000000000
FF80000000000000
FF80000000000000
FF80000000000000
FF80000000000000
FF80000000000000
FF80000000000000
FF80000000000000
FF80000000000000
FF80000000000000
FF80000000000000
FF80000000000000
FF80000000000000
FF80000000000000
FF80000000000000
FF80000000000000
FF80000000000000
FF80000000000000
FF00000000000000
FE00000000000000
FCFFFFFFFFFFF000
F9FFFFFFFFFFF800
F3FFFFFFFFFFFC00
07FFFFFFFFFFFE00
07FFFFFFFFFFFE00
F3FFFFFFFFFFFC70
F9FFFFFFFFFFF8F0
FCFFFFFFFFFFF1F0
FE000000000003F0
FF000000000007F0
FF80000000000FF0
FF80000000001FF0
FF80000000001FF0
FF80000000001FF0
FF80000000001FF0
FF80000000001FF0
FF80000000001FF0
FF80000000001FF0
FF80000000001FF0
FF80000000001FF0
FF80000000001FF0
FF80000000001FF0
FF80000000001FF0
FF80000000001FF0
FF80000000001FF0
FF80000000001FF0
FF80000000001FF0
FF80000000001FF0
FF80000000001FF0
FF80000000001FF0
FF80000000001FF0
FF80000000001FF0
FF80000000001FF0
FF80000000001FF0
FF80000000001FF0
FF80000000001FF0
FF80000000001FF0
FF80000000001FF0
FF80000000001FF0
FF80000000001FF0
FF80000000001FF0
FF80000000001FF0
FF80000000000FF0
FF000000000007F0
FE000000000003F0
7C000000000001E0
38000000000000C0
1000000000000000
ENDCHAR
STARTCHAR 073
ENCODING 73
SWIDTH 5616 0
DWIDTH 78 0
BBX 9 42 60 1
BITMAP
0380
0780
0F80
1F80
3F80
7F80
FF80
FF80
FF80
FF80
FF80
FF80
FF80
FF80
FF80
FF80
FF80
FF80
FF80
FF80
FF80
FF80
FF80
FF80
FF80
FF80
FF80
FF80
FF80
FF80
FF80
FF80
FF80
FF80
FF80
FF80
FF80
7F80
3F80
1F80
0F00
0600
ENDCHAR
STARTCHAR 074
ENCODING 74
SWIDTH 5616 0
DWIDTH 78 0
BBX 60 91 9 -4
BITMAP
00000000000000C0
00000000000001E0
00000000000003F0
00000000000007F0
0000000000000FF0
0000000000001FF0
0000000000001FF0
0000000000001FF0
0000000000001FF0
0000000000001FF0
0000000000001FF0
0000000000001FF0
0000000000001FF0
0000000000001FF0
0000000000001FF0
0000000000001FF0
0000000000001FF0
0000000000001FF0
0000000000001FF0
0000000000001FF0
0000000000001FF0
0000000000001FF0
0000000000001FF0
0000000000001FF0
0000000000001FF0
0000000000001FF0
0000000000001FF0
0000000000001FF0
0000000000001FF0
0000000000001FF0
0000000000001FF0
0000000000001FF0
0000000000001FF0
0000000000001FF0
0000000000001FF0
0000000000001FF0
0000000000000FF0
00000000000007F0
00000000000003F0
00000000000001F0
00000000000000F0
0000000000000070
0000000000000000
0000000000000000
F000000000000070
F8000000000000F0
FC000000000001F0
FE000000000003F0
FF000000000007F0
FF80000000000FF0
FF80000000001FF0
FF80000000001FF0
FF80000000001FF0
FF80000000001FF0
FF80000000001FF0
FF80000000001FF0
FF80000000001FF0
FF80000000001FF0
FF80000000001FF0
FF80000000001FF0
FF80000000001FF0
FF80000000001FF0
FF80000000001FF0
FF80000000001FF0
FF80000000001FF0
FF80000000001FF0
FF80000000001FF0
FF80000000001FF0
FF80000000001FF0
FF80000000001FF0
FF80000000001FF0
FF80000000001FF0
FF80000000001FF0
FF80000000001FF0
FF80000000001FF0
FF80000000001FF0
FF80000000001FF0
FF80000000001FF0
FF80000000001FF0
FF80000000001FF0
FF80000000001FF0
FF80000000000FF0
FF3FFFFFFFFFC7F0
FE7FFFFFFFFFE3F0
7CFFFFFFFFFFF1E0
39FFFFFFFFFFF8C0
13FFFFFFFFFFFC00
07FFFFFFFFFFFE00
07FFFFFFFFFFFE00
03FFFFFFFFFFFC00
01FFFFFFFFFFF800
ENDCHAR
STARTCHAR 075
ENCODING 75
SWIDTH 5616 0
DWIDTH 78 0
BBX 60 92 9 0
BITMAP
01FFFFFFFFFFF800
03FFFFFFFFFFFC00
07FFFFFFFFFFFE00
07FFFFFFFFFFFE00
13FFFFFFFFFFFC00
39FFFFFFFFFFF800
7CFFFFFFFFFFF000
FE7FFFFFFFFFE000
FF3FFFFFFFFFC000
FF80000000000000
FF80000000000000
FF80000000000000
FF80000000000000
FF80000000000000
FF80000000000000
FF80000000000000
FF80000000000000
FF80000000000000
FF80000000000000
FF80000000000000
FF80000000000000
FF80000000000000
FF80000000000000
FF80000000000000
FF80000000000000
FF80000000000000
FF80000000000000
FF80000000000000
FF80000000000000
FF80000000000000
FF80000000000000
FF80000000000000
FF80000000000000
FF80000000000000
FF80000000000000
FF80000000000000
FF80000000000000
FF80000000000000
FF80000000000000
FF80000000000000
FF80000000000000
FF80000000000000
FF00000000000000
FE00000000000000
FCFFFFFFFFFFF000
F9FFFFFFFFFFF800
F3FFFFFFFFFFFC00
07FFFFFFFFFFFE00
07FFFFFFFFFFFE00
F3FFFFFFFFFFFC70
F9FFFFFFFFFFF8F0
FCFFFFFFFFFFF1F0
FE000000000003F0
FF000000000007F0
FF80000000000FF0
FF80000000001FF0
FF80000000001FF0
FF80000000001FF0
FF80000000001FF0
FF80000000001FF0
FF80000000001FF0
FF80000000001FF0
FF80000000001FF0
FF80000000001FF0
FF80000000001FF0
FF80000000001FF0
FF80000000001FF0
FF80000000001FF0
FF80000000001FF0
FF80000000001FF0
FF80000000001FF0
FF80000000001FF0
FF80000000001FF0
FF80000000001FF0
FF80000000001FF0
FF80000000001FF0
FF80000000001FF0
FF80000000001FF0
FF80000000001FF0
FF80000000001FF0
FF80000000001FF0
FF80000000001FF0
FF80000000001FF0
FF80000000001FF0
FF80000000001FF0
FF80000000001FF0
FF80000000000FF0
FF000000000007F0
FE000000000003F0
7C000000000001E0
38000000000000C0
1000000000000000
ENDCHAR
STARTCHAR 076
ENCODING 76
SWIDTH 5616 0
DWIDTH 78 0
BBX 55 92 9 -4
BITMAP
10000000000000
38000000000000
7C000000000000
FE000000000000
FF000000000000
FF800000000000
FF800000000000
FF800000000000
FF800000000000
FF800000000000
FF800000000000
FF800000000000
FF800000000000
FF800000000000
FF800000000000
FF800000000000
FF800000000000
FF800000000000
FF800000000000
FF800000000000
FF800000000000
FF800000000000
FF800000000000
FF800000000000
FF800000000000
FF800000000000
FF800000000000
FF800000000000
FF800000000000
FF800000000000
FF800000000000
FF800000000000
FF800000000000
FF800000000000
FF800000000000
FF800000000000
FF800000000000
FF800000000000
FF000000000000
FE000000000000
FC000000000000
F8000000000000
F0000000000000
00000000000000
00000000000000
F0000000000000
F8000000000000
FC000000000000
FE000000000000
FF000000000000
FF800000000000
FF800000000000
FF800000000000
FF800000000000
FF800000000000
FF800000000000
FF800000000000
FF800000000000
FF800000000000
FF800000000000
FF800000000000
FF800000000000
FF800000000000
FF800000000000
FF800000000000
FF800000000000
FF800000000000
FF800000000000
FF800000000000
FF800000000000
FF800000000000
FF800000000000
FF800000000000
FF800000000000
FF800000000000
FF800000000000
FF800000000000
FF800000000000
FF800000000000
FF800000000000
FF800000000000
FF800000000000
FF800000000000
FF3FFFFFFFFFC0
FE7FFFFFFFFFE0
7CFFFFFFFFFFF0
39FFFFFFFFFFF8
13FFFFFFFFFFFC
07FFFFFFFFFFFE
07FFFFFFFFFFFE
03FFFFFFFFFFFC
01FFFFFFFFFFF8
ENDCHAR
STARTCHAR 077
ENCODING 77
SWIDTH 5616 0
DWIDTH 78 0
BBX 60 92 9 0
BITMAP
01FFFFFFFFFFF800
03FFFFFFFFFFFC00
07FFFFFFFFFFFE00
07FFFFFFFFFFFE00
13FFFFFFFFFFFC00
39FFFFFFFFFFF8C0
7CFFFFFFFFFFF1E0
FE7FFFFFFFFFE3F0
FF3FFFFFFFFFC7F0
FF80000000000FF0
FF80000000001FF0
FF80000000001FF0
FF80000000001FF0
FF80000000001FF0
FF80000000001FF0
FF80000000001FF0
FF80000000001FF0
FF80000000001FF0
FF80000000001FF0
FF80000000001FF0
FF80000000001FF0
FF80000000001FF0
FF80000000001FF0
FF80000000001FF0
FF80000000001FF0
FF80000000001FF0
FF80000000001FF0
FF80000000001FF0
FF80000000001FF0
FF80000000001FF0
FF80000000001FF0
FF80000000001FF0
FF80000000001FF0
FF80000000001FF0
FF80000000001FF0
FF80000000001FF0
FF80000000001FF0
FF80000000001FF0
FF80000000001FF0
FF80000000001FF0
FF80000000001FF0
FF80000000000FF0
FF000000000007F0
FE000000000003F0
FC000000000001F0
F8000000000000F0
F000000000000070
0000000000000000
0000000000000000
F000000000000070
F8000000000000F0
FC000000000001F0
FE000000000003F0
FF000000000007F0
FF80000000000FF0
FF80000000001FF0
FF80000000001FF0
FF80000000001FF0
FF80000000001FF0
FF80000000001FF0
FF80000000001FF0
FF80000000001FF0
FF80000000001FF0
FF80000000001FF0
FF80000000001FF0
FF80000000001FF0
FF80000000001FF0
FF80000000001FF0
FF80000000001FF0
FF80000000001FF0
FF80000000001FF0
FF80000000001FF0
FF80000000001FF0
FF80000000001FF0
FF80000000001FF0
FF80000000001FF0
FF80000000001FF0
FF80000000001FF0
FF80000000001FF0
FF80000000001FF0
FF80000000001FF0
FF80000000001FF0
FF80000000001FF0
FF80000000001FF0
FF80000000001FF0
FF80000000001FF0
FF80000000000FF0
FF000000000007F0
FE000000000003F0
7C000000000001E0
38000000000000C0
1000000000000000
ENDCHAR
STARTCHAR 078
ENCODING 78
SWIDTH 5616 0
DWIDTH 78 0
BBX 60 48 9 0
BITMAP
00FFFFFFFFFFF000
01FFFFFFFFFFF800
03FFFFFFFFFFFC00
07FFFFFFFFFFFE00
07FFFFFFFFFFFE00
F3FFFFFFFFFFFC70
F9FFFFFFFFFFF8F0
FCFFFFFFFFFFF1F0
FE000000000003F0
FF000000000007F0
FF80000000000FF0
FF80000000001FF0
FF80000000001FF0
FF80000000001FF0
FF80000000001FF0
FF80000000001FF0
FF80000000001FF0
FF80000000001FF0
FF80000000001FF0
FF80000000001FF0
FF80000000001FF0
FF80000000001FF0
FF80000000001FF0
FF80000000001FF0
FF80000000001FF0
FF80000000001FF0
FF80000000001FF0
FF80000000001FF0
FF80000000001FF0
FF80000000001FF0
FF80000000001FF0
FF80000000001FF0
FF80000000001FF0
FF80000000001FF0
FF80000000001FF0
FF80000000001FF0
FF80000000001FF0
FF80000000001FF0
FF80000000001FF0
FF80000000001FF0
FF80000000001FF0
FF80000000001FF0
FF80000000000FF0
FF000000000007F0
FE000000000003F0
7C000000000001E0
38000000000000C0
1000000000000000
ENDCHAR
STARTCHAR 079
ENCODING 79
SWIDTH 5616 0
DWIDTH 78 0
BBX 60 52 9 -4
BITMAP
00FFFFFFFFFFF000
01FFFFFFFFFFF800
03FFFFFFFFFFFC00
07FFFFFFFFFFFE00
07FFFFFFFFFFFE00
F3FFFFFFFFFFFC70
F9FFFFFFFFFFF8F0
FCFFFFFFFFFFF1F0
FE000000000003F0
FF000000000007F0
FF80000000000FF0
FF80000000001FF0
FF80000000001FF0
FF80000000001FF0
FF80000000001FF0
FF80000000001FF0
FF80000000001FF0
FF80000000001FF0
FF80000000001FF0
FF80000000001FF0
FF80000000001FF0
FF80000000001FF0
FF80000000001FF0
FF80000000001FF0
FF80000000001FF0
FF80000000001FF0
FF80000000001FF0
FF80000000001FF0
FF80000000001FF0
FF80000000001FF0
FF80000000001FF0
FF80000000001FF0
FF80000000001FF0
FF80000000001FF0
FF80000000001FF0
FF80000000001FF0
FF80000000001FF0
FF80000000001FF0
FF80000000001FF0
FF80000000001FF0
FF80000000001FF0
FF80000000001FF0
FF80000000000FF0
FF3FFFFFFFFFC7F0
FE7FFFFFFFFFE3F0
7CFFFFFFFFFFF1E0
39FFFFFFFFFFF8C0
13FFFFFFFFFFFC00
07FFFFFFFFFFFE00
07FFFFFFFFFFFE00
03FFFFFFFFFFFC00
01FFFFFFFFFFF800
ENDCHAR
STARTCHAR 080
ENCODING 80
SWIDTH 5616 0
DWIDTH 78 0
BBX 60 92 9 0
BITMAP
01FFFFFFFFFFF800
03FFFFFFFFFFFC00
07FFFFFFFFFFFE00
07FFFFFFFFFFFE00
13FFFFFFFFFFFC00
39FFFFFFFFFFF8C0
7CFFFFFFFFFFF1E0
FE7FFFFFFFFFE3F0
FF3FFFFFFFFFC7F0
FF80000000000FF0
FF80000000001FF0
FF80000000001FF0
FF80000000001FF0
FF80000000001FF0
FF80000000001FF0
FF80000000001FF0
FF80000000001FF0
FF80000000001FF0
FF80000000001FF0
FF80000000001FF0
FF80000000001FF0
FF80000000001FF0
FF80000000001FF0
FF80000000001FF0
FF80000000001FF0
FF80000000001FF0
FF80000000001FF0
FF80000000001FF0
FF80000000001FF0
FF80000000001FF0
FF80000000001FF0
FF80000000001FF0
FF80000000001FF0
FF80000000001FF0
FF80000000001FF0
FF80000000001FF0
FF80000000001FF0
FF80000000001FF0
FF80000000001FF0
FF80000000001FF0
FF80000000001FF0
FF80000000000FF0
FF000000000007F0
FE000000000003F0
FCFFFFFFFFFFF1F0
F9FFFFFFFFFFF8F0
F3FFFFFFFFFFFC70
07FFFFFFFFFFFE00
07FFFFFFFFFFFE00
F3FFFFFFFFFFFC00
F9FFFFFFFFFFF800
FCFFFFFFFFFFF000
FE00000000000000
FF00000000000000
FF80000000000000
FF80000000000000
FF80000000000000
FF80000000000000
FF80000000000000
FF80000000000000
FF80000000000000
FF80000000000000
FF80000000000000
FF80000000000000
FF80000000000000
FF80000000000000
FF80000000000000
FF80000000000000
FF80000000000000
FF80000000000000
FF80000000000000
FF80000000000000
FF80000000000000
FF80000000000000
FF80000000000000
FF80000000000000
FF80000000000000
FF80000000000000
FF80000000000000
FF80000000000000
FF80000000000000
FF80000000000000
FF80000000000000
FF80000000000000
FF80000000000000
FF80000000000000
FF80000000000000
FF00000000000000
FE00000000000000
7C00000000000000
3800000000000000
1000000000000000
ENDCHAR
STARTCHAR 081
ENCODING 81
SWIDTH 5616 0
DWIDTH 78 0
BBX 60 91 9 1
BITMAP
01FFFFFFFFFFF800
03FFFFFFFFFFFC00
07FFFFFFFFFFFE00
07FFFFFFFFFFFE00
13FFFFFFFFFFFC00
39FFFFFFFFFFF8C0
7CFFFFFFFFFFF1E0
FE7FFFFFFFFFE3F0
FF3FFFFFFFFFC7F0
FF80000000000FF0
FF80000000001FF0
FF80000000001FF0
FF80000000001FF0
FF80000000001FF0
FF80000000001FF0
FF80000000001FF0
FF80000000001FF0
FF80000000001FF0
FF80000000001FF0
FF80000000001FF0
FF80000000001FF0
FF80000000001FF0
FF80000000001FF0
FF80000000001FF0
FF80000000001FF0
FF80000000001FF0
FF80000000001FF0
FF80000000001FF0
FF80000000001FF0
FF80000000001FF0
FF80000000001FF0
FF80000000001FF0
FF80000000001FF0
FF80000000001FF0
FF80000000001FF0
FF80000000001FF0
FF80000000001FF0
FF80000000001FF0
FF80000000001FF0
FF80000000001FF0
FF80000000001FF0
FF80000000000FF0
FF000000000007F0
FE000000000003F0
FCFFFFFFFFFFF1F0
F9FFFFFFFFFFF8F0
F3FFFFFFFFFFFC70
07FFFFFFFFFFFE00
07FFFFFFFFFFFE00
03FFFFFFFFFFFC70
01FFFFFFFFFFF8F0
00FFFFFFFFFFF1F0
00000000000003F0
00000000000007F0
0000000000000FF0
0000000000001FF0
0000000000001FF0
0000000000001FF0
0000000000001FF0
0000000000001FF0
0000000000001FF0
0000000000001FF0
0000000000001FF0
0000000000001FF0
0000000000001FF0
0000000000001FF0
0000000000001FF0
0000000000001FF0
0000000000001FF0
0000000000001FF0
0000000000001FF0
0000000000001FF0
0000000000001FF0
0000000000001FF0
0000000000001FF0
0000000000001FF0
0000000000001FF0
0000000000001FF0
0000000000001FF0
0000000000001FF0
0000000000001FF0
0000000000001FF0
0000000000001FF0
0000000000001FF0
0000000000001FF0
0000000000001FF0
0000000000000FF0
00000000000007F0
00000000000003F0
00000000000001E0
00000000000000C0
ENDCHAR
STARTCHAR 082
ENCODING 82
SWIDTH 5616 0
DWIDTH 78 0
BBX 55 48 9 0
BITMAP
00FFFFFFFFFFF0
01FFFFFFFFFFF8
03FFFFFFFFFFFC
07FFFFFFFFFFFE
07FFFFFFFFFFFE
F3FFFFFFFFFFFC
F9FFFFFFFFFFF8
FCFFFFFFFFFFF0
FE000000000000
FF000000000000
FF800000000000
FF800000000000
FF800000000000
FF800000000000
FF800000000000
FF800000000000
FF800000000000
FF800000000000
FF800000000000
FF800000000000
FF800000000000
FF800000000000
FF800000000000
FF800000000000
FF800000000000
FF800000000000
FF800000000000
FF800000000000
FF800000000000
FF800000000000
FF800000000000
FF800000000000
FF800000000000
FF800000000000
FF800000000000
FF800000000000
FF800000000000
FF800000000000
FF800000000000
FF800000000000
FF800000000000
FF800000000000
FF800000000000
FF000000000000
FE000000000000
7C000000000000
38000000000000
10000000000000
ENDCHAR
STARTCHAR 083
ENCODING 83
SWIDTH 5616 0
DWIDTH 78 0
BBX 60 92 9 -4
BITMAP
1000000000000000
3800000000000000
7C00000000000000
FE00000000000000
FF00000000000000
FF80000000000000
FF80000000000000
FF80000000000000
FF80000000000000
FF80000000000000
FF80000000000000
FF80000000000000
FF80000000000000
FF80000000000000
FF80000000000000
FF80000000000000
FF80000000000000
FF80000000000000
FF80000000000000
FF80000000000000
FF80000000000000
FF80000000000000
FF80000000000000
FF80000000000000
FF80000000000000
FF80000000000000
FF80000000000000
FF80000000000000
FF80000000000000
FF80000000000000
FF80000000000000
FF80000000000000
FF80000000000000
FF80000000000000
FF80000000000000
FF80000000000000
FF80000000000000
FF80000000000000
FF00000000000000
FE00000000000000
FCFFFFFFFFFFF000
F9FFFFFFFFFFF800
F3FFFFFFFFFFFC00
07FFFFFFFFFFFE00
07FFFFFFFFFFFE00
03FFFFFFFFFFFC70
01FFFFFFFFFFF8F0
00FFFFFFFFFFF1F0
00000000000003F0
00000000000007F0
0000000000000FF0
0000000000001FF0
0000000000001FF0
0000000000001FF0
0000000000001FF0
0000000000001FF0
0000000000001FF0
0000000000001FF0
0000000000001FF0
0000000000001FF0
0000000000001FF0
0000000000001FF0
0000000000001FF0
0000000000001FF0
0000000000001FF0
0000000000001FF0
0000000000001FF0
0000000000001FF0
0000000000001FF0
0000000000001FF0
0000000000001FF0
0000000000001FF0
0000000000001FF0
0000000000001FF0
0000000000001FF0
0000000000001FF0
0000000000001FF0
0000000000001FF0
0000000000001FF0
0000000000001FF0
0000000000001FF0
0000000000001FF0
0000000000000FF0
003FFFFFFFFFC7F0
007FFFFFFFFFE3F0
00FFFFFFFFFFF1E0
01FFFFFFFFFFF8C0
03FFFFFFFFFFFC00
07FFFFFFFFFFFE00
07FFFFFFFFFFFE00
03FFFFFFFFFFFC00
01FFFFFFFFFFF800
ENDCHAR
STARTCHAR 084
ENCODING 84
SWIDTH 5616 0
DWIDTH 78 0
BBX 55 92 9 -4
BITMAP
10000000000000
38000000000000
7C000000000000
FE000000000000
FF000000000000
FF800000000000
FF800000000000
FF800000000000
FF800000000000
FF800000000000
FF800000000000
FF800000000000
FF800000000000
FF800000000000
FF800000000000
FF800000000000
FF800000000000
FF800000000000
FF800000000000
FF800000000000
FF800000000000
FF800000000000
FF800000000000
FF800000000000
FF800000000000
FF800000000000
FF800000000000
FF800000000000
FF800000000000
FF800000000000
FF800000000000
FF800000000000
FF800000000000
FF800000000000
FF800000000000
FF800000000000
FF800000000000
FF800000000000
FF000000000000
FE000000000000
FCFFFFFFFFFFF0
F9FFFFFFFFFFF8
F3FFFFFFFFFFFC
07FFFFFFFFFFFE
07FFFFFFFFFFFE
F3FFFFFFFFFFFC
F9FFFFFFFFFFF8
FCFFFFFFFFFFF0
FE000000000000
FF000000000000
FF800000000000
FF800000000000
FF800000000000
FF800000000000
FF800000000000
FF800000000000
FF800000000000
FF800000000000
FF800000000000
FF800000000000
FF800000000000
FF800000000000
FF800000000000
FF800000000000
FF800000000000
FF800000000000
FF800000000000
FF800000000000
FF800000000000
FF800000000000
FF800000000000
FF800000000000
FF800000000000
FF800000000000
FF800000000000
FF800000000000
FF800000000000
FF800000000000
FF800000000000
FF800000000000
FF800000000000
FF800000000000
FF800000000000
FF3FFFFFFFFFC0
FE7FFFFFFFFFE0
7CFFFFFFFFFFF0
39FFFFFFFFFFF8
13FFFFFFFFFFFC
07FFFFFFFFFFFE
07FFFFFFFFFFFE
03FFFFFFFFFFFC
01FFFFFFFFFFF8
ENDCHAR
STARTCHAR 085
ENCODING 85
SWIDTH 5616 0
DWIDTH 78 0
BBX 60 47 9 -4
BITMAP
F000000000000070
F8000000000000F0
FC000000000001F0
FE000000000003F0
FF000000000007F0
FF80000000000FF0
FF80000000001FF0
FF80000000001FF0
FF80000000001FF0
FF80000000001FF0
FF80000000001FF0
FF80000000001FF0
FF80000000001FF0
FF80000000001FF0
FF80000000001FF0
FF80000000001FF0
FF80000000001FF0
FF80000000001FF0
FF80000000001FF0
FF80000000001FF0
FF80000000001FF0
FF80000000001FF0
FF80000000001FF0
FF80000000001FF0
FF80000000001FF0
FF80000000001FF0
FF80000000001FF0
FF80000000001FF0
FF80000000001FF0
FF80000000001FF0
FF80000000001FF0
FF80000000001FF0
FF80000000001FF0
FF80000000001FF0
FF80000000001FF0
FF80000000001FF0
FF80000000001FF0
FF80000000000FF0
FF3FFFFFFFFFC7F0
FE7FFFFFFFFFE3F0
7CFFFFFFFFFFF1E0
39FFFFFFFFFFF8C0
13FFFFFFFFFFFC00
07FFFFFFFFFFFE00
07FFFFFFFFFFFE00
03FFFFFFFFFFFC00
01FFFFFFFFFFF800
ENDCHAR
STARTCHAR 086
ENCODING 86
SWIDTH 5616 0
DWIDTH 78 0
BBX 60 92 9 -4
BITMAP
1000000000000000
38000000000000C0
7C000000000001E0
FE000000000003F0
FF000000000007F0
FF80000000000FF0
FF80000000001FF0
FF80000000001FF0
FF80000000001FF0
FF80000000001FF0
FF80000000001FF0
FF80000000001FF0
FF80000000001FF0
FF80000000001FF0
FF80000000001FF0
FF80000000001FF0
FF80000000001FF0
FF80000000001FF0
FF80000000001FF0
FF80000000001FF0
FF80000000001FF0
FF80000000001FF0
FF80000000001FF0
FF80000000001FF0
FF80000000001FF0
FF80000000001FF0
FF80000000001FF0
FF80000000001FF0
FF80000000001FF0
FF80000000001FF0
FF80000000001FF0
FF80000000001FF0
FF80000000001FF0
FF80000000001FF0
FF80000000001FF0
FF80000000001FF0
FF80000000001FF0
FF80000000000FF0
FF000000000007F0
FE000000000003F0
FC000000000001F0
F8000000000000F0
F000000000000070
0000000000000000
0000000000000000
F000000000000070
F8000000000000F0
FC000000000001F0
FE000000000003F0
FF000000000007F0
FF80000000000FF0
FF80000000001FF0
FF80000000001FF0
FF80000000001FF0
FF80000000001FF0
FF80000000001FF0
FF80000000001FF0
FF80000000001FF0
FF80000000001FF0
FF80000000001FF0
FF80000000001FF0
FF80000000001FF0
FF80000000001FF0
FF80000000001FF0
FF80000000001FF0
FF80000000001FF0
FF80000000001FF0
FF80000000001FF0
FF80000000001FF0
FF80000000001FF0
FF80000000001FF0
FF80000000001FF0
FF80000000001FF0
FF80000000001FF0
FF80000000001FF0
FF80000000001FF0
FF80000000001FF0
FF80000000001FF0
FF80000000001FF0
FF80000000001FF0
FF80000000001FF0
FF80000000001FF0
FF80000000000FF0
FF3FFFFFFFFFC7F0
FE7FFFFFFFFFE3F0
7CFFFFFFFFFFF1E0
39FFFFFFFFFFF8C0
13FFFFFFFFFFFC00
07FFFFFFFFFFFE00
07FFFFFFFFFFFE00
03FFFFFFFFFFFC00
01FFFFFFFFFFF800
ENDCHAR
STARTCHAR 087
ENCODING 87
SWIDTH 5616 0
DWIDTH 78 0
BBX 60 92 9 -4
BITMAP
1000000000000000
38000000000000C0
7C000000000001E0
FE000000000003F0
FF000000000007F0
FF80000000000FF0
FF80000000001FF0
FF80000000001FF0
FF80000000001FF0
FF80000000001FF0
FF80000000001FF0
FF80000000001FF0
FF80000000001FF0
FF80000000001FF0
FF80000000001FF0
FF80000000001FF0
FF80000000001FF0
FF80000000001FF0
FF80000000001FF0
FF80000000001FF0
FF80000000001FF0
FF80000000001FF0
FF80000000001FF0
FF80000000001FF0
FF80000000001FF0
FF80000000001FF0
FF80000000001FF0
FF80000000001FF0
FF80000000001FF0
FF80000000001FF0
FF80000000001FF0
FF80000000001FF0
FF80000000001FF0
FF80000000001FF0
FF80000000001FF0
FF80000000001FF0
FF80000000001FF0
FF80000000000FF0
FF000000000007F0
FE000000000003F0
FCFFFFFFFFFFF1F0
F9FFFFFFFFFFF8F0
F3FFFFFFFFFFFC70
07FFFFFFFFFFFE00
07FFFFFFFFFFFE00
F3FFFFFFFFFFFC70
F9FFFFFFFFFFF8F0
FCFFFFFFFFFFF1F0
FE000000000003F0
FF000000000007F0
FF80000000000FF0
FF80000000001FF0
FF80000000001FF0
FF80000000001FF0
FF80000000001FF0
FF80000000001FF0
FF80000000001FF0
FF80000000001FF0
FF80000000001FF0
FF80000000001FF0
FF80000000001FF0
FF80000000001FF0
FF80000000001FF0
FF80000000001FF0
FF80000000001FF0
FF80000000001FF0
FF80000000001FF0
FF80000000001FF0
FF80000000001FF0
FF80000000001FF0
FF80000000001FF0
FF80000000001FF0
FF80000000001FF0
FF80000000001FF0
FF80000000001FF0
FF80000000001FF0
FF80000000001FF0
FF80000000001FF0
FF80000000001FF0
FF80000000001FF0
FF80000000001FF0
FF80000000001FF0
FF80000000000FF0
FF3FFFFFFFFFC7F0
FE7FFFFFFFFFE3F0
7CFFFFFFFFFFF1E0
39FFFFFFFFFFF8C0
13FFFFFFFFFFFC00
07FFFFFFFFFFFE00
07FFFFFFFFFFFE00
03FFFFFFFFFFFC00
01FFFFFFFFFFF800
ENDCHAR
STARTCHAR 088
ENCODING 88
SWIDTH 5616 0
DWIDTH 78 0
BBX 60 88 9 0
BITMAP
1000000000000000
38000000000000C0
7C000000000001E0
FE000000000003F0
FF000000000007F0
FF80000000000FF0
FF80000000001FF0
FF80000000001FF0
FF80000000001FF0
FF80000000001FF0
FF80000000001FF0
FF80000000001FF0
FF80000000001FF0
FF80000000001FF0
FF80000000001FF0
FF80000000001FF0
FF80000000001FF0
FF80000000001FF0
FF80000000001FF0
FF80000000001FF0
FF80000000001FF0
FF80000000001FF0
FF80000000001FF0
FF80000000001FF0
FF80000000001FF0
FF80000000001FF0
FF80000000001FF0
FF80000000001FF0
FF80000000001FF0
FF80000000001FF0
FF80000000001FF0
FF80000000001FF0
FF80000000001FF0
FF80000000001FF0
FF80000000001FF0
FF80000000001FF0
FF80000000001FF0
FF80000000000FF0
FF000000000007F0
FE000000000003F0
FCFFFFFFFFFFF1F0
F9FFFFFFFFFFF8F0
F3FFFFFFFFFFFC70
07FFFFFFFFFFFE00
07FFFFFFFFFFFE00
F3FFFFFFFFFFFC70
F9FFFFFFFFFFF8F0
FCFFFFFFFFFFF1F0
FE000000000003F0
FF000000000007F0
FF80000000000FF0
FF80000000001FF0
FF80000000001FF0
FF80000000001FF0
FF80000000001FF0
FF80000000001FF0
FF80000000001FF0
FF80000000001FF0
FF80000000001FF0
FF80000000001FF0
FF80000000001FF0
FF80000000001FF0
FF80000000001FF0
FF80000000001FF0
FF80000000001FF0
FF80000000001FF0
FF80000000001FF0
FF80000000001FF0
FF80000000001FF0
FF80000000001FF0
FF80000000001FF0
FF80000000001FF0
FF80000000001FF0
FF80000000001FF0
FF80000000001FF0
FF80000000001FF0
FF80000000001FF0
FF80000000001FF0
FF80000000001FF0
FF80000000001FF0
FF80000000001FF0
FF80000000001FF0
FF80000000000FF0
FF000000000007F0
FE000000000003F0
7C000000000001E0
38000000000000C0
1000000000000000
ENDCHAR
STARTCHAR 089
ENCODING 89
SWIDTH 5616 0
DWIDTH 78 0
BBX 60 92 9 -4
BITMAP
1000000000000000
38000000000000C0
7C000000000001E0
FE000000000003F0
FF000000000007F0
FF80000000000FF0
FF80000000001FF0
FF80000000001FF0
FF80000000001FF0
FF80000000001FF0
FF80000000001FF0
FF80000000001FF0
FF80000000001FF0
FF80000000001FF0
FF80000000001FF0
FF80000000001FF0
FF80000000001FF0
FF80000000001FF0
FF80000000001FF0
FF80000000001FF0
FF80000000001FF0
FF80000000001FF0
FF80000000001FF0
FF80000000001FF0
FF80000000001FF0
FF80000000001FF0
FF80000000001FF0
FF80000000001FF0
FF80000000001FF0
FF80000000001FF0
FF80000000001FF0
FF80000000001FF0
FF80000000001FF0
FF80000000001FF0
FF80000000001FF0
FF80000000001FF0
FF80000000001FF0
FF80000000000FF0
FF000000000007F0
FE000000000003F0
FCFFFFFFFFFFF1F0
F9FFFFFFFFFFF8F0
F3FFFFFFFFFFFC70
07FFFFFFFFFFFE00
07FFFFFFFFFFFE00
03FFFFFFFFFFFC70
01FFFFFFFFFFF8F0
00FFFFFFFFFFF1F0
00000000000003F0
00000000000007F0
0000000000000FF0
0000000000001FF0
0000000000001FF0
0000000000001FF0
0000000000001FF0
0000000000001FF0
0000000000001FF0
0000000000001FF0
0000000000001FF0
0000000000001FF0
0000000000001FF0
0000000000001FF0
0000000000001FF0
0000000000001FF0
0000000000001FF0
0000000000001FF0
0000000000001FF0
0000000000001FF0
0000000000001FF0
0000000000001FF0
0000000000001FF0
0000000000001FF0
0000000000001FF0
0000000000001FF0
0000000000001FF0
0000000000001FF0
0000000000001FF0
0000000000001FF0
0000000000001FF0
0000000000001FF0
0000000000001FF0
0000000000001FF0
0000000000000FF0
003FFFFFFFFFC7F0
007FFFFFFFFFE3F0
00FFFFFFFFFFF1E0
01FFFFFFFFFFF8C0
03FFFFFFFFFFFC00
07FFFFFFFFFFFE00
07FFFFFFFFFFFE00
03FFFFFFFFFFFC00
01FFFFFFFFFFF800
ENDCHAR
STARTCHAR 090
ENCODING 90
SWIDTH 5616 0
DWIDTH 78 0
BBX 60 96 9 -4
BITMAP
01FFFFFFFFFFF800
03FFFFFFFFFFFC00
07FFFFFFFFFFFE00
07FFFFFFFFFFFE00
03FFFFFFFFFFFC00
01FFFFFFFFFFF8C0
00FFFFFFFFFFF1E0
007FFFFFFFFFE3F0
003FFFFFFFFFC7F0
0000000000000FF0
0000000000001FF0
0000000000001FF0
0000000000001FF0
0000000000001FF0
0000000000001FF0
0000000000001FF0
0000000000001FF0
0000000000001FF0
0000000000001FF0
0000000000001FF0
0000000000001FF0
0000000000001FF0
0000000000001FF0
0000000000001FF0
0000000000001FF0
0000000000001FF0
0000000000001FF0
0000000000001FF0
0000000000001FF0
0000000000001FF0
0000000000001FF0
0000000000001FF0
0000000000001FF0
0000000000001FF0
0000000000001FF0
0000000000001FF0
0000000000001FF0
0000000000001FF0
0000000000001FF0
0000000000001FF0
0000000000001FF0
0000000000000FF0
00000000000007F0
00000000000003F0
00000000000001F0
00000000000000F0
0000000000000070
0000000000000000
0000000000000000
F000000000000000
F800000000000000
FC00000000000000
FE00000000000000
FF00000000000000
FF80000000000000
FF80000000000000
FF80000000000000
FF80000000000000
FF80000000000000
FF80000000000000
FF80000000000000
FF80000000000000
FF80000000000000
FF80000000000000
FF80000000000000
FF80000000000000
FF80000000000000
FF80000000000000
FF80000000000000
FF80000000000000
FF80000000000000
FF80000000000000
FF80000000000000
FF80000000000000
FF80000000000000
FF80000000000000
FF80000000000000
FF80000000000000
FF80000000000000
FF80000000000000
FF80000000000000
FF80000000000000
FF80000000000000
FF80000000000000
FF80000000000000
FF80000000000000
FF80000000000000
FF3FFFFFFFFFC000
FE7FFFFFFFFFE000
7CFFFFFFFFFFF000
39FFFFFFFFFFF800
13FFFFFFFFFFFC00
07FFFFFFFFFFFE00
07FFFFFFFFFFFE00
03FFFFFFFFFFFC00
01FFFFFFFFFFF800
ENDCHAR
STARTCHAR 091
ENCODING 91
SWIDTH 1440 0
DWIDTH 20 0
BBX 14 53 5 -4
BITMAP
FFFC
FFFC
FFFC
FFFC
FFFC
FE00
FE00
FE00
FE00
FE00
FE00
FE00
FE00
FE00
FE00
FE00
FE00
FE00
FE00
FE00
FE00
FE00
FE00
FE00
FE00
FE00
FE00
FE00
FE00
FE00
FE00
FE00
FE00
FE00
FE00
FE00
FE00
FE00
FE00
FE00
FE00
FE00
FE00
FE00
FE00
FE00
FE00
FE00
FE00
FE00
FE00
FE00
FE00
ENDCHAR
STARTCHAR 092
ENCODING 92
SWIDTH 1440 0
DWIDTH 20 0
BBX 20 52 0 -3
BITMAP
F80000
FC0000
7C0000
7C0000
7C0000
3E0000
3E0000
3E0000
3F0000
1F0000
1F0000
1F0000
0F8000
0F8000
0F8000
0FC000
07C000
07C000
07C000
03E000
03E000
03E000
03F000
01F000
01F000
01F000
00F800
00F800
00F800
00FC00
007C00
007C00
007C00
003E00
003E00
003E00
003F00
001F00
001F00
001F00
000F80
000F80
000F80
000FC0
0007C0
0007C0
0007C0
0003E0
0003E0
0003E0
0003F0
0001F0
ENDCHAR
STARTCHAR 093
ENCODING 93
SWIDTH 1440 0
DWIDTH 20 0
BBX 14 53 1 -4
BITMAP
FFFC
FFFC
FFFC
FFFC
FFFC
01FC
01FC
01FC
01FC
01FC
01FC
01FC
01FC
01FC
01FC
01FC
01FC
01FC
01FC
01FC
01FC
01FC
01FC
01FC
01FC
01FC
01FC
01FC
01FC
01FC
01FC
01FC
01FC
01FC
01FC
01FC
01FC
01FC
01FC
01FC
01FC
01FC
01FC
01FC
01FC
01FC
01FC
01FC
01FC
01FC
01FC
01FC
01FC
ENDCHAR
STARTCHAR 094
ENCODING 94
SWIDTH 2448 0
DWIDTH 34 0
BBX 28 22 3 27
BITMAP
001F8000
001F8000
003FC000
003FC000
007FE000
007FE000
00FFF000
00FFF000
01FFF800
01F9F800
03F9FC00
03F0FC00
07F0FE00
0FE07F00
0FE07F00
1FC03F80
1FC03F80
3F801FC0
3F000FC0
7F000FE0
7E0007E0
FE0007F0
ENDCHAR
STARTCHAR 095
ENCODING 95
SWIDTH 5616 0
DWIDTH 78 0
BBX 50 9 14 -4
BITMAP
07FFFFFFFFF800
0FFFFFFFFFFC00
1FFFFFFFFFFE00
3FFFFFFFFFFF00
7FFFFFFFFFFF80
FFFFFFFFFFFFC0
FFFFFFFFFFFFC0
7FFFFFFFFFFF80
3FFFFFFFFFFF00
ENDCHAR
STARTCHAR 096
ENCODING 96
SWIDTH 1728 0
DWIDTH 24 0
BBX 13 10 3 40
BITMAP
FF80
7F80
3F80
1FC0
0FC0
0FE0
07E0
03F0
01F0
01F8
ENDCHAR
STARTCHAR 097
ENCODING 97
SWIDTH 5616 0
DWIDTH 78 0
BBX 60 92 9 0
BITMAP
01FFFFFFFFFFF800
03FFFFFFFFFFFC00
07FFFFFFFFFFFE00
07FFFFFFFFFFFE00
13FFFFFFFFFFFC00
39FFFFFFFFFFF8C0
7CFFFFFFFFFFF1E0
FE7FFFFFFFFFE3F0
FF3FFFFFFFFFC7F0
FF80000000000FF0
FF80000000001FF0
FF80000000001FF0
FF80000000001FF0
FF80000000001FF0
FF80000000001FF0
FF80000000001FF0
FF80000000001FF0
FF80000000001FF0
FF80000000001FF0
FF80000000001FF0
FF80000000001FF0
FF80000000001FF0
FF80000000001FF0
FF80000000001FF0
FF80000000001FF0
FF80000000001FF0
FF80000000001FF0
FF80000000001FF0
FF80000000001FF0
FF80000000001FF0
FF80000000001FF0
FF80000000001FF0
FF80000000001FF0
FF80000000001FF0
FF80000000001FF0
FF80000000001FF0
FF80000000001FF0
FF80000000001FF0
FF80000000001FF0
FF80000000001FF0
FF80000000001FF0
FF80000000000FF0
FF000000000007F0
FE000000000003F0
FCFFFFFFFFFFF1F0
F9FFFFFFFFFFF8F0
F3FFFFFFFFFFFC70
07FFFFFFFFFFFE00
07FFFFFFFFFFFE00
F3FFFFFFFFFFFC70
F9FFFFFFFFFFF8F0
FCFFFFFFFFFFF1F0
FE000000000003F0
FF000000000007F0
FF80000000000FF0
FF80000000001FF0
FF80000000001FF0
FF80000000001FF0
FF80000000001FF0
FF80000000001FF0
FF80000000001FF0
FF80000000001FF0
FF80000000001FF0
FF80000000001FF0
FF80000000001FF0
FF80000000001FF0
FF80000000001FF0
FF80000000001FF0
FF80000000001FF0
FF80000000001FF0
FF80000000001FF0
FF80000000001FF0
FF80000000001FF0
FF80000000001FF0
FF80000000001FF0
FF80000000001FF0
FF80000000001FF0
FF80000000001FF0
FF80000000001FF0
FF80000000001FF0
FF80000000001FF0
FF80000000001FF0
FF80000000001FF0
FF80000000001FF0
FF80000000001FF0
FF80000000001FF0
FF80000000000FF0
FF000000000007F0
FE000000000003F0
7C000000000001E0
38000000000000C0
1000000000000000
ENDCHAR
STARTCHAR 098
ENCODING 98
SWIDTH 5616 0
DWIDTH 78 0
BBX 60 92 9 -4
BITMAP
1000000000000000
3800000000000000
7C00000000000000
FE00000000000000
FF00000000000000
FF80000000000000
FF80000000000000
FF80000000000000
FF80000000000000
FF80000000000000
FF80000000000000
FF80000000000000
FF80000000000000
FF80000000000000
FF80000000000000
FF80000000000000
FF80000000000000
FF80000000000000
FF80000000000000
FF80000000000000
FF80000000000000
FF80000000000000
FF80000000000000
FF80000000000000
FF80000000000000
FF80000000000000
FF80000000000000
FF80000000000000
FF80000000000000
FF80000000000000
FF80000000000000
FF80000000000000
FF80000000000000
FF80000000000000
FF80000000000000
FF80000000000000
FF80000000000000
FF80000000000000
FF00000000000000
FE00000000000000
FCFFFFFFFFFFF000
F9FFFFFFFFFFF800
F3FFFFFFFFFFFC00
07FFFFFFFFFFFE00
07FFFFFFFFFFFE00
F3FFFFFFFFFFFC70
F9FFFFFFFFFFF8F0
FCFFFFFFFFFFF1F0
FE000000000003F0
FF000000000007F0
FF80000000000FF0
FF80000000001FF0
FF80000000001FF0
FF80000000001FF0
FF80000000001FF0
FF80000000001FF0
FF80000000001FF0
FF80000000001FF0
FF80000000001FF0
FF80000000001FF0
FF80000000001FF0
FF80000000001FF0
FF80000000001FF0
FF80000000001FF0
FF80000000001FF0
FF80000000001FF0
FF80000000001FF0
FF80000000001FF0
FF80000000001FF0
FF80000000001FF0
FF80000000001FF0
FF80000000001FF0
FF80000000001FF0
FF80000000001FF0
FF80000000001FF0
FF80000000001FF0
FF80000000001FF0
FF80000000001FF0
FF80000000001FF0
FF80000000001FF0
FF80000000001FF0
FF80000000001FF0
FF80000000000FF0
FF3FFFFFFFFFC7F0
FE7FFFFFFFFFE3F0
7CFFFFFFFFFFF1E0
39FFFFFFFFFFF8C0
13FFFFFFFFFFFC00
07FFFFFFFFFFFE00
07FFFFFFFFFFFE00
03FFFFFFFFFFFC00
01FFFFFFFFFFF800
ENDCHAR
STARTCHAR 099
ENCODING 99
SWIDTH 5616 0
DWIDTH 78 0
BBX 55 52 9 -4
BITMAP
00FFFFFFFFFFF0
01FFFFFFFFFFF8
03FFFFFFFFFFFC
07FFFFFFFFFFFE
07FFFFFFFFFFFE
F3FFFFFFFFFFFC
F9FFFFFFFFFFF8
FCFFFFFFFFFFF0
FE000000000000
FF000000000000
FF800000000000
FF800000000000
FF800000000000
FF800000000000
FF800000000000
FF800000000000
FF800000000000
FF800000000000
FF800000000000
FF800000000000
FF800000000000
FF800000000000
FF800000000000
FF800000000000
FF800000000000
FF800000000000
FF800000000000
FF800000000000
FF800000000000
FF800000000000
FF800000000000
FF800000000000
FF800000000000
FF800000000000
FF800000000000
FF800000000000
FF800000000000
FF800000000000
FF800000000000
FF800000000000
FF800000000000
FF800000000000
FF800000000000
FF3FFFFFFFFFC0
FE7FFFFFFFFFE0
7CFFFFFFFFFFF0
39FFFFFFFFFFF8
13FFFFFFFFFFFC
07FFFFFFFFFFFE
07FFFFFFFFFFFE
03FFFFFFFFFFFC
01FFFFFFFFFFF8
ENDCHAR
STARTCHAR 100
ENCODING 100
SWIDTH 5616 0
DWIDTH 78 0
BBX 60 91 9 -4
BITMAP
00000000000000C0
00000000000001E0
00000000000003F0
00000000000007F0
0000000000000FF0
0000000000001FF0
0000000000001FF0
0000000000001FF0
0000000000001FF0
0000000000001FF0
0000000000001FF0
0000000000001FF0
0000000000001FF0
0000000000001FF0
0000000000001FF0
0000000000001FF0
0000000000001FF0
0000000000001FF0
0000000000001FF0
0000000000001FF0
0000000000001FF0
0000000000001FF0
0000000000001FF0
0000000000001FF0
0000000000001FF0
0000000000001FF0
0000000000001FF0
0000000000001FF0
0000000000001FF0
0000000000001FF0
0000000000001FF0
0000000000001FF0
0000000000001FF0
0000000000001FF0
0000000000001FF0
0000000000001FF0
0000000000000FF0
00000000000007F0
00000000000003F0
00FFFFFFFFFFF1F0
01FFFFFFFFFFF8F0
03FFFFFFFFFFFC70
07FFFFFFFFFFFE00
07FFFFFFFFFFFE00
F3FFFFFFFFFFFC70
F9FFFFFFFFFFF8F0
FCFFFFFFFFFFF1F0
FE000000000003F0
FF000000000007F0
FF80000000000FF0
FF80000000001FF0
FF80000000001FF0
FF80000000001FF0
FF80000000001FF0
FF80000000001FF0
FF80000000001FF0
FF80000000001FF0
FF80000000001FF0
FF80000000001FF0
FF80000000001FF0
FF80000000001FF0
FF80000000001FF0
FF80000000001FF0
FF80000000001FF0
FF80000000001FF0
FF80000000001FF0
FF80000000001FF0
FF80000000001FF0
FF80000000001FF0
FF80000000001FF0
FF80000000001FF0
FF80000000001FF0
FF80000000001FF0
FF80000000001FF0
FF80000000001FF0
FF80000000001FF0
FF80000000001FF0
FF80000000001FF0
FF80000000001FF0
FF80000000001FF0
FF80000000001FF0
FF80000000000FF0
FF3FFFFFFFFFC7F0
FE7FFFFFFFFFE3F0
7CFFFFFFFFFFF1E0
39FFFFFFFFFFF8C0
13FFFFFFFFFFFC00
07FFFFFFFFFFFE00
07FFFFFFFFFFFE00
03FFFFFFFFFFFC00
01FFFFFFFFFFF800
ENDCHAR
STARTCHAR 101
ENCODING 101
SWIDTH 5616 0
DWIDTH 78 0
BBX 55 96 9 -4
BITMAP
01FFFFFFFFFFF8
03FFFFFFFFFFFC
07FFFFFFFFFFFE
07FFFFFFFFFFFE
13FFFFFFFFFFFC
39FFFFFFFFFFF8
7CFFFFFFFFFFF0
FE7FFFFFFFFFE0
FF3FFFFFFFFFC0
FF800000000000
FF800000000000
FF800000000000
FF800000000000
FF800000000000
FF800000000000
FF800000000000
FF800000000000
FF800000000000
FF800000000000
FF800000000000
FF800000000000
FF800000000000
FF800000000000
FF800000000000
FF800000000000
FF800000000000
FF800000000000
FF800000000000
FF800000000000
FF800000000000
FF800000000000
FF800000000000
FF800000000000
FF800000000000
FF800000000000
FF800000000000
FF800000000000
FF800000000000
FF800000000000
FF800000000000
FF800000000000
FF800000000000
FF000000000000
FE000000000000
FCFFFFFFFFFFF0
F9FFFFFFFFFFF8
F3FFFFFFFFFFFC
07FFFFFFFFFFFE
07FFFFFFFFFFFE
F3FFFFFFFFFFFC
F9FFFFFFFFFFF8
FCFFFFFFFFFFF0
FE000000000000
FF000000000000
FF800000000000
FF800000000000
FF800000000000
FF800000000000
FF800000000000
FF800000000000
FF800000000000
FF800000000000
FF800000000000
FF800000000000
FF800000000000
FF800000000000
FF800000000000
FF800000000000
FF800000000000
FF800000000000
FF800000000000
FF800000000000
FF800000000000
FF800000000000
FF800000000000
FF800000000000
FF800000000000
FF800000000000
FF800000000000
FF800000000000
FF800000000000
FF800000000000
FF800000000000
FF800000000000
FF800000000000
FF800000000000
FF800000000000
FF3FFFFFFFFFC0
FE7FFFFFFFFFE0
7CFFFFFFFFFFF0
39FFFFFFFFFFF8
13FFFFFFFFFFFC
07FFFFFFFFFFFE
07FFFFFFFFFFFE
03FFFFFFFFFFFC
01FFFFFFFFFFF8
ENDCHAR
STARTCHAR 102
ENCODING 102
SWIDTH 5616 0
DWIDTH 78 0
BBX 55 92 9 0
BITMAP
01FFFFFFFFFFF8
03FFFFFFFFFFFC
07FFFFFFFFFFFE
07FFFFFFFFFFFE
13FFFFFFFFFFFC
39FFFFFFFFFFF8
7CFFFFFFFFFFF0
FE7FFFFFFFFFE0
FF3FFFFFFFFFC0
FF800000000000
FF800000000000
FF800000000000
FF800000000000
FF800000000000
FF800000000000
FF800000000000
FF800000000000
FF800000000000
FF800000000000
FF800000000000
FF800000000000
FF800000000000
FF800000000000
FF800000000000
FF800000000000
FF800000000000
FF800000000000
FF800000000000
FF800000000000
FF800000000000
FF800000000000
FF800000000000
FF800000000000
FF800000000000
FF800000000000
FF800000000000
FF800000000000
FF800000000000
FF800000000000
FF800000000000
FF800000000000
FF800000000000
FF000000000000
FE000000000000
FCFFFFFFFFFFF0
F9FFFFFFFFFFF8
F3FFFFFFFFFFFC
07FFFFFFFFFFFE
07FFFFFFFFFFFE
F3FFFFFFFFFFFC
F9FFFFFFFFFFF8
FCFFFFFFFFFFF0
FE000000000000
FF000000000000
FF800000000000
FF800000000000
FF800000000000
FF800000000000
FF800000000000
FF800000000000
FF800000000000
FF800000000000
FF800000000000
FF800000000000
FF800000000000
FF800000000000
FF800000000000
FF800000000000
FF800000000000
FF800000000000
FF800000000000
FF800000000000
FF800000000000
FF800000000000
FF800000000000
FF800000000000
FF800000000000
FF800000000000
FF800000000000
FF800000000000
FF800000000000
FF800000000000
FF800000000000
FF800000000000
FF800000000000
FF800000000000
FF800000000000
FF000000000000
FE000000000000
7C000000000000
38000000000000
10000000000000
ENDCHAR
STARTCHAR 103
ENCODING 103
SWIDTH 5616 0
DWIDTH 78 0
BBX 60 96 9 -4
BITMAP
01FFFFFFFFFFF800
03FFFFFFFFFFFC00
07FFFFFFFFFFFE00
07FFFFFFFFFFFE00
13FFFFFFFFFFFC00
39FFFFFFFFFFF800
7CFFFFFFFFFFF000
FE7FFFFFFFFFE000
FF3FFFFFFFFFC000
FF80000000000000
FF80000000000000
FF80000000000000
FF80000000000000
FF80000000000000
FF80000000000000
FF80000000000000
FF80000000000000
FF80000000000000
FF80000000000000
FF80000000000000
FF80000000000000
FF80000000000000
FF80000000000000
FF80000000000000
FF80000000000000
FF80000000000000
FF80000000000000
FF80000000000000
FF80000000000000
FF80000000000000
FF80000000000000
FF80000000000000
FF80000000000000
FF80000000000000
FF80000000000000
FF80000000000000
FF80000000000000
FF80000000000000
FF80000000000000
FF80000000000000
FF80000000000000
FF80000000000000
FF00000000000000
FE00000000000000
FC00000000000000
F800000000000000
F000000000000000
0000000000000000
0000000000000000
F000000000000070
F8000000000000F0
FC000000000001F0
FE000000000003F0
FF000000000007F0
FF80000000000FF0
FF80000000001FF0
FF80000000001FF0
FF80000000001FF0
FF80000000001FF0
FF80000000001FF0
FF80000000001FF0
FF80000000001FF0
FF80000000001FF0
FF80000000001FF0
FF80000000001FF0
FF80000000001FF0
FF80000000001FF0
FF80000000001FF0
FF80000000001FF0
FF80000000001FF0
FF80000000001FF0
FF80000000001FF0
FF80000000001FF0
FF80000000001FF0
FF80000000001FF0
FF80000000001FF0
FF80000000001FF0
FF80000000001FF0
FF80000000001FF0
FF80000000001FF0
FF80000000001FF0
FF80000000001FF0
FF80000000001FF0
FF80000000001FF0
FF80000000001FF0
FF80000000001FF0
FF80000000000FF0
FF3FFFFFFFFFC7F0
FE7FFFFFFFFFE3F0
7CFFFFFFFFFFF1E0
39FFFFFFFFFFF8C0
13FFFFFFFFFFFC00
07FFFFFFFFFFFE00
07FFFFFFFFFFFE00
03FFFFFFFFFFFC00
01FFFFFFFFFFF800
ENDCHAR
STARTCHAR 104
ENCODING 104
SWIDTH 5616 0
DWIDTH 78 0
BBX 60 88 9 0
BITMAP
1000000000000000
3800000000000000
7C00000000000000
FE00000000000000
FF00000000000000
FF80000000000000
FF80000000000000
FF80000000000000
FF80000000000000
FF80000000000000
FF80000000000000
FF80000000000000
FF80000000000000
FF80000000000000
FF80000000000000
FF80000000000000
FF80000000000000
FF80000000000000
FF80000000000000
FF80000000000000
FF80000000000000
FF80000000000000
FF80000000000000
FF80000000000000
FF80000000000000
FF80000000000000
FF80000000000000
FF80000000000000
FF80000000000000
FF80000000000000
FF80000000000000
FF80000000000000
FF80000000000000
FF80000000000000
FF80000000000000
FF80000000000000
FF80000000000000
FF80000000000000
FF00000000000000
FE00000000000000
FCFFFFFFFFFFF000
F9FFFFFFFFFFF800
F3FFFFFFFFFFFC00
07FFFFFFFFFFFE00
07FFFFFFFFFFFE00
F3FFFFFFFFFFFC70
F9FFFFFFFFFFF8F0
FCFFFFFFFFFFF1F0
FE000000000003F0
FF000000000007F0
FF80000000000FF0
FF80000000001FF0
FF80000000001FF0
FF80000000001FF0
FF80000000001FF0
FF80000000001FF0
FF80000000001FF0
FF80000000001FF0
FF80000000001FF0
FF80000000001FF0
FF80000000001FF0
FF80000000001FF0
FF80000000001FF0
FF80000000001FF0
FF80000000001FF0
FF80000000001FF0
FF80000000001FF0
FF80000000001FF0
FF80000000001FF0
FF80000000001FF0
FF80000000001FF0
FF80000000001FF0
FF80000000001FF0
FF80000000001FF0
FF80000000001FF0
FF80000000001FF0
FF80000000001FF0
FF80000000001FF0
FF80000000001FF0
FF80000000001FF0
FF80000000001FF0
FF80000000001FF0
FF80000000000FF0
FF000000000007F0
FE000000000003F0
7C000000000001E0
38000000000000C0
1000000000000000
ENDCHAR
STARTCHAR 105
ENCODING 105
SWIDTH 5616 0
DWIDTH 78 0
BBX 9 42 60 1
BITMAP
0380
0780
0F80
1F80
3F80
7F80
FF80
FF80
FF80
FF80
FF80
FF80
FF80
FF80
FF80
FF80
FF80
FF80
FF80
FF80
FF80
FF80
FF80
FF80
FF80
FF80
FF80
FF80
FF80
FF80
FF80
FF80
FF80
FF80
FF80
FF80
FF80
7F80
3F80
1F80
0F00
0600
ENDCHAR
STARTCHAR 106
ENCODING 106
SWIDTH 5616 0
DWIDTH 78 0
BBX 60 91 9 -4
BITMAP
00000000000000C0
00000000000001E0
00000000000003F0
00000000000007F0
0000000000000FF0
0000000000001FF0
0000000000001FF0
0000000000001FF0
0000000000001FF0
0000000000001FF0
0000000000001FF0
0000000000001FF0
0000000000001FF0
0000000000001FF0
0000000000001FF0
0000000000001FF0
0000000000001FF0
0000000000001FF0
0000000000001FF0
0000000000001FF0
0000000000001FF0
0000000000001FF0
0000000000001FF0
0000000000001FF0
0000000000001FF0
0000000000001FF0
0000000000001FF0
0000000000001FF0
0000000000001FF0
0000000000001FF0
0000000000001FF0
0000000000001FF0
0000000000001FF0
0000000000001FF0
0000000000001FF0
0000000000001FF0
0000000000000FF0
00000000000007F0
00000000000003F0
00000000000001F0
00000000000000F0
0000000000000070
0000000000000000
0000000000000000
F000000000000070
F8000000000000F0
FC000000000001F0
FE000000000003F0
FF000000000007F0
FF80000000000FF0
FF80000000001FF0
FF80000000001FF0
FF80000000001FF0
FF80000000001FF0
FF80000000001FF0
FF80000000001FF0
FF80000000001FF0
FF80000000001FF0
FF80000000001FF0
FF80000000001FF0
FF80000000001FF0
FF80000000001FF0
FF80000000001FF0
FF80000000001FF0
FF80000000001FF0
FF80000000001FF0
FF80000000001FF0
FF80000000001FF0
FF80000000001FF0
FF80000000001FF0
FF80000000001FF0
FF80000000001FF0
FF80000000001FF0
FF80000000001FF0
FF80000000001FF0
FF80000000001FF0
FF80000000001FF0
FF80000000001FF0
FF80000000001FF0
FF80000000001FF0
FF80000000001FF0
FF80000000000FF0
FF3FFFFFFFFFC7F0
FE7FFFFFFFFFE3F0
7CFFFFFFFFFFF1E0
39FFFFFFFFFFF8C0
13FFFFFFFFFFFC00
07FFFFFFFFFFFE00
07FFFFFFFFFFFE00
03FFFFFFFFFFFC00
01FFFFFFFFFFF800
ENDCHAR
STARTCHAR 107
ENCODING 107
SWIDTH 5616 0
DWIDTH 78 0
BBX 60 92 9 0
BITMAP
01FFFFFFFFFFF800
03FFFFFFFFFFFC00
07FFFFFFFFFFFE00
07FFFFFFFFFFFE00
13FFFFFFFFFFFC00
39FFFFFFFFFFF800
7CFFFFFFFFFFF000
FE7FFFFFFFFFE000
FF3FFFFFFFFFC000
FF80000000000000
FF80000000000000
FF80000000000000
FF80000000000000
FF80000000000000
FF80000000000000
FF80000000000000
FF80000000000000
FF80000000000000
FF80000000000000
FF80000000000000
FF80000000000000
FF80000000000000
FF80000000000000
FF80000000000000
FF80000000000000
FF80000000000000
FF80000000000000
FF80000000000000
FF80000000000000
FF80000000000000
FF80000000000000
FF80000000000000
FF80000000000000
FF80000000000000
FF80000000000000
FF80000000000000
FF80000000000000
FF80000000000000
FF80000000000000
FF80000000000000
FF80000000000000
FF80000000000000
FF00000000000000
FE00000000000000
FCFFFFFFFFFFF000
F9FFFFFFFFFFF800
F3FFFFFFFFFFFC00
07FFFFFFFFFFFE00
07FFFFFFFFFFFE00
F3FFFFFFFFFFFC70
F9FFFFFFFFFFF8F0
FCFFFFFFFFFFF1F0
FE000000000003F0
FF000000000007F0
FF80000000000FF0
FF80000000001FF0
FF80000000001FF0
FF80000000001FF0
FF80000000001FF0
FF80000000001FF0
FF80000000001FF0
FF80000000001FF0
FF80000000001FF0
FF80000000001FF0
FF80000000001FF0
FF80000000001FF0
FF80000000001FF0
FF80000000001FF0
FF80000000001FF0
FF80000000001FF0
FF80000000001FF0
FF80000000001FF0
FF80000000001FF0
FF80000000001FF0
FF80000000001FF0
FF80000000001FF0
FF80000000001FF0
FF80000000001FF0
FF80000000001FF0
FF80000000001FF0
FF80000000001FF0
FF80000000001FF0
FF80000000001FF0
FF80000000001FF0
FF80000000001FF0
FF80000000001FF0
FF80000000000FF0
FF000000000007F0
FE000000000003F0
7C000000000001E0
38000000000000C0
1000000000000000
ENDCHAR
STARTCHAR 108
ENCODING 108
SWIDTH 5616 0
DWIDTH 78 0
BBX 55 92 9 -4
BITMAP
10000000000000
38000000000000
7C000000000000
FE000000000000
FF000000000000
FF800000000000
FF800000000000
FF800000000000
FF800000000000
FF800000000000
FF800000000000
FF800000000000
FF800000000000
FF800000000000
FF800000000000
FF800000000000
FF800000000000
FF800000000000
FF800000000000
FF800000000000
FF800000000000
FF800000000000
FF800000000000
FF800000000000
FF800000000000
FF800000000000
FF800000000000
FF800000000000
FF800000000000
FF800000000000
FF800000000000
FF800000000000
FF800000000000
FF800000000000
FF800000000000
FF800000000000
FF800000000000
FF800000000000
FF000000000000
FE000000000000
FC000000000000
F8000000000000
F0000000000000
00000000000000
00000000000000
F0000000000000
F8000000000000
FC000000000000
FE000000000000
FF000000000000
FF800000000000
FF800000000000
FF800000000000
FF800000000000
FF800000000000
FF800000000000
FF800000000000
FF800000000000
FF800000000000
FF800000000000
FF800000000000
FF800000000000
FF800000000000
FF800000000000
FF800000000000
FF800000000000
FF800000000000
FF800000000000
FF800000000000
FF800000000000
FF800000000000
FF800000000000
FF800000000000
FF800000000000
FF800000000000
FF800000000000
FF800000000000
FF800000000000
FF800000000000
FF800000000000
FF800000000000
FF800000000000
FF800000000000
FF3FFFFFFFFFC0
FE7FFFFFFFFFE0
7CFFFFFFFFFFF0
39FFFFFFFFFFF8
13FFFFFFFFFFFC
07FFFFFFFFFFFE
07FFFFFFFFFFFE
03FFFFFFFFFFFC
01FFFFFFFFFFF8
ENDCHAR
STARTCHAR 109
ENCODING 109
SWIDTH 5616 0
DWIDTH 78 0
BBX 60 92 9 0
BITMAP
01FFFFFFFFFFF800
03FFFFFFFFFFFC00
07FFFFFFFFFFFE00
07FFFFFFFFFFFE00
13FFFFFFFFFFFC00
39FFFFFFFFFFF8C0
7CFFFFFFFFFFF1E0
FE7FFFFFFFFFE3F0
FF3FFFFFFFFFC7F0
FF80000000000FF0
FF80000000001FF0
FF80000000001FF0
FF80000000001FF0
FF80000000001FF0
FF80000000001FF0
FF80000000001FF0
FF80000000001FF0
FF80000000001FF0
FF80000000001FF0
FF80000000001FF0
FF80000000001FF0
FF80000000001FF0
FF80000000001FF0
FF80000000001FF0
FF80000000001FF0
FF80000000001FF0
FF80000000001FF0
FF80000000001FF0
FF80000000001FF0
FF80000000001FF0
FF80000000001FF0
FF80000000001FF0
FF80000000001FF0
FF80000000001FF0
FF80000000001FF0
FF80000000001FF0
FF80000000001FF0
FF80000000001FF0
FF80000000001FF0
FF80000000001FF0
FF80000000001FF0
FF80000000000FF0
FF000000000007F0
FE000000000003F0
FC000000000001F0
F8000000000000F0
F000000000000070
0000000000000000
0000000000000000
F000000000000070
F8000000000000F0
FC000000000001F0
FE000000000003F0
FF000000000007F0
FF80000000000FF0
FF80000000001FF0
FF80000000001FF0
FF80000000001FF0
FF80000000001FF0
FF80000000001FF0
FF80000000001FF0
FF80000000001FF0
FF80000000001FF0
FF80000000001FF0
FF80000000001FF0
FF80000000001FF0
FF80000000001FF0
FF80000000001FF0
FF80000000001FF0
FF80000000001FF0
FF80000000001FF0
FF80000000001FF0
FF80000000001FF0
FF80000000001FF0
FF80000000001FF0
FF80000000001FF0
FF80000000001FF0
FF80000000001FF0
FF80000000001FF0
FF80000000001FF0
FF80000000001FF0
FF80000000001FF0
FF80000000001FF0
FF80000000001FF0
FF80000000001FF0
FF80000000001FF0
FF80000000000FF0
FF000000000007F0
FE000000000003F0
7C000000000001E0
38000000000000C0
1000000000000000
ENDCHAR
STARTCHAR 110
ENCODING 110
SWIDTH 5616 0
DWIDTH 78 0
BBX 60 48 9 0
BITMAP
00FFFFFFFFFFF000
01FFFFFFFFFFF800
03FFFFFFFFFFFC00
07FFFFFFFFFFFE00
07FFFFFFFFFFFE00
F3FFFFFFFFFFFC70
F9FFFFFFFFFFF8F0
FCFFFFFFFFFFF1F0
FE000000000003F0
FF000000000007F0
FF80000000000FF0
FF80000000001FF0
FF80000000001FF0
FF80000000001FF0
FF80000000001FF0
FF80000000001FF0
FF80000000001FF0
FF80000000001FF0
FF80000000001FF0
FF80000000001FF0
FF80000000001FF0
FF80000000001FF0
FF80000000001FF0
FF80000000001FF0
FF80000000001FF0
FF80000000001FF0
FF80000000001FF0
FF80000000001FF0
FF80000000001FF0
FF80000000001FF0
FF80000000001FF0
FF80000000001FF0
FF80000000001FF0
FF80000000001FF0
FF80000000001FF0
FF80000000001FF0
FF80000000001FF0
FF80000000001FF0
FF80000000001FF0
FF80000000001FF0
FF80000000001FF0
FF80000000001FF0
FF80000000000FF0
FF000000000007F0
FE000000000003F0
7C000000000001E0
38000000000000C0
1000000000000000
ENDCHAR
STARTCHAR 111
ENCODING 111
SWIDTH 5616 0
DWIDTH 78 0
BBX 60 52 9 -4
BITMAP
00FFFFFFFFFFF000
01FFFFFFFFFFF800
03FFFFFFFFFFFC00
07FFFFFFFFFFFE00
07FFFFFFFFFFFE00
F3FFFFFFFFFFFC70
F9FFFFFFFFFFF8F0
FCFFFFFFFFFFF1F0
FE000000000003F0
FF000000000007F0
FF80000000000FF0
FF80000000001FF0
FF80000000001FF0
FF80000000001FF0
FF80000000001FF0
FF80000000001FF0
FF80000000001FF0
FF80000000001FF0
FF80000000001FF0
FF80000000001FF0
FF80000000001FF0
FF80000000001FF0
FF80000000001FF0
FF80000000001FF0
FF80000000001FF0
FF80000000001FF0
FF80000000001FF0
FF80000000001FF0
FF80000000001FF0
FF80000000001FF0
FF80000000001FF0
FF80000000001FF0
FF80000000001FF0
FF80000000001FF0
FF80000000001FF0
FF80000000001FF0
FF80000000001FF0
FF80000000001FF0
FF80000000001FF0
FF80000000001FF0
FF80000000001FF0
FF80000000001FF0
FF80000000000FF0
FF3FFFFFFFFFC7F0
FE7FFFFFFFFFE3F0
7CFFFFFFFFFFF1E0
39FFFFFFFFFFF8C0
13FFFFFFFFFFFC00
07FFFFFFFFFFFE00
07FFFFFFFFFFFE00
03FFFFFFFFFFFC00
01FFFFFFFFFFF800
ENDCHAR
STARTCHAR 112
ENCODING 112
SWIDTH 5616 0
DWIDTH 78 0
BBX 60 92 9 0
BITMAP
01FFFFFFFFFFF800
03FFFFFFFFFFFC00
07FFFFFFFFFFFE00
07FFFFFFFFFFFE00
13FFFFFFFFFFFC00
39FFFFFFFFFFF8C0
7CFFFFFFFFFFF1E0
FE7FFFFFFFFFE3F0
FF3FFFFFFFFFC7F0
FF80000000000FF0
FF80000000001FF0
FF80000000001FF0
FF80000000001FF0
FF80000000001FF0
FF80000000001FF0
FF80000000001FF0
FF80000000001FF0
FF80000000001FF0
FF80000000001FF0
FF80000000001FF0
FF80000000001FF0
FF80000000001FF0
FF80000000001FF0
FF80000000001FF0
FF80000000001FF0
FF80000000001FF0
FF80000000001FF0
FF80000000001FF0
FF80000000001FF0
FF80000000001FF0
FF80000000001FF0
FF80000000001FF0
FF80000000001FF0
FF80000000001FF0
FF80000000001FF0
FF80000000001FF0
FF80000000001FF0
FF80000000001FF0
FF80000000001FF0
FF80000000001FF0
FF80000000001FF0
FF80000000000FF0
FF000000000007F0
FE000000000003F0
FCFFFFFFFFFFF1F0
F9FFFFFFFFFFF8F0
F3FFFFFFFFFFFC70
07FFFFFFFFFFFE00
07FFFFFFFFFFFE00
F3FFFFFFFFFFFC00
F9FFFFFFFFFFF800
FCFFFFFFFFFFF000
FE00000000000000
FF00000000000000
FF80000000000000
FF80000000000000
FF80000000000000
FF80000000000000
FF80000000000000
FF80000000000000
FF80000000000000
FF80000000000000
FF80000000000000
FF80000000000000
FF80000000000000
FF80000000000000
FF80000000000000
FF80000000000000
FF80000000000000
FF80000000000000
FF80000000000000
FF80000000000000
FF80000000000000
FF80000000000000
FF80000000000000
FF80000000000000
FF80000000000000
FF80000000000000
FF80000000000000
FF80000000000000
FF80000000000000
FF80000000000000
FF80000000000000
FF80000000000000
FF80000000000000
FF80000000000000
FF80000000000000
FF00000000000000
FE00000000000000
7C00000000000000
3800000000000000
1000000000000000
ENDCHAR
STARTCHAR 113
ENCODING 113
SWIDTH 5616 0
DWIDTH 78 0
BBX 60 91 9 1
BITMAP
01FFFFFFFFFFF800
03FFFFFFFFFFFC00
07FFFFFFFFFFFE00
07FFFFFFFFFFFE00
13FFFFFFFFFFFC00
39FFFFFFFFFFF8C0
7CFFFFFFFFFFF1E0
FE7FFFFFFFFFE3F0
FF3FFFFFFFFFC7F0
FF80000000000FF0
FF80000000001FF0
FF80000000001FF0
FF80000000001FF0
FF80000000001FF0
FF80000000001FF0
FF80000000001FF0
FF80000000001FF0
FF80000000001FF0
FF80000000001FF0
FF80000000001FF0
FF80000000001FF0
FF80000000001FF0
FF80000000001FF0
FF80000000001FF0
FF80000000001FF0
FF80000000001FF0
FF80000000001FF0
FF80000000001FF0
FF80000000001FF0
FF80000000001FF0
FF80000000001FF0
FF80000000001FF0
FF80000000001FF0
FF80000000001FF0
FF80000000001FF0
FF80000000001FF0
FF80000000001FF0
FF80000000001FF0
FF80000000001FF0
FF80000000001FF0
FF80000000001FF0
FF80000000000FF0
FF000000000007F0
FE000000000003F0
FCFFFFFFFFFFF1F0
F9FFFFFFFFFFF8F0
F3FFFFFFFFFFFC70
07FFFFFFFFFFFE00
07FFFFFFFFFFFE00
03FFFFFFFFFFFC70
01FFFFFFFFFFF8F0
00FFFFFFFFFFF1F0
00000000000003F0
00000000000007F0
0000000000000FF0
0000000000001FF0
0000000000001FF0
0000000000001FF0
0000000000001FF0
0000000000001FF0
0000000000001FF0
0000000000001FF0
0000000000001FF0
0000000000001FF0
0000000000001FF0
0000000000001FF0
0000000000001FF0
0000000000001FF0
0000000000001FF0
0000000000001FF0
0000000000001FF0
0000000000001FF0
0000000000001FF0
0000000000001FF0
0000000000001FF0
0000000000001FF0
0000000000001FF0
0000000000001FF0
0000000000001FF0
0000000000001FF0
0000000000001FF0
0000000000001FF0
0000000000001FF0
0000000000001FF0
0000000000001FF0
0000000000001FF0
0000000000000FF0
00000000000007F0
00000000000003F0
00000000000001E0
00000000000000C0
ENDCHAR
STARTCHAR 114
ENCODING 114
SWIDTH 5616 0
DWIDTH 78 0
BBX 55 48 9 0
BITMAP
00FFFFFFFFFFF0
01FFFFFFFFFFF8
03FFFFFFFFFFFC
07FFFFFFFFFFFE
07FFFFFFFFFFFE
F3FFFFFFFFFFFC
F9FFFFFFFFFFF8
FCFFFFFFFFFFF0
FE000000000000
FF000000000000
FF800000000000
FF800000000000
FF800000000000
FF800000000000
FF800000000000
FF800000000000
FF800000000000
FF800000000000
FF800000000000
FF800000000000
FF800000000000
FF800000000000
FF800000000000
FF800000000000
FF800000000000
FF800000000000
FF800000000000
FF800000000000
FF800000000000
FF800000000000
FF800000000000
FF800000000000
FF800000000000
FF800000000000
FF800000000000
FF800000000000
FF800000000000
FF800000000000
FF800000000000
FF800000000000
FF800000000000
FF800000000000
FF800000000000
FF000000000000
FE000000000000
7C000000000000
38000000000000
10000000000000
ENDCHAR
STARTCHAR 115
ENCODING 115
SWIDTH 5616 0
DWIDTH 78 0
BBX 60 92 9 -4
BITMAP
1000000000000000
3800000000000000
7C00000000000000
FE00000000000000
FF00000000000000
FF80000000000000
FF80000000000000
FF80000000000000
FF80000000000000
FF80000000000000
FF80000000000000
FF80000000000000
FF80000000000000
FF80000000000000
FF80000000000000
FF80000000000000
FF80000000000000
FF80000000000000
FF80000000000000
FF80000000000000
FF80000000000000
FF80000000000000
FF80000000000000
FF80000000000000
FF80000000000000
FF80000000000000
FF80000000000000
FF80000000000000
FF80000000000000
FF80000000000000
FF80000000000000
FF80000000000000
FF80000000000000
FF80000000000000
FF80000000000000
FF80000000000000
FF80000000000000
FF80000000000000
FF00000000000000
FE00000000000000
FCFFFFFFFFFFF000
F9FFFFFFFFFFF800
F3FFFFFFFFFFFC00
07FFFFFFFFFFFE00
07FFFFFFFFFFFE00
03FFFFFFFFFFFC70
01FFFFFFFFFFF8F0
00FFFFFFFFFFF1F0
00000000000003F0
00000000000007F0
0000000000000FF0
0000000000001FF0
0000000000001FF0
0000000000001FF0
0000000000001FF0
0000000000001FF0
0000000000001FF0
0000000000001FF0
0000000000001FF0
0000000000001FF0
0000000000001FF0
0000000000001FF0
0000000000001FF0
0000000000001FF0
0000000000001FF0
0000000000001FF0
0000000000001FF0
0000000000001FF0
0000000000001FF0
0000000000001FF0
0000000000001FF0
0000000000001FF0
0000000000001FF0
0000000000001FF0
0000000000001FF0
0000000000001FF0
0000000000001FF0
0000000000001FF0
0000000000001FF0
0000000000001FF0
0000000000001FF0
0000000000001FF0
0000000000000FF0
003FFFFFFFFFC7F0
007FFFFFFFFFE3F0
00FFFFFFFFFFF1E0
01FFFFFFFFFFF8C0
03FFFFFFFFFFFC00
07FFFFFFFFFFFE00
07FFFFFFFFFFFE00
03FFFFFFFFFFFC00
01FFFFFFFFFFF800
ENDCHAR
STARTCHAR 116
ENCODING 116
SWIDTH 5616 0
DWIDTH 78 0
BBX 55 92 9 -4
BITMAP
10000000000000
38000000000000
7C000000000000
FE000000000000
FF000000000000
FF800000000000
FF800000000000
FF800000000000
FF800000000000
FF800000000000
FF800000000000
FF800000000000
FF800000000000
FF800000000000
FF800000000000
FF800000000000
FF800000000000
FF800000000000
FF800000000000
FF800000000000
FF800000000000
FF800000000000
FF800000000000
FF800000000000
FF800000000000
FF800000000000
FF800000000000
FF800000000000
FF800000000000
FF800000000000
FF800000000000
FF800000000000
FF800000000000
FF800000000000
FF800000000000
FF800000000000
FF800000000000
FF800000000000
FF000000000000
FE000000000000
FCFFFFFFFFFFF0
F9FFFFFFFFFFF8
F3FFFFFFFFFFFC
07FFFFFFFFFFFE
07FFFFFFFFFFFE
F3FFFFFFFFFFFC
F9FFFFFFFFFFF8
FCFFFFFFFFFFF0
FE000000000000
FF000000000000
FF800000000000
FF800000000000
FF800000000000
FF800000000000
FF800000000000
FF800000000000
FF800000000000
FF800000000000
FF800000000000
FF800000000000
FF800000000000
FF800000000000
FF800000000000
FF800000000000
FF800000000000
FF800000000000
FF800000000000
FF800000000000
FF800000000000
FF800000000000
FF800000000000
FF800000000000
FF800000000000
FF800000000000
FF800000000000
FF800000000000
FF800000000000
FF800000000000
FF800000000000
FF800000000000
FF800000000000
FF800000000000
FF800000000000
FF3FFFFFFFFFC0
FE7FFFFFFFFFE0
7CFFFFFFFFFFF0
39FFFFFFFFFFF8
13FFFFFFFFFFFC
07FFFFFFFFFFFE
07FFFFFFFFFFFE
03FFFFFFFFFFFC
01FFFFFFFFFFF8
ENDCHAR
STARTCHAR 117
ENCODING 117
SWIDTH 5616 0
DWIDTH 78 0
BBX 60 47 9 -4
BITMAP
F000000000000070
F8000000000000F0
FC000000000001F0
FE000000000003F0
FF000000000007F0
FF80000000000FF0
FF80000000001FF0
FF80000000001FF0
FF80000000001FF0
FF80000000001FF0
FF80000000001FF0
FF80000000001FF0
FF80000000001FF0
FF80000000001FF0
FF80000000001FF0
FF80000000001FF0
FF80000000001FF0
FF80000000001FF0
FF80000000001FF0
FF80000000001FF0
FF80000000001FF0
FF80000000001FF0
FF80000000001FF0
FF80000000001FF0
FF80000000001FF0
FF80000000001FF0
FF80000000001FF0
FF80000000001FF0
FF80000000001FF0
FF80000000001FF0
FF80000000001FF0
FF80000000001FF0
FF80000000001FF0
FF80000000001FF0
FF80000000001FF0
FF80000000001FF0
FF80000000001FF0
FF80000000000FF0
FF3FFFFFFFFFC7F0
FE7FFFFFFFFFE3F0
7CFFFFFFFFFFF1E0
39FFFFFFFFFFF8C0
13FFFFFFFFFFFC00
07FFFFFFFFFFFE00
07FFFFFFFFFFFE00
03FFFFFFFFFFFC00
01FFFFFFFFFFF800
ENDCHAR
STARTCHAR 118
ENCODING 118
SWIDTH 5616 0
DWIDTH 78 0
BBX 60 92 9 -4
BITMAP
1000000000000000
38000000000000C0
7C000000000001E0
FE000000000003F0
FF000000000007F0
FF80000000000FF0
FF80000000001FF0
FF80000000001FF0
FF80000000001FF0
FF80000000001FF0
FF80000000001FF0
FF80000000001FF0
FF80000000001FF0
FF80000000001FF0
FF80000000001FF0
FF80000000001FF0
FF80000000001FF0
FF80000000001FF0
FF80000000001FF0
FF80000000001FF0
FF80000000001FF0
FF80000000001FF0
FF80000000001FF0
FF80000000001FF0
FF80000000001FF0
FF80000000001FF0
FF80000000001FF0
FF80000000001FF0
FF80000000001FF0
FF80000000001FF0
FF80000000001FF0
FF80000000001FF0
FF80000000001FF0
FF80000000001FF0
FF80000000001FF0
FF80000000001FF0
FF80000000001FF0
FF80000000000FF0
FF000000000007F0
FE000000000003F0
FC000000000001F0
F8000000000000F0
F000000000000070
0000000000000000
0000000000000000
F000000000000070
F8000000000000F0
FC000000000001F0
FE000000000003F0
FF000000000007F0
FF80000000000FF0
FF80000000001FF0
FF80000000001FF0
FF80000000001FF0
FF80000000001FF0
FF80000000001FF0
FF80000000001FF0
FF80000000001FF0
FF80000000001FF0
FF80000000001FF0
FF80000000001FF0
FF80000000001FF0
FF80000000001FF0
FF80000000001FF0
FF80000000001FF0
FF80000000001FF0
FF80000000001FF0
FF80000000001FF0
FF80000000001FF0
FF80000000001FF0
FF80000000001FF0
FF80000000001FF0
FF80000000001FF0
FF80000000001FF0
FF80000000001FF0
FF80000000001FF0
FF80000000001FF0
FF80000000001FF0
FF80000000001FF0
FF80000000001FF0
FF80000000001FF0
FF80000000001FF0
FF80000000000FF0
FF3FFFFFFFFFC7F0
FE7FFFFFFFFFE3F0
7CFFFFFFFFFFF1E0
39FFFFFFFFFFF8C0
13FFFFFFFFFFFC00
07FFFFFFFFFFFE00
07FFFFFFFFFFFE00
03FFFFFFFFFFFC00
01FFFFFFFFFFF800
ENDCHAR
STARTCHAR 119
ENCODING 119
SWIDTH 5616 0
DWIDTH 78 0
BBX 60 92 9 -4
BITMAP
1000000000000000
38000000000000C0
7C000000000001E0
FE000000000003F0
FF000000000007F0
FF80000000000FF0
FF80000000001FF0
FF80000000001FF0
FF80000000001FF0
FF80000000001FF0
FF80000000001FF0
FF80000000001FF0
FF80000000001FF0
FF80000000001FF0
FF80000000001FF0
FF80000000001FF0
FF80000000001FF0
FF80000000001FF0
FF80000000001FF0
FF80000000001FF0
FF80000000001FF0
FF80000000001FF0
FF80000000001FF0
FF80000000001FF0
FF80000000001FF0
FF80000000001FF0
FF80000000001FF0
FF80000000001FF0
FF80000000001FF0
FF80000000001FF0
FF80000000001FF0
FF80000000001FF0
FF80000000001FF0
FF80000000001FF0
FF80000000001FF0
FF80000000001FF0
FF80000000001FF0
FF80000000000FF0
FF000000000007F0
FE000000000003F0
FCFFFFFFFFFFF1F0
F9FFFFFFFFFFF8F0
F3FFFFFFFFFFFC70
07FFFFFFFFFFFE00
07FFFFFFFFFFFE00
F3FFFFFFFFFFFC70
F9FFFFFFFFFFF8F0
FCFFFFFFFFFFF1F0
FE000000000003F0
FF000000000007F0
FF80000000000FF0
FF80000000001FF0
FF80000000001FF0
FF80000000001FF0
FF80000000001FF0
FF80000000001FF0
FF80000000001FF0
FF80000000001FF0
FF80000000001FF0
FF80000000001FF0
FF80000000001FF0
FF80000000001FF0
FF80000000001FF0
FF80000000001FF0
FF80000000001FF0
FF80000000001FF0
FF80000000001FF0
FF80000000001FF0
FF80000000001FF0
FF80000000001FF0
FF80000000001FF0
FF80000000001FF0
FF80000000001FF0
FF80000000001FF0
FF80000000001FF0
FF80000000001FF0
FF80000000001FF0
FF80000000001FF0
FF80000000001FF0
FF80000000001FF0
FF80000000001FF0
FF80000000001FF0
FF80000000000FF0
FF3FFFFFFFFFC7F0
FE7FFFFFFFFFE3F0
7CFFFFFFFFFFF1E0
39FFFFFFFFFFF8C0
13FFFFFFFFFFFC00
07FFFFFFFFFFFE00
07FFFFFFFFFFFE00
03FFFFFFFFFFFC00
01FFFFFFFFFFF800
ENDCHAR
STARTCHAR 120
ENCODING 120
SWIDTH 5616 0
DWIDTH 78 0
BBX 60 88 9 0
BITMAP
1000000000000000
38000000000000C0
7C000000000001E0
FE000000000003F0
FF000000000007F0
FF80000000000FF0
FF80000000001FF0
FF80000000001FF0
FF80000000001FF0
FF80000000001FF0
FF80000000001FF0
FF80000000001FF0
FF80000000001FF0
FF80000000001FF0
FF80000000001FF0
FF80000000001FF0
FF80000000001FF0
FF80000000001FF0
FF80000000001FF0
FF80000000001FF0
FF80000000001FF0
FF80000000001FF0
FF80000000001FF0
FF80000000001FF0
FF80000000001FF0
FF80000000001FF0
FF80000000001FF0
FF80000000001FF0
FF80000000001FF0
FF80000000001FF0
FF80000000001FF0
FF80000000001FF0
FF80000000001FF0
FF80000000001FF0
FF80000000001FF0
FF80000000001FF0
FF80000000001FF0
FF80000000000FF0
FF000000000007F0
FE000000000003F0
FCFFFFFFFFFFF1F0
F9FFFFFFFFFFF8F0
F3FFFFFFFFFFFC70
07FFFFFFFFFFFE00
07FFFFFFFFFFFE00
F3FFFFFFFFFFFC70
F9FFFFFFFFFFF8F0
FCFFFFFFFFFFF1F0
FE000000000003F0
FF000000000007F0
FF80000000000FF0
FF80000000001FF0
FF80000000001FF0
FF80000000001FF0
FF80000000001FF0
FF80000000001FF0
FF80000000001FF0
FF80000000001FF0
FF80000000001FF0
FF80000000001FF0
FF80000000001FF0
FF80000000001FF0
FF80000000001FF0
FF80000000001FF0
FF80000000001FF0
FF80000000001FF0
FF80000000001FF0
FF80000000001FF0
FF80000000001FF0
FF80000000001FF0
FF80000000001FF0
FF80000000001FF0
FF80000000001FF0
FF80000000001FF0
FF80000000001FF0
FF80000000001FF0
FF80000000001FF0
FF80000000001FF0
FF80000000001FF0
FF80000000001FF0
FF80000000001FF0
FF80000000001FF0
FF80000000000FF0
FF000000000007F0
FE000000000003F0
7C000000000001E0
38000000000000C0
1000000000000000
ENDCHAR
STARTCHAR 121
ENCODING 121
SWIDTH 5616 0
DWIDTH 78 0
BBX 60 92 9 -4
BITMAP
1000000000000000
38000000000000C0
7C000000000001E0
FE000000000003F0
FF000000000007F0
FF80000000000FF0
FF80000000001FF0
FF80000000001FF0
FF80000000001FF0
FF80000000001FF0
FF80000000001FF0
FF80000000001FF0
FF80000000001FF0
FF80000000001FF0
FF80000000001FF0
FF80000000001FF0
FF80000000001FF0
FF80000000001FF0
FF80000000001FF0
FF80000000001FF0
FF80000000001FF0
FF80000000001FF0
FF80000000001FF0
FF80000000001FF0
FF80000000001FF0
FF80000000001FF0
FF80000000001FF0
FF80000000001FF0
FF80000000001FF0
FF80000000001FF0
FF80000000001FF0
FF80000000001FF0
FF80000000001FF0
FF80000000001FF0
FF80000000001FF0
FF80000000001FF0
FF80000000001FF0
FF80000000000FF0
FF000000000007F0
FE000000000003F0
FCFFFFFFFFFFF1F0
F9FFFFFFFFFFF8F0
F3FFFFFFFFFFFC70
07FFFFFFFFFFFE00
07FFFFFFFFFFFE00
03FFFFFFFFFFFC70
01FFFFFFFFFFF8F0
00FFFFFFFFFFF1F0
00000000000003F0
00000000000007F0
0000000000000FF0
0000000000001FF0
0000000000001FF0
0000000000001FF0
0000000000001FF0
0000000000001FF0
0000000000001FF0
0000000000001FF0
0000000000001FF0
0000000000001FF0
0000000000001FF0
0000000000001FF0
0000000000001FF0
0000000000001FF0
0000000000001FF0
0000000000001FF0
0000000000001FF0
0000000000001FF0
0000000000001FF0
0000000000001FF0
0000000000001FF0
0000000000001FF0
0000000000001FF0
0000000000001FF0
0000000000001FF0
0000000000001FF0
0000000000001FF0
0000000000001FF0
0000000000001FF0
0000000000001FF0
0000000000001FF0
0000000000001FF0
0000000000000FF0
003FFFFFFFFFC7F0
007FFFFFFFFFE3F0
00FFFFFFFFFFF1E0
01FFFFFFFFFFF8C0
03FFFFFFFFFFFC00
07FFFFFFFFFFFE00
07FFFFFFFFFFFE00
03FFFFFFFFFFFC00
01FFFFFFFFFFF800
ENDCHAR
STARTCHAR 122
ENCODING 122
SWIDTH 5616 0
DWIDTH 78 0
BBX 60 96 9 -4
BITMAP
01FFFFFFFFFFF800
03FFFFFFFFFFFC00
07FFFFFFFFFFFE00
07FFFFFFFFFFFE00
03FFFFFFFFFFFC00
01FFFFFFFFFFF8C0
00FFFFFFFFFFF1E0
007FFFFFFFFFE3F0
003FFFFFFFFFC7F0
0000000000000FF0
0000000000001FF0
0000000000001FF0
0000000000001FF0
0000000000001FF0
0000000000001FF0
0000000000001FF0
0000000000001FF0
0000000000001FF0
0000000000001FF0
0000000000001FF0
0000000000001FF0
0000000000001FF0
0000000000001FF0
0000000000001FF0
0000000000001FF0
0000000000001FF0
0000000000001FF0
0000000000001FF0
0000000000001FF0
0000000000001FF0
0000000000001FF0
0000000000001FF0
0000000000001FF0
0000000000001FF0
0000000000001FF0
0000000000001FF0
0000000000001FF0
0000000000001FF0
0000000000001FF0
0000000000001FF0
0000000000001FF0
0000000000000FF0
00000000000007F0
00000000000003F0
00000000000001F0
00000000000000F0
0000000000000070
0000000000000000
0000000000000000
F000000000000000
F800000000000000
FC00000000000000
FE00000000000000
FF00000000000000
FF80000000000000
FF80000000000000
FF80000000000000
FF80000000000000
FF80000000000000
FF80000000000000
FF80000000000000
FF80000000000000
FF80000000000000
FF80000000000000
FF80000000000000
FF80000000000000
FF80000000000000
FF80000000000000
FF80000000000000
FF80000000000000
FF80000000000000
FF80000000000000
FF80000000000000
FF80000000000000
FF80000000000000
FF80000000000000
FF80000000000000
FF80000000000000
FF80000000000000
FF80000000000000
FF80000000000000
FF80000000000000
FF80000000000000
FF80000000000000
FF80000000000000
FF80000000000000
FF80000000000000
FF3FFFFFFFFFC000
FE7FFFFFFFFFE000
7CFFFFFFFFFFF000
39FFFFFFFFFFF800
13FFFFFFFFFFFC00
07FFFFFFFFFFFE00
07FFFFFFFFFFFE00
03FFFFFFFFFFFC00
01FFFFFFFFFFF800
ENDCHAR
STARTCHAR 123
ENCODING 123
SWIDTH 1728 0
DWIDTH 24 0
BBX 20 53 2 -4
BITMAP
0007F0
001FF0
003FF0
007FF0
007FF0
00FF00
00FE00
00FE00
01FC00
01FC00
01FC00
01FC00
01FC00
01FC00
01FC00
01FC00
01FC00
01FC00
01FC00
01FC00
01FC00
01FC00
01FC00
01FC00
01F800
03F800
03F800
03F800
07F000
0FE000
1FE000
FFC000
FF0000
FC0000
FF0000
FFC000
1FE000
0FE000
07F000
03F800
03F800
03F800
01F800
01FC00
01FC00
01FC00
01FC00
01FC00
01FC00
01FC00
01FC00
01FC00
01FC00
ENDCHAR
STARTCHAR 124
ENCODING 124
SWIDTH 1368 0
DWIDTH 19 0
BBX 6 53 7 -4
BITMAP
FC
FC
FC
FC
FC
FC
FC
FC
FC
FC
FC
FC
FC
FC
FC
FC
FC
FC
FC
FC
FC
FC
FC
FC
FC
FC
FC
FC
FC
FC
FC
FC
FC
FC
FC
FC
FC
FC
FC
FC
FC
FC
FC
FC
FC
FC
FC
FC
FC
FC
FC
FC
FC
ENDCHAR
STARTCHAR 125
ENCODING 125
SWIDTH 1728 0
DWIDTH 24 0
BBX 20 53 2 -4
BITMAP
FE0000
FF8000
FFC000
FFE000
FFE000
0FF000
07F000
07F000
03F800
03F800
03F800
03F800
03F800
03F800
03F800
03F800
03F800
03F800
03F800
03F800
03F800
03F800
03F800
03F800
01F800
01FC00
01FC00
01FC00
00FE00
007F00
007F80
003FF0
000FF0
0003F0
000FF0
003FF0
007F80
007F00
00FE00
01FC00
01FC00
01FC00
01F800
03F800
03F800
03F800
03F800
03F800
03F800
03F800
03F800
03F800
03F800
ENDCHAR
STARTCHAR 126
ENCODING 126
SWIDTH 3024 0
DWIDTH 42 0
BBX 36 11 3 38
BITMAP
03F8000010
1FFF800010
3FFFE00070
7FFFF800F0
FFFFFF03F0
FFFFFFFFF0
FC0FFFFFF0
F001FFFFE0
E0007FFFC0
80001FFF80
800001FC00
ENDCHAR
STARTCHAR 127
ENCODING 127
SWIDTH 1512 0
DWIDTH 21 0
BBX 17 54 2 -3
BITMAP
FFFF80
FFFF80
FFFF80
FFFF80
F00380
F00380
F00380
F00380
F00380
F00380
F00380
F00380
F00380
F00380
F00380
F00380
F00380
F00380
F00380
F00380
F00380
F00380
F00380
F00380
F00380
F00380
F00380
F00380
F00380
F00380
F00380
F00380
F00380
F00380
F00380
F00380
F00380
F00380
F00380
F00380
F00380
F00380
F00380
F00380
F00380
F00380
F00380
F00380
F00380
F00380
FFFF80
FFFF80
FFFF80
FFFF80
ENDCHAR
STARTCHAR 128
ENCODING 128
SWIDTH 0 0
DWIDTH 0 0
BBX 0 0 0 0
BITMAP
ENDCHAR
STARTCHAR 129
ENCODING 129
SWIDTH 0 0
DWIDTH 0 0
BBX 0 0 0 0
BITMAP
ENDCHAR
STARTCHAR 130
ENCODING 130
SWIDTH 0 0
DWIDTH 0 0
BBX 0 0 0 0
BITMAP
ENDCHAR
STARTCHAR 131
ENCODING 131
SWIDTH 0 0
DWIDTH 0 0
BBX 0 0 0 0
BITMAP
ENDCHAR
STARTCHAR 132
ENCODING 132
SWIDTH 0 0
DWIDTH 0 0
BBX 0 0 0 0
BITMAP
ENDCHAR
STARTCHAR 133
ENCODING 133
SWIDTH 0 0
DWIDTH 0 0
BBX 0 0 0 0
BITMAP
ENDCHAR
STARTCHAR 134
ENCODING 134
SWIDTH 0 0
DWIDTH 0 0
BBX 0 0 0 0
BITMAP
ENDCHAR
STARTCHAR 135
ENCODING 135
SWIDTH 0 0
DWIDTH 0 0
BBX 0 0 0 0
BITMAP
ENDCHAR
STARTCHAR 136
ENCODING 136
SWIDTH 0 0
DWIDTH 0 0
BBX 0 0 0 0
BITMAP
ENDCHAR
STARTCHAR 137
ENCODING 137
SWIDTH 0 0
DWIDTH 0 0
BBX 0 0 0 0
BITMAP
ENDCHAR
STARTCHAR 138
ENCODING 138
SWIDTH 0 0
DWIDTH 0 0
BBX 0 0 0 0
BITMAP
ENDCHAR
STARTCHAR 139
ENCODING 139
SWIDTH 0 0
DWIDTH 0 0
BBX 0 0 0 0
BITMAP
ENDCHAR
STARTCHAR 140
ENCODING 140
SWIDTH 0 0
DWIDTH 0 0
BBX 0 0 0 0
BITMAP
ENDCHAR
STARTCHAR 141
ENCODING 141
SWIDTH 0 0
DWIDTH 0 0
BBX 0 0 0 0
BITMAP
ENDCHAR
STARTCHAR 142
ENCODING 142
SWIDTH 0 0
DWIDTH 0 0
BBX 0 0 0 0
BITMAP
ENDCHAR
STARTCHAR 143
ENCODING 143
SWIDTH 0 0
DWIDTH 0 0
BBX 0 0 0 0
BITMAP
ENDCHAR
STARTCHAR 144
ENCODING 144
SWIDTH 0 0
DWIDTH 0 0
BBX 0 0 0 0
BITMAP
ENDCHAR
STARTCHAR 145
ENCODING 145
SWIDTH 0 0
DWIDTH 0 0
BBX 0 0 0 0
BITMAP
ENDCHAR
STARTCHAR 146
ENCODING 146
SWIDTH 0 0
DWIDTH 0 0
BBX 0 0 0 0
BITMAP
ENDCHAR
STARTCHAR 147
ENCODING 147
SWIDTH 0 0
DWIDTH 0 0
BBX 0 0 0 0
BITMAP
ENDCHAR
STARTCHAR 148
ENCODING 148
SWIDTH 0 0
DWIDTH 0 0
BBX 0 0 0 0
BITMAP
ENDCHAR
STARTCHAR 149
ENCODING 149
SWIDTH 0 0
DWIDTH 0 0
BBX 0 0 0 0
BITMAP
ENDCHAR
STARTCHAR 150
ENCODING 150
SWIDTH 0 0
DWIDTH 0 0
BBX 0 0 0 0
BITMAP
ENDCHAR
STARTCHAR 151
ENCODING 151
SWIDTH 0 0
DWIDTH 0 0
BBX 0 0 0 0
BITMAP
ENDCHAR
STARTCHAR 152
ENCODING 152
SWIDTH 0 0
DWIDTH 0 0
BBX 0 0 0 0
BITMAP
ENDCHAR
STARTCHAR 153
ENCODING 153
SWIDTH 0 0
DWIDTH 0 0
BBX 0 0 0 0
BITMAP
ENDCHAR
STARTCHAR 154
ENCODING 154
SWIDTH 0 0
DWIDTH 0 0
BBX 0 0 0 0
BITMAP
ENDCHAR
STARTCHAR 155
ENCODING 155
SWIDTH 0 0
DWIDTH 0 0
BBX 0 0 0 0
BITMAP
ENDCHAR
STARTCHAR 156
ENCODING 156
SWIDTH 0 0
DWIDTH 0 0
BBX 0 0 0 0
BITMAP
ENDCHAR
STARTCHAR 157
ENCODING 157
SWIDTH 0 0
DWIDTH 0 0
BBX 0 0 0 0
BITMAP
ENDCHAR
STARTCHAR 158
ENCODING 158
SWIDTH 0 0
DWIDTH 0 0
BBX 0 0 0 0
BITMAP
ENDCHAR
STARTCHAR 159
ENCODING 159
SWIDTH 0 0
DWIDTH 0 0
BBX 0 0 0 0
BITMAP
ENDCHAR
STARTCHAR 160
ENCODING 160
SWIDTH 1368 0
DWIDTH 19 0
BBX 0 0 0 0
BITMAP
ENDCHAR
STARTCHAR 161
ENCODING 161
SWIDTH 1440 0
DWIDTH 20 0
BBX 7 38 6 -4
BITMAP
FE
FE
FE
FE
FE
FE
FE
00
00
00
00
00
00
7C
7C
7C
7C
7C
7C
7C
7C
7C
7C
7C
7C
7C
7C
7C
7C
7C
FE
FE
FE
FE
FE
FE
FE
FE
ENDCHAR
STARTCHAR 162
ENCODING 162
SWIDTH 2880 0
DWIDTH 40 0
BBX 32 47 4 -4
BITMAP
00000300
000003C0
000003C0
00000780
00000780
00000780
00000F80
00000F00
0007FF00
003FFF80
00FFFFE0
03FFFFF0
07FFFFF8
0FFC1FFC
0FF03FFC
1FE03DFE
3FC03CFE
3F803C7F
7F80787F
7F00787F
7F007800
7F007800
FE00F000
FE00F000
FE00F000
FE01F000
FE01E000
FE01E000
FE01E000
FE03E000
FE03C000
FE03C000
FE03C000
7F078000
7F078000
7F07807F
7F87807F
3F8F007F
3FCF00FE
1FEF01FE
0FFF03FC
0FFE0FFC
07FFFFF8
01FFFFF0
00FFFFE0
003FFF80
003FFC00
ENDCHAR
STARTCHAR 163
ENCODING 163
SWIDTH 2880 0
DWIDTH 40 0
BBX 35 54 2 -4
BITMAP
0001FF0000
000FFFE000
003FFFF800
007FFFFE00
00FFFFFF00
01FF81FF00
03FE007F80
03FC003FC0
07F8001FC0
07F0001FC0
0FF0000FE0
0FE0000FE0
0FE0000FE0
0FE0000000
0FE0000000
0FE0000000
0FE0000000
0FE0000000
0FF0000000
07F0000000
07F0000000
07F0000000
07F8000000
03F8000000
FFFFFE0000
FFFFFE0000
FFFFFE0000
FFFFFE0000
FFFFFE0000
00FE000000
00FE000000
00FE000000
00FE000000
00FE000000
00FE000000
00FE000000
00FE000000
00FE000000
00FC000000
01FC000000
01FC000000
01F8000000
03F0000000
07F0000000
07E0000000
0FC0000000
1FFFE00020
7FFFFF01E0
FFFFFFFFE0
FFFFFFFFE0
FFFFFFFFE0
FF00FFFFE0
F0000FFFE0
800000FF00
ENDCHAR
STARTCHAR 164
ENCODING 164
SWIDTH 2880 0
DWIDTH 40 0
BBX 34 34 3 5
BITMAP
1800000200
3C00000700
7E07F80F80
FF3FFF1FC0
FFFFFFBFC0
7FFFFFFF80
3FFFFFFF00
1FFFFFFE00
0FFC0FFC00
0FF003FC00
1FE001FE00
1FC000FE00
1F80007E00
3F80007F00
3F00003F00
3F00003F00
3F00003F00
3F00003F00
3F00003F00
3F00003F00
3F80007F00
1F80007E00
1FC000FE00
1FE001FC00
0FF003FC00
0FFC0FFC00
1FFFFFFE00
3FFFFFFF00
7FFFFFFF80
FF7FFFFFC0
FE3FFF3FC0
7C07F80F80
3800000700
1000000200
ENDCHAR
STARTCHAR 165
ENCODING 165
SWIDTH 2880 0
DWIDTH 40 0
BBX 40 52 0 -3
BITMAP
FF0000007F
7F800000FF
7F800000FF
3FC00001FE
1FC00001FC
1FE00003FC
0FE00007F8
0FF00007F8
07F8000FF0
03F8000FE0
03FC001FE0
01FC001FC0
01FE003FC0
00FE003F80
00FF007F00
007F007F00
003F80FE00
003F81FE00
001FC1FC00
001FE3FC00
000FE3F800
0007F7F000
0007F7F000
0003FFE000
3FFFFFFFFC
3FFFFFFFFC
3FFFFFFFFC
3FFFFFFFFC
3FFFFFFFFC
00007F0000
00007F0000
00007F0000
00007F0000
00007F0000
00007F0000
3FFFFFFFFC
3FFFFFFFFC
3FFFFFFFFC
3FFFFFFFFC
3FFFFFFFFC
00007F0000
00007F0000
00007F0000
00007F0000
00007F0000
00007F0000
00007F0000
00007F0000
00007F0000
00007F0000
00007F0000
00007F0000
ENDCHAR
STARTCHAR 166
ENCODING 166
SWIDTH 1368 0
DWIDTH 19 0
BBX 6 53 7 -4
BITMAP
FC
FC
FC
FC
FC
FC
FC
FC
FC
FC
FC
FC
FC
FC
FC
FC
FC
FC
FC
FC
FC
FC
FC
FC
FC
FC
FC
00
00
00
00
00
00
00
00
00
00
00
00
00
FC
FC
FC
FC
FC
FC
FC
FC
FC
FC
FC
FC
FC
ENDCHAR
STARTCHAR 167
ENCODING 167
SWIDTH 2880 0
DWIDTH 40 0
BBX 34 54 3 -4
BITMAP
000FF80000
007FFF0000
00FFFFC000
03FFFFE000
03FFFFF000
07FC0FF800
0FF003F800
0FE001FC00
1FC001FC00
1FC000FE00
1FC000FE00
1FC000FE00
1FC0000000
1FE0000000
0FE0000000
0FF0000000
07FC000000
07FE000000
03FF000000
01FFC00000
01FFF00000
07FFF80000
0FEFFE0000
1FC7FF0000
3F83FFC000
7F01FFE000
7E007FF800
FE003FFC00
FE000FFE00
FE0007FF00
FE0001FF00
FE0000FF80
FF00007F80
FF00003FC0
7F80003FC0
7FC0001FC0
3FE0001FC0
3FF8001FC0
1FFC001FC0
0FFF001F80
07FF803F80
01FFE03F00
00FFF07F00
003FFCFE00
001FFFFC00
0007FFF000
0001FFE000
0000FFF000
00003FF800
00001FFC00
000007FC00
000003FE00
000001FE00
000000FF00
ENDCHAR
STARTCHAR 168
ENCODING 168
SWIDTH 1728 0
DWIDTH 24 0
BBX 20 7 2 41
BITMAP
FE07F0
FE07F0
FE07F0
FE07F0
FE07F0
FE07F0
FE07F0
ENDCHAR
STARTCHAR 169
ENCODING 169
SWIDTH 3816 0
DWIDTH 53 0
BBX 53 54 0 -4
BITMAP
000007FF000000
00003FFFE00000
0001FFFFFC0000
0007FFFFFF0000
000FFC01FF8000
003FC0001FC000
007F000007F000
00FC000003F800
01F8000000FC00
03F00000007E00
03E00000003E00
07C00000001F00
0F8001FE000F80
1F000FFFC00780
1F001FFFE007C0
3E007FFFF003E0
3C00FF03F801E0
3C00FC00FC01E0
7C01F8007C01F0
7801F0003E00F0
7803F0003E00F0
7803E0000000F0
F003E000000078
F007C000000078
F007C000000078
F007C000000078
F007C000000078
F007C000000078
F007C000000078
F007C000000078
F007C000000078
F007C000000078
7803E0000000F0
7803E0003E00F0
7803F0003E00F0
7C01F0007C01F0
3C01F8007C01E0
3C00FC00F801E0
3E007F03F803E0
1F007FFFF007C0
0F001FFFE00780
0F800FFF800F80
07C001FE001F00
03E00000003E00
03F00000007E00
01F8000000FC00
00FE000003F800
007F000007F000
001FC0001FE000
000FFC01FF8000
0007FFFFFF0000
0001FFFFFC0000
00003FFFE00000
000007FF000000
ENDCHAR
STARTCHAR 170
ENCODING 170
SWIDTH 1944 0
DWIDTH 27 0
BBX 22 35 2 15
BITMAP
01FF00
07FFE0
1FFFF0
1FFFF8
3F01F8
7E00FC
7C007C
7C007C
00007C
00007C
007FFC
07FFFC
1FFFFC
3FFFFC
7F807C
7E007C
FC007C
F8007C
F8007C
F800FC
F803FC
7E0FFC
7FFFFC
3FFF7C
1FFC7C
07F000
000000
000000
000000
000000
000000
7FFFFC
7FFFFC
7FFFFC
7FFFFC
ENDCHAR
STARTCHAR 171
ENCODING 171
SWIDTH 2880 0
DWIDTH 40 0
BBX 30 32 5 0
BITMAP
001F007C
003E00F8
007E01F8
007C01F0
00F803E0
01F807E0
03F00FC0
03F00FC0
07E01F80
0FE03F80
0FC03F00
1FC07F00
3F80FE00
3F00FC00
7F01FC00
FE03F800
FE03F800
7F01FC00
3F00FC00
3F80FE00
1FC07F00
0FC03F00
0FE03F80
07E01F80
03F00FC0
03F00FC0
01F807E0
00F803E0
007C01F0
007E01F8
003E00F8
001F007C
ENDCHAR
STARTCHAR 172
ENCODING 172
SWIDTH 3024 0
DWIDTH 42 0
BBX 34 22 4 11
BITMAP
FFFFFFFFC0
FFFFFFFFC0
FFFFFFFFC0
FFFFFFFFC0
FFFFFFFFC0
FFFFFFFFC0
0000000FC0
0000000FC0
0000000FC0
0000000FC0
0000000FC0
0000000FC0
0000000FC0
0000000FC0
0000000FC0
0000000FC0
0000000FC0
0000000FC0
0000000FC0
0000000FC0
0000000FC0
0000000FC0
ENDCHAR
STARTCHAR 173
ENCODING 173
SWIDTH 1728 0
DWIDTH 24 0
BBX 20 6 2 13
BITMAP
FFFFF0
FFFFF0
FFFFF0
FFFFF0
FFFFF0
FFFFF0
ENDCHAR
STARTCHAR 174
ENCODING 174
SWIDTH 3816 0
DWIDTH 53 0
BBX 53 54 0 -4
BITMAP
000007FF000000
00003FFFE00000
0001FFFFFC0000
0007FFFFFF0000
000FFC01FF8000
003FC0001FC000
007F000007F000
00FC000003F800
01F8000000FC00
03F00000007E00
03E00000003E00
07C00000001F00
0F800000000F80
1F01FFFE000780
1F01FFFF8007C0
3E01FFFFE003E0
3C01FFFFF001E0
3C01F007F001E0
7C01F001F801F0
7801F000F800F0
7801F000F800F0
7801F000F800F0
F001F000F80078
F001F000F80078
F001F001F00078
F001F007F00078
F001FFFFE00078
F001FFFFC00078
F001FFFF800078
F001FFFC000078
F001F03F000078
F001F00F800078
7801F00FC000F0
7801F007C000F0
7801F003E000F0
7C01F003E001F0
3C01F003F001E0
3C01F001F001E0
3E01F001F803E0
1F01F000F807C0
0F01F000F80780
0F81F000FC0F80
07C00000001F00
03E00000003E00
03F00000007E00
01F8000000FC00
00FE000003F800
007F000007F000
001FC0001FE000
000FFC01FF8000
0007FFFFFF0000
0001FFFFFC0000
00003FFFE00000
000007FF000000
ENDCHAR
STARTCHAR 175
ENCODING 175
SWIDTH 2592 0
DWIDTH 36 0
BBX 36 3 0 54
BITMAP
FFFFFFFFF0
FFFFFFFFF0
FFFFFFFFF0
ENDCHAR
STARTCHAR 176
ENCODING 176
SWIDTH 5616 0
DWIDTH 78 0
BBX 60 52 9 40
BITMAP
01FFFFFFFFFFF800
03FFFFFFFFFFFC00
07FFFFFFFFFFFE00
07FFFFFFFFFFFE00
13FFFFFFFFFFFC00
39FFFFFFFFFFF8C0
7CFFFFFFFFFFF1E0
FE7FFFFFFFFFE3F0
FF3FFFFFFFFFC7F0
FF80000000000FF0
FF80000000001FF0
FF80000000001FF0
FF80000000001FF0
FF80000000001FF0
FF80000000001FF0
FF80000000001FF0
FF80000000001FF0
FF80000000001FF0
FF80000000001FF0
FF80000000001FF0
FF80000000001FF0
FF80000000001FF0
FF80000000001FF0
FF80000000001FF0
FF80000000001FF0
FF80000000001FF0
FF80000000001FF0
FF80000000001FF0
FF80000000001FF0
FF80000000001FF0
FF80000000001FF0
FF80000000001FF0
FF80000000001FF0
FF80000000001FF0
FF80000000001FF0
FF80000000001FF0
FF80000000001FF0
FF80000000001FF0
FF80000000001FF0
FF80000000001FF0
FF80000000001FF0
FF80000000000FF0
FF000000000007F0
FE000000000003F0
FCFFFFFFFFFFF1F0
F9FFFFFFFFFFF8F0
F3FFFFFFFFFFFC70
07FFFFFFFFFFFE00
07FFFFFFFFFFFE00
03FFFFFFFFFFFC00
01FFFFFFFFFFF800
00FFFFFFFFFFF000
ENDCHAR
STARTCHAR 177
ENCODING 177
SWIDTH 3024 0
DWIDTH 42 0
BBX 34 44 4 -3
BITMAP
0003F00000
0003F00000
0003F00000
0003F00000
0003F00000
0003F00000
0003F00000
0003F00000
0003F00000
0003F00000
0003F00000
0003F00000
0003F00000
0003F00000
FFFFFFFFC0
FFFFFFFFC0
FFFFFFFFC0
FFFFFFFFC0
FFFFFFFFC0
FFFFFFFFC0
0003F00000
0003F00000
0003F00000
0003F00000
0003F00000
0003F00000
0003F00000
0003F00000
0003F00000
0003F00000
0003F00000
0003F00000
0003F00000
0003F00000
0000000000
0000000000
0000000000
0000000000
FFFFFFFFC0
FFFFFFFFC0
FFFFFFFFC0
FFFFFFFFC0
FFFFFFFFC0
FFFFFFFFC0
ENDCHAR
STARTCHAR 178
ENCODING 178
SWIDTH 1728 0
DWIDTH 24 0
BBX 22 26 1 23
BITMAP
00FF00
07FFC0
0FFFF0
1FFFF8
3F81F8
3E00FC
7E007C
7C007C
00007C
00007C
0000FC
0001F8
0003F8
0007F0
001FE0
007F80
00FF00
03FC00
07F800
0FE000
1FC000
3F8000
7FFFFC
7FFFFC
FFFFFC
FFFFFC
ENDCHAR
STARTCHAR 179
ENCODING 179
SWIDTH 1728 0
DWIDTH 24 0
BBX 22 26 1 23
BITMAP
01FF00
07FFC0
1FFFE0
3FFFF0
3F03F8
7E00F8
7C00F8
0000F8
0001F8
0007F0
007FE0
007F80
007FC0
007FF0
0001F8
0000FC
00007C
00007C
F8007C
F8007C
7C00FC
7F03F8
3FFFF0
1FFFE0
0FFFC0
01FE00
ENDCHAR
STARTCHAR 180
ENCODING 180
SWIDTH 1728 0
DWIDTH 24 0
BBX 13 10 8 40
BITMAP
0FF8
0FF0
0FE0
1FC0
1F80
3F80
3F00
7E00
7C00
FC00
ENDCHAR
STARTCHAR 181
ENCODING 181
SWIDTH 2880 0
DWIDTH 40 0
BBX 34 38 5 -4
BITMAP
FE0001FC00
FE0001FC00
FE0001FC00
FE0001FC00
FE0001FC00
FE0001FC00
FE0001FC00
FE0001FC00
FE0001FC00
FE0001FC00
FE0001FC00
FE0001FC00
FE0001FC00
FE0001FC00
FE0001FC00
FE0001FC00
FE0001FC00
FE0001FC00
FE0001FC00
FE0001FC00
FE0001FC00
FE0001FC00
FE0001FC00
FE0001FC00
FE0001FC00
FE0001FC00
FE0001FC00
FE0001FC00
FE0003FC00
FF0007FC00
FF000FFC00
FF801FFE00
FFE07DFFC0
FFFFFCFFC0
FFFFF8FFC0
FFFFE07FC0
FFFFC01FC0
FE7F000000
ENDCHAR
STARTCHAR 182
ENCODING 182
SWIDTH 2808 0
DWIDTH 39 0
BBX 39 53 0 -4
BITMAP
000FFFFFFE
00FFFFFFFE
03FFFFFFFE
07FFFFFFFE
0FFFFFFFFE
1FFFFFFFFE
3FFFF00FC0
3FFFF00FC0
7FFFF00FC0
7FFFF00FC0
FFFFF00FC0
FFFFF00FC0
FFFFF00FC0
FFFFF00FC0
FFFFF00FC0
FFFFF00FC0
FFFFF00FC0
FFFFF00FC0
FFFFF00FC0
7FFFF00FC0
7FFFF00FC0
3FFFF00FC0
3FFFF00FC0
1FFFF00FC0
0FFFF00FC0
07FFF00FC0
03FFF00FC0
00FFF00FC0
001FF00FC0
0003F00FC0
0003F00FC0
0003F00FC0
0003F00FC0
0003F00FC0
0003F00FC0
0003F00FC0
0003F00FC0
0003F00FC0
0003F00FC0
0003F00FC0
0003F00FC0
0003F00FC0
0003F00FC0
0003F00FC0
0003F00FC0
0003F00FC0
0003F00FC0
0003F00FC0
0003F00FC0
0003F00FC0
0003F00FC0
0003F00FC0
0003F00FC0
ENDCHAR
STARTCHAR 183
ENCODING 183
SWIDTH 1440 0
DWIDTH 20 0
BBX 7 7 6 19
BITMAP
FE
FE
FE
FE
FE
FE
FE
ENDCHAR
STARTCHAR 184
ENCODING 184
SWIDTH 1728 0
DWIDTH 24 0
BBX 5 1 8 -4
BITMAP
F8
ENDCHAR
STARTCHAR 185
ENCODING 185
SWIDTH 1728 0
DWIDTH 24 0
BBX 13 26 4 23
BITMAP
0078
0078
0078
00F8
00F8
01F8
0FF8
FFF8
FFF8
FFF8
F8F8
00F8
00F8
00F8
00F8
00F8
00F8
00F8
00F8
00F8
00F8
00F8
00F8
00F8
00F8
00F8
ENDCHAR
STARTCHAR 186
ENCODING 186
SWIDTH 1872 0
DWIDTH 26 0
BBX 23 35 2 15
BITMAP
00FE00
03FF80
0FFFE0
1FFFF0
3F83F8
3E00F8
7C007C
7C007C
7C007C
F8003E
F8003E
F8003E
F8003E
F8003E
F8003E
F8003E
F8003E
7C007C
7C007C
7C007C
3E00F8
3F83F8
1FFFF0
0FFFE0
03FF80
00FE00
000000
000000
000000
000000
000000
7FFFFC
7FFFFC
7FFFFC
7FFFFC
ENDCHAR
STARTCHAR 187
ENCODING 187
SWIDTH 2880 0
DWIDTH 40 0
BBX 30 32 5 0
BITMAP
F803E000
7C01F000
7E01F800
3E00F800
1F007C00
1F807E00
0FC03F00
0FC03F00
07E01F80
07F01FC0
03F00FC0
03F80FE0
01FC07F0
00FC03F0
00FE03F8
007F01FC
007F01FC
00FE03F8
00FC03F0
01FC07F0
03F80FE0
03F00FC0
07F01FC0
07E01F80
0FC03F00
0FC03F00
1F807E00
1F007C00
3E00F800
7E01F800
7C01F000
F803E000
ENDCHAR
STARTCHAR 188
ENCODING 188
SWIDTH 4320 0
DWIDTH 60 0
BBX 52 52 5 -3
BITMAP
00780000003E00
00780000007C00
00780000007800
00F8000000F000
00F8000001F000
01F8000003E000
0FF8000003C000
FFF8000007C000
FFF800000F8000
FFF800000F0000
F8F800001E0000
00F800003E0000
00F800007C0000
00F80000780000
00F80000F80000
00F80001F00000
00F80003E00000
00F80003C00000
00F80007C00000
00F8000F800000
00F8000F000000
00F8001F000000
00F8003E000000
00F8007C000000
00F80078000000
00F800F8000000
000001F0001F00
000001E0003F00
000003E0003F00
000007C0007F00
00000F8000FF00
00000F0001FF00
00001F0003FF00
00003E0007FF00
00003C000FDF00
00007C000F9F00
0000F8001F1F00
0001F0003E1F00
0001E0007C1F00
0003E000F81F00
0007C001F81F00
00078003F01F00
000F0003E01F00
001F0007FFFFF0
003E0007FFFFF0
003C0007FFFFF0
007C0007FFFFF0
00F80000001F00
00F00000001F00
01E00000001F00
03E00000001F00
07C00000001F00
ENDCHAR
STARTCHAR 189
ENCODING 189
SWIDTH 4320 0
DWIDTH 60 0
BBX 53 52 5 -3
BITMAP
0078000000F800
0078000001F000
0078000001E000
00F8000003C000
00F8000007C000
01F800000F8000
0FF800000F0000
FFF800001F0000
FFF800003E0000
FFF800003C0000
F8F80000780000
00F80000F80000
00F80001F00000
00F80001E00000
00F80003E00000
00F80007C00000
00F8000F800000
00F8000F000000
00F8001F000000
00F8003E000000
00F8003C000000
00F8007C000000
00F800F8000000
00F801F0000000
00F801E0000000
00F803E0000000
000007C001FE00
000007800FFF80
00000F801FFFE0
00001F003FFFF0
00003E007F03F0
00003C007C01F8
00007C00FC00F8
0000F800F800F8
0000F0000000F8
0001F0000000F8
0003E0000001F8
0007C0000003F0
000780000007F0
000F8000000FE0
001F0000003FC0
001E000000FF00
003C000001FE00
007C000007F800
00F800000FF000
00F000001FC000
01F000003F8000
03E000007F0000
03C00000FFFFF8
07800000FFFFF8
0F800001FFFFF8
1F000001FFFFF8
ENDCHAR
STARTCHAR 190
ENCODING 190
SWIDTH 4320 0
DWIDTH 60 0
BBX 55 52 2 -3
BITMAP
01FF00000007C0
07FFC000000F80
1FFFE000000F00
3FFFF000001E00
3F03F800003E00
7E00F800007C00
7C00F800007800
0000F80000F800
0001F80001F000
0007F00001E000
007FE00003C000
007F800007C000
007FC0000F8000
007FF0000F0000
0001F8001F0000
0000FC003E0000
00007C007C0000
00007C00780000
F8007C00F80000
F8007C01F00000
7C00FC01E00000
7F03F803E00000
3FFFF007C00000
1FFFE00F800000
0FFFC00F000000
01FE001F000000
0000003E0003E0
0000003C0007E0
0000007C0007E0
000000F8000FE0
000001F0001FE0
000001E0003FE0
000003E0007FE0
000007C000FFE0
0000078001FBE0
00000F8001F3E0
00001F0003E3E0
00003E0007C3E0
00003C000F83E0
00007C001F03E0
0000F8003F03E0
0000F0007E03E0
0001E0007C03E0
0003E000FFFFFE
0007C000FFFFFE
00078000FFFFFE
000F8000FFFFFE
001F00000003E0
001E00000003E0
003C00000003E0
007C00000003E0
00F800000003E0
ENDCHAR
STARTCHAR 191
ENCODING 191
SWIDTH 2880 0
DWIDTH 40 0
BBX 34 38 3 -4
BITMAP
0007F00000
0007F00000
0007F00000
0007F00000
0007F00000
0007F00000
0007F00000
0000000000
0000000000
0000000000
0000000000
0000000000
0003F00000
0003F00000
0003F00000
0003F00000
0003F00000
0003F00000
0007E00000
0007E00000
000FE00000
001FE00000
003FC00000
007F800000
00FF800000
01FF000000
03FE000000
07FC000000
0FF8000000
1FF0000000
3FE0000000
3FC0000000
7F80000000
7F00000000
FF00000000
FE00000000
FE00000000
FE00001FC0
ENDCHAR
STARTCHAR 192
ENCODING 192
SWIDTH 3456 0
DWIDTH 48 0
BBX 48 65 0 -3
BITMAP
0001FF000000
0000FF000000
00007F000000
00003F800000
00001F800000
00001FC00000
00000FC00000
000007E00000
000003E00000
000003F00000
000000000000
000000000000
000000000000
00000FE00000
00001FF00000
00001FF00000
00003FF00000
00003FF80000
00003FF80000
00007FFC0000
00007EFC0000
0000FEFC0000
0000FE7E0000
0000FC7E0000
0001FC7F0000
0001F83F0000
0001F83F0000
0003F83F8000
0003F01F8000
0007F01FC000
0007F00FC000
0007E00FE000
000FE00FE000
000FE007E000
000FC007F000
001FC007F000
001FC003F800
003F8003F800
003F8001F800
003F0001FC00
007F0001FC00
007F0000FE00
007E0000FE00
00FE0000FE00
00FFFFFFFF00
01FFFFFFFF00
01FFFFFFFF80
01FFFFFFFF80
03FFFFFFFF80
03F800001FC0
07F800001FC0
07F000001FE0
07F000000FE0
0FE000000FE0
0FE0000007F0
0FE0000007F0
1FC0000007F8
1FC0000003F8
3FC0000003F8
3F80000003FC
3F80000001FC
7F80000001FE
7F00000000FE
7F00000000FE
FF00000000FF
ENDCHAR
STARTCHAR 193
ENCODING 193
SWIDTH 3456 0
DWIDTH 48 0
BBX 48 65 0 -3
BITMAP
000000FF8000
000000FF0000
000000FE0000
000001FC0000
000001F80000
000003F80000
000003F00000
000007E00000
000007C00000
00000FC00000
000000000000
000000000000
000000000000
00000FE00000
00001FF00000
00001FF00000
00003FF00000
00003FF80000
00003FF80000
00007FFC0000
00007EFC0000
0000FEFC0000
0000FE7E0000
0000FC7E0000
0001FC7F0000
0001F83F0000
0001F83F0000
0003F83F8000
0003F01F8000
0007F01FC000
0007F00FC000
0007E00FE000
000FE00FE000
000FE007E000
000FC007F000
001FC007F000
001FC003F800
003F8003F800
003F8001F800
003F0001FC00
007F0001FC00
007F0000FE00
007E0000FE00
00FE0000FE00
00FFFFFFFF00
01FFFFFFFF00
01FFFFFFFF80
01FFFFFFFF80
03FFFFFFFF80
03F800001FC0
07F800001FC0
07F000001FE0
07F000000FE0
0FE000000FE0
0FE0000007F0
0FE0000007F0
1FC0000007F8
1FC0000003F8
3FC0000003F8
3F80000003FC
3F80000001FC
7F80000001FE
7F00000000FE
7F00000000FE
FF00000000FF
ENDCHAR
STARTCHAR 194
ENCODING 194
SWIDTH 3456 0
DWIDTH 48 0
BBX 48 65 0 -3
BITMAP
00001FE00000
00001FE00000
00003FF00000
00007FF80000
0000FFFC0000
0001FCFE0000
0001F87E0000
0003F87F0000
0007F03F8000
000FE01FC000
000000000000
000000000000
000000000000
00000FE00000
00001FF00000
00001FF00000
00003FF00000
00003FF80000
00003FF80000
00007FFC0000
00007EFC0000
0000FEFC0000
0000FE7E0000
0000FC7E0000
0001FC7F0000
0001F83F0000
0001F83F0000
0003F83F8000
0003F01F8000
0007F01FC000
0007F00FC000
0007E00FE000
000FE00FE000
000FE007E000
000FC007F000
001FC007F000
001FC003F800
003F8003F800
003F8001F800
003F0001FC00
007F0001FC00
007F0000FE00
007E0000FE00
00FE0000FE00
00FFFFFFFF00
01FFFFFFFF00
01FFFFFFFF80
01FFFFFFFF80
03FFFFFFFF80
03F800001FC0
07F800001FC0
07F000001FE0
07F000000FE0
0FE000000FE0
0FE0000007F0
0FE0000007F0
1FC0000007F8
1FC0000003F8
3FC0000003F8
3F80000003FC
3F80000001FC
7F80000001FE
7F00000000FE
7F00000000FE
FF00000000FF
ENDCHAR
STARTCHAR 195
ENCODING 195
SWIDTH 3456 0
DWIDTH 48 0
BBX 48 64 0 -3
BITMAP
0000FC01F000
0001FF01F000
0003FFE3F000
0007FFFFE000
0007FFFFE000
000FC7FFC000
000F80FF8000
000F803F0000
000000000000
000000000000
000000000000
000000000000
00000FE00000
00001FF00000
00001FF00000
00003FF00000
00003FF80000
00003FF80000
00007FFC0000
00007EFC0000
0000FEFC0000
0000FE7E0000
0000FC7E0000
0001FC7F0000
0001F83F0000
0001F83F0000
0003F83F8000
0003F01F8000
0007F01FC000
0007F00FC000
0007E00FE000
000FE00FE000
000FE007E000
000FC007F000
001FC007F000
001FC003F800
003F8003F800
003F8001F800
003F0001FC00
007F0001FC00
007F0000FE00
007E0000FE00
00FE0000FE00
00FFFFFFFF00
01FFFFFFFF00
01FFFFFFFF80
01FFFFFFFF80
03FFFFFFFF80
03F800001FC0
07F800001FC0
07F000001FE0
07F000000FE0
0FE000000FE0
0FE0000007F0
0FE0000007F0
1FC0000007F8
1FC0000003F8
3FC0000003F8
3F80000003FC
3F80000001FC
7F80000001FE
7F00000000FE
7F00000000FE
FF00000000FF
ENDCHAR
STARTCHAR 196
ENCODING 196
SWIDTH 3456 0
DWIDTH 48 0
BBX 48 63 0 -3
BITMAP
0003F81FC000
0003F81FC000
0003F81FC000
0003F81FC000
0003F81FC000
0003F81FC000
0003F81FC000
000000000000
000000000000
000000000000
000000000000
00000FE00000
00001FF00000
00001FF00000
00003FF00000
00003FF80000
00003FF80000
00007FFC0000
00007EFC0000
0000FEFC0000
0000FE7E0000
0000FC7E0000
0001FC7F0000
0001F83F0000
0001F83F0000
0003F83F8000
0003F01F8000
0007F01FC000
0007F00FC000
0007E00FE000
000FE00FE000
000FE007E000
000FC007F000
001FC007F000
001FC003F800
003F8003F800
003F8001F800
003F0001FC00
007F0001FC00
007F0000FE00
007E0000FE00
00FE0000FE00
00FFFFFFFF00
01FFFFFFFF00
01FFFFFFFF80
01FFFFFFFF80
03FFFFFFFF80
03F800001FC0
07F800001FC0
07F000001FE0
07F000000FE0
0FE000000FE0
0FE0000007F0
0FE0000007F0
1FC0000007F8
1FC0000003F8
3FC0000003F8
3F80000003FC
3F80000001FC
7F80000001FE
7F00000000FE
7F00000000FE
FF00000000FF
ENDCHAR
STARTCHAR 197
ENCODING 197
SWIDTH 3456 0
DWIDTH 48 0
BBX 48 64 0 -3
BITMAP
000007C00000
00001FF00000
00003FF80000
00003C780000
0000783C0000
0000701C0000
0000701C0000
0000701C0000
0000783C0000
00003C780000
00003FF80000
00001FF00000
00000FE00000
00001FF00000
00001FF00000
00003FF00000
00003FF80000
00003FF80000
00007FFC0000
00007EFC0000
0000FEFC0000
0000FE7E0000
0000FC7E0000
0001FC7F0000
0001F83F0000
0001F83F0000
0003F83F8000
0003F01F8000
0007F01FC000
0007F00FC000
0007E00FE000
000FE00FE000
000FE007E000
000FC007F000
001FC007F000
001FC003F800
003F8003F800
003F8001F800
003F0001FC00
007F0001FC00
007F0000FE00
007E0000FE00
00FE0000FE00
00FFFFFFFF00
01FFFFFFFF00
01FFFFFFFF80
01FFFFFFFF80
03FFFFFFFF80
03F800001FC0
07F800001FC0
07F000001FE0
07F000000FE0
0FE000000FE0
0FE0000007F0
0FE0000007F0
1FC0000007F8
1FC0000003F8
3FC0000003F8
3F80000003FC
3F80000001FC
7F80000001FE
7F00000000FE
7F00000000FE
FF00000000FF
ENDCHAR
STARTCHAR 198
ENCODING 198
SWIDTH 5184 0
DWIDTH 72 0
BBX 68 52 0 -3
BITMAP
0000000FFFFFFFFFE0
0000000FFFFFFFFFE0
0000001FFFFFFFFFE0
0000001FFFFFFFFFE0
0000003FFFFFFFFFE0
0000003F3F80000000
0000007F3F80000000
000000FE3F80000000
000000FE3F80000000
000001FC3F80000000
000001FC3F80000000
000003F83F80000000
000003F83F80000000
000007F03F80000000
000007F03F80000000
00000FE03F80000000
00000FC03F80000000
00001FC03F80000000
00003F803F80000000
00003F803F80000000
00007F003F80000000
00007F003F80000000
0000FE003FFFFFFF80
0000FE003FFFFFFF80
0001FC003FFFFFFF80
0001FC003FFFFFFF80
0003F8003FFFFFFF80
0007F8003F80000000
0007F0003F80000000
000FF0003F80000000
000FE0003F80000000
001FFFFFFF80000000
001FFFFFFF80000000
003FFFFFFF80000000
003FFFFFFF80000000
007FFFFFFF80000000
007F00003F80000000
00FE00003F80000000
00FE00003F80000000
00FC00003F80000000
00FC00003F80000000
00F800003F80000000
00F800003F80000000
00F000003F80000000
00F000003F80000000
00E000003F80000000
00E000003F80000000
00C000003FFFFFFFF0
00C000003FFFFFFFF0
008000003FFFFFFFF0
008000003FFFFFFFF0
000000003FFFFFFFF0
ENDCHAR
STARTCHAR 199
ENCODING 199
SWIDTH 3744 0
DWIDTH 52 0
BBX 45 54 3 -4
BITMAP
00001FFC0000
0001FFFF8000
0007FFFFF000
001FFFFFF800
003FFFFFFE00
00FFF007FF00
01FF8000FF80
03FE00007FC0
03FC00001FE0
07F800000FE0
0FF000000FF0
0FE0000007F0
1FC0000003F8
1FC0000003F8
3F80000003F8
3F80000003F8
7F8000000000
7F0000000000
7F0000000000
7F0000000000
7F0000000000
FE0000000000
FE0000000000
FE0000000000
FE0000000000
FE0000000000
FE0000000000
FE0000000000
FE0000000000
FE0000000000
FE0000000000
FE0000000000
FE0000000000
FF0000000000
7F0000000000
7F0000000000
7F0000000000
7F80000003F8
3F80000003F8
3F80000003F8
1FC0000003F8
1FC0000007F0
0FE0000007F0
0FF000000FF0
07F800001FE0
07FC00003FE0
03FE00007FC0
01FF8000FF80
00FFF007FF00
007FFFFFFE00
001FFFFFFC00
000FFFFFF000
0001FFFFC000
00003FFE0000
ENDCHAR
STARTCHAR 200
ENCODING 200
SWIDTH 3456 0
DWIDTH 48 0
BBX 38 65 6 -3
BITMAP
003FE00000
001FE00000
000FE00000
0007F00000
0003F00000
0003F80000
0001F80000
0000FC0000
00007C0000
00007E0000
0000000000
0000000000
0000000000
FFFFFFFFF8
FFFFFFFFF8
FFFFFFFFF8
FFFFFFFFF8
FFFFFFFFF8
FE00000000
FE00000000
FE00000000
FE00000000
FE00000000
FE00000000
FE00000000
FE00000000
FE00000000
FE00000000
FE00000000
FE00000000
FE00000000
FE00000000
FE00000000
FE00000000
FE00000000
FFFFFFFFE0
FFFFFFFFE0
FFFFFFFFE0
FFFFFFFFE0
FFFFFFFFE0
FE00000000
FE00000000
FE00000000
FE00000000
FE00000000
FE00000000
FE00000000
FE00000000
FE00000000
FE00000000
FE00000000
FE00000000
FE00000000
FE00000000
FE00000000
FE00000000
FE00000000
FE00000000
FE00000000
FE00000000
FFFFFFFFFC
FFFFFFFFFC
FFFFFFFFFC
FFFFFFFFFC
FFFFFFFFFC
ENDCHAR
STARTCHAR 201
ENCODING 201
SWIDTH 3456 0
DWIDTH 48 0
BBX 38 65 6 -3
BITMAP
00003FE000
00003FC000
00003F8000
00007F0000
00007E0000
0000FE0000
0000FC0000
0001F80000
0001F00000
0003F00000
0000000000
0000000000
0000000000
FFFFFFFFF8
FFFFFFFFF8
FFFFFFFFF8
FFFFFFFFF8
FFFFFFFFF8
FE00000000
FE00000000
FE00000000
FE00000000
FE00000000
FE00000000
FE00000000
FE00000000
FE00000000
FE00000000
FE00000000
FE00000000
FE00000000
FE00000000
FE00000000
FE00000000
FE00000000
FFFFFFFFE0
FFFFFFFFE0
FFFFFFFFE0
FFFFFFFFE0
FFFFFFFFE0
FE00000000
FE00000000
FE00000000
FE00000000
FE00000000
FE00000000
FE00000000
FE00000000
FE00000000
FE00000000
FE00000000
FE00000000
FE00000000
FE00000000
FE00000000
FE00000000
FE00000000
FE00000000
FE00000000
FE00000000
FFFFFFFFFC
FFFFFFFFFC
FFFFFFFFFC
FFFFFFFFFC
FFFFFFFFFC
ENDCHAR
STARTCHAR 202
ENCODING 202
SWIDTH 3456 0
DWIDTH 48 0
BBX 38 65 6 -3
BITMAP
0001FE0000
0001FE0000
0003FF0000
0007FF8000
000FFFC000
001FCFE000
001F87E000
003F87F000
007F03F800
00FE01FC00
0000000000
0000000000
0000000000
FFFFFFFFF8
FFFFFFFFF8
FFFFFFFFF8
FFFFFFFFF8
FFFFFFFFF8
FE00000000
FE00000000
FE00000000
FE00000000
FE00000000
FE00000000
FE00000000
FE00000000
FE00000000
FE00000000
FE00000000
FE00000000
FE00000000
FE00000000
FE00000000
FE00000000
FE00000000
FFFFFFFFE0
FFFFFFFFE0
FFFFFFFFE0
FFFFFFFFE0
FFFFFFFFE0
FE00000000
FE00000000
FE00000000
FE00000000
FE00000000
FE00000000
FE00000000
FE00000000
FE00000000
FE00000000
FE00000000
FE00000000
FE00000000
FE00000000
FE00000000
FE00000000
FE00000000
FE00000000
FE00000000
FE00000000
FFFFFFFFFC
FFFFFFFFFC
FFFFFFFFFC
FFFFFFFFFC
FFFFFFFFFC
ENDCHAR
STARTCHAR 203
ENCODING 203
SWIDTH 3456 0
DWIDTH 48 0
BBX 38 63 6 -3
BITMAP
007F03F800
007F03F800
007F03F800
007F03F800
007F03F800
007F03F800
007F03F800
0000000000
0000000000
0000000000
0000000000
FFFFFFFFF8
FFFFFFFFF8
FFFFFFFFF8
FFFFFFFFF8
FFFFFFFFF8
FE00000000
FE00000000
FE00000000
FE00000000
FE00000000
FE00000000
FE00000000
FE00000000
FE00000000
FE00000000
FE00000000
FE00000000
FE00000000
FE00000000
FE00000000
FE00000000
FE00000000
FFFFFFFFE0
FFFFFFFFE0
FFFFFFFFE0
FFFFFFFFE0
FFFFFFFFE0
FE00000000
FE00000000
FE00000000
FE00000000
FE00000000
FE00000000
FE00000000
FE00000000
FE00000000
FE00000000
FE00000000
FE00000000
FE00000000
FE00000000
FE00000000
FE00000000
FE00000000
FE00000000
FE00000000
FE00000000
FFFFFFFFFC
FFFFFFFFFC
FFFFFFFFFC
FFFFFFFFFC
FFFFFFFFFC
ENDCHAR
STARTCHAR 204
ENCODING 204
SWIDTH 1440 0
DWIDTH 20 0
BBX 13 65 2 -3
BITMAP
FF80
7F80
3F80
1FC0
0FC0
0FE0
07E0
03F0
01F0
01F8
0000
0000
0000
07F0
07F0
07F0
07F0
07F0
07F0
07F0
07F0
07F0
07F0
07F0
07F0
07F0
07F0
07F0
07F0
07F0
07F0
07F0
07F0
07F0
07F0
07F0
07F0
07F0
07F0
07F0
07F0
07F0
07F0
07F0
07F0
07F0
07F0
07F0
07F0
07F0
07F0
07F0
07F0
07F0
07F0
07F0
07F0
07F0
07F0
07F0
07F0
07F0
07F0
07F0
07F0
ENDCHAR
STARTCHAR 205
ENCODING 205
SWIDTH 1440 0
DWIDTH 20 0
BBX 13 65 7 -3
BITMAP
0FF8
0FF0
0FE0
1FC0
1F80
3F80
3F00
7E00
7C00
FC00
0000
0000
0000
FE00
FE00
FE00
FE00
FE00
FE00
FE00
FE00
FE00
FE00
FE00
FE00
FE00
FE00
FE00
FE00
FE00
FE00
FE00
FE00
FE00
FE00
FE00
FE00
FE00
FE00
FE00
FE00
FE00
FE00
FE00
FE00
FE00
FE00
FE00
FE00
FE00
FE00
FE00
FE00
FE00
FE00
FE00
FE00
FE00
FE00
FE00
FE00
FE00
FE00
FE00
FE00
ENDCHAR
STARTCHAR 206
ENCODING 206
SWIDTH 1440 0
DWIDTH 20 0
BBX 20 65 0 -3
BITMAP
01FE00
01FE00
03FF00
07FF80
0FFFC0
1FCFE0
1F87E0
3F87F0
7F03F0
FE01F0
000000
000000
000000
01FC00
01FC00
01FC00
01FC00
01FC00
01FC00
01FC00
01FC00
01FC00
01FC00
01FC00
01FC00
01FC00
01FC00
01FC00
01FC00
01FC00
01FC00
01FC00
01FC00
01FC00
01FC00
01FC00
01FC00
01FC00
01FC00
01FC00
01FC00
01FC00
01FC00
01FC00
01FC00
01FC00
01FC00
01FC00
01FC00
01FC00
01FC00
01FC00
01FC00
01FC00
01FC00
01FC00
01FC00
01FC00
01FC00
01FC00
01FC00
01FC00
01FC00
01FC00
01FC00
ENDCHAR
STARTCHAR 207
ENCODING 207
SWIDTH 1440 0
DWIDTH 20 0
BBX 20 64 0 -3
BITMAP
FE03F0
FE03F0
FE03F0
FE03F0
FE03F0
FE03F0
FE03F0
000000
000000
000000
000000
000000
01FC00
01FC00
01FC00
01FC00
01FC00
01FC00
01FC00
01FC00
01FC00
01FC00
01FC00
01FC00
01FC00
01FC00
01FC00
01FC00
01FC00
01FC00
01FC00
01FC00
01FC00
01FC00
01FC00
01FC00
01FC00
01FC00
01FC00
01FC00
01FC00
01FC00
01FC00
01FC00
01FC00
01FC00
01FC00
01FC00
01FC00
01FC00
01FC00
01FC00
01FC00
01FC00
01FC00
01FC00
01FC00
01FC00
01FC00
01FC00
01FC00
01FC00
01FC00
01FC00
ENDCHAR
STARTCHAR 208
ENCODING 208
SWIDTH 3744 0
DWIDTH 52 0
BBX 49 52 0 -3
BITMAP
03FFFFF8000000
03FFFFFFC00000
03FFFFFFF00000
03FFFFFFFC0000
03FFFFFFFF0000
03F80007FF8000
03F80000FFC000
03F800001FE000
03F800000FF000
03F8000007F800
03F8000003FC00
03F8000001FC00
03F8000001FE00
03F8000000FE00
03F8000000FE00
03F80000007F00
03F80000007F00
03F80000007F00
03F80000007F00
03F80000003F80
03F80000003F80
03F80000003F80
03F80000003F80
FFFFFFE0003F80
FFFFFFE0003F80
FFFFFFE0003F80
FFFFFFE0003F80
FFFFFFE0003F80
03F80000003F80
03F80000003F80
03F80000003F80
03F80000003F80
03F80000007F00
03F80000007F00
03F80000007F00
03F80000007F00
03F8000000FF00
03F8000000FE00
03F8000000FE00
03F8000001FC00
03F8000001FC00
03F8000003F800
03F8000007F800
03F800000FF000
03F800003FE000
03F80000FFC000
03F80007FF8000
03FFFFFFFF0000
03FFFFFFFC0000
03FFFFFFF00000
03FFFFFFC00000
03FFFFF8000000
ENDCHAR
STARTCHAR 209
ENCODING 209
SWIDTH 3744 0
DWIDTH 52 0
BBX 40 64 6 -3
BITMAP
0007E00F80
000FF80F80
001FFF1F80
003FFFFF00
003FFFFF00
007E3FFE00
007C07FC00
007C01F800
0000000000
0000000000
0000000000
0000000000
FF0000007F
FF0000007F
FF8000007F
FFC000007F
FFC000007F
FFE000007F
FFF000007F
FFF000007F
FFF800007F
FFFC00007F
FFFC00007F
FFFE00007F
FFFF00007F
FEFF00007F
FEFF80007F
FE7F80007F
FE3FC0007F
FE3FE0007F
FE1FE0007F
FE0FF0007F
FE0FF8007F
FE07F8007F
FE03FC007F
FE03FE007F
FE01FE007F
FE00FF007F
FE00FF007F
FE007F807F
FE007FC07F
FE003FC07F
FE001FE07F
FE001FF07F
FE000FF07F
FE0007F87F
FE0007FC7F
FE0003FC7F
FE0001FE7F
FE0001FF7F
FE0000FF7F
FE0000FFFF
FE00007FFF
FE00003FFF
FE00003FFF
FE00001FFF
FE00000FFF
FE00000FFF
FE000007FF
FE000003FF
FE000003FF
FE000001FF
FE000000FF
FE000000FF
ENDCHAR
STARTCHAR 210
ENCODING 210
SWIDTH 4032 0
DWIDTH 56 0
BBX 50 66 3 -4
BITMAP
00007FC0000000
00003FC0000000
00001FC0000000
00000FE0000000
000007E0000000
000007F0000000
000003F0000000
000001F8000000
000000F8000000
000000FC000000
00000000000000
00000000000000
00000FFC000000
0000FFFFC00000
0003FFFFF00000
000FFFFFFC0000
003FFFFFFF0000
007FF807FF8000
00FFC000FFC000
01FF00003FE000
03FE00000FF000
07F8000007F800
07F0000003F800
0FE0000001FC00
1FE0000001FE00
1FC0000000FE00
3FC0000000FF00
3F800000007F00
3F800000007F00
7F000000003F80
7F000000003F80
7F000000003F80
7F000000003F80
FE000000001FC0
FE000000001FC0
FE000000001FC0
FE000000001FC0
FE000000001FC0
FE000000001FC0
FE000000001FC0
FE000000001FC0
FE000000001FC0
FE000000001FC0
FE000000001FC0
FE000000001FC0
7F000000003F80
7F000000003F80
7F000000003F80
7F000000003F80
3F800000007F00
3F800000007F00
3FC0000000FF00
1FC0000000FE00
1FE0000001FE00
0FF0000001FC00
07F0000003F800
07F8000007F800
03FC00000FF000
01FF00003FE000
00FFC000FFC000
007FF807FF8000
003FFFFFFF0000
000FFFFFFC0000
0003FFFFF00000
0000FFFFC00000
00000FFC000000
ENDCHAR
STARTCHAR 211
ENCODING 211
SWIDTH 4032 0
DWIDTH 56 0
BBX 50 66 3 -4
BITMAP
0000007FC00000
0000007F800000
0000007F000000
000000FE000000
000000FC000000
000001FC000000
000001F8000000
000003F0000000
000003E0000000
000007E0000000
00000000000000
00000000000000
00000FFC000000
0000FFFFC00000
0003FFFFF00000
000FFFFFFC0000
003FFFFFFF0000
007FF807FF8000
00FFC000FFC000
01FF00003FE000
03FE00000FF000
07F8000007F800
07F0000003F800
0FE0000001FC00
1FE0000001FE00
1FC0000000FE00
3FC0000000FF00
3F800000007F00
3F800000007F00
7F000000003F80
7F000000003F80
7F000000003F80
7F000000003F80
FE000000001FC0
FE000000001FC0
FE000000001FC0
FE000000001FC0
FE000000001FC0
FE000000001FC0
FE000000001FC0
FE000000001FC0
FE000000001FC0
FE000000001FC0
FE000000001FC0
FE000000001FC0
7F000000003F80
7F000000003F80
7F000000003F80
7F000000003F80
3F800000007F00
3F800000007F00
3FC0000000FF00
1FC0000000FE00
1FE0000001FE00
0FF0000001FC00
07F0000003F800
07F8000007F800
03FC00000FF000
01FF00003FE000
00FFC000FFC000
007FF807FF8000
003FFFFFFF0000
000FFFFFFC0000
0003FFFFF00000
0000FFFFC00000
00000FFC000000
ENDCHAR
STARTCHAR 212
ENCODING 212
SWIDTH 4032 0
DWIDTH 56 0
BBX 50 66 3 -4
BITMAP
000007F8000000
000007F8000000
00000FFC000000
00001FFE000000
00003FFF000000
00007F3F800000
00007E1F800000
0000FE1FC00000
0001FC0FE00000
0003F807F00000
00000000000000
00000000000000
00000FFC000000
0000FFFFC00000
0003FFFFF00000
000FFFFFFC0000
003FFFFFFF0000
007FF807FF8000
00FFC000FFC000
01FF00003FE000
03FE00000FF000
07F8000007F800
07F0000003F800
0FE0000001FC00
1FE0000001FE00
1FC0000000FE00
3FC0000000FF00
3F800000007F00
3F800000007F00
7F000000003F80
7F000000003F80
7F000000003F80
7F000000003F80
FE000000001FC0
FE000000001FC0
FE000000001FC0
FE000000001FC0
FE000000001FC0
FE000000001FC0
FE000000001FC0
FE000000001FC0
FE000000001FC0
FE000000001FC0
FE000000001FC0
FE000000001FC0
7F000000003F80
7F000000003F80
7F000000003F80
7F000000003F80
3F800000007F00
3F800000007F00
3FC0000000FF00
1FC0000000FE00
1FE0000001FE00
0FF0000001FC00
07F0000003F800
07F8000007F800
03FC00000FF000
01FF00003FE000
00FFC000FFC000
007FF807FF8000
003FFFFFFF0000
000FFFFFFC0000
0003FFFFF00000
0000FFFFC00000
00000FFC000000
ENDCHAR
STARTCHAR 213
ENCODING 213
SWIDTH 4032 0
DWIDTH 56 0
BBX 50 65 3 -4
BITMAP
00007E00F80000
0000FF80F80000
0001FFF1F80000
0003FFFFF00000
0003FFFFF00000
0007E3FFE00000
0007C07FC00000
0007C01F800000
00000000000000
00000000000000
00000000000000
00000FFC000000
0000FFFFC00000
0003FFFFF00000
000FFFFFFC0000
003FFFFFFF0000
007FF807FF8000
00FFC000FFC000
01FF00003FE000
03FE00000FF000
07F8000007F800
07F0000003F800
0FE0000001FC00
1FE0000001FE00
1FC0000000FE00
3FC0000000FF00
3F800000007F00
3F800000007F00
7F000000003F80
7F000000003F80
7F000000003F80
7F000000003F80
FE000000001FC0
FE000000001FC0
FE000000001FC0
FE000000001FC0
FE000000001FC0
FE000000001FC0
FE000000001FC0
FE000000001FC0
FE000000001FC0
FE000000001FC0
FE000000001FC0
FE000000001FC0
7F000000003F80
7F000000003F80
7F000000003F80
7F000000003F80
3F800000007F00
3F800000007F00
3FC0000000FF00
1FC0000000FE00
1FE0000001FE00
0FF0000001FC00
07F0000003F800
07F8000007F800
03FC00000FF000
01FF00003FE000
00FFC000FFC000
007FF807FF8000
003FFFFFFF0000
000FFFFFFC0000
0003FFFFF00000
0000FFFFC00000
00000FFC000000
ENDCHAR
STARTCHAR 214
ENCODING 214
SWIDTH 4032 0
DWIDTH 56 0
BBX 50 64 3 -4
BITMAP
0001FC0FE00000
0001FC0FE00000
0001FC0FE00000
0001FC0FE00000
0001FC0FE00000
0001FC0FE00000
0001FC0FE00000
00000000000000
00000000000000
00000000000000
00000FFC000000
0000FFFFC00000
0003FFFFF00000
000FFFFFFC0000
003FFFFFFF0000
007FF807FF8000
00FFC000FFC000
01FF00003FE000
03FE00000FF000
07F8000007F800
07F0000003F800
0FE0000001FC00
1FE0000001FE00
1FC0000000FE00
3FC0000000FF00
3F800000007F00
3F800000007F00
7F000000003F80
7F000000003F80
7F000000003F80
7F000000003F80
FE000000001FC0
FE000000001FC0
FE000000001FC0
FE000000001FC0
FE000000001FC0
FE000000001FC0
FE000000001FC0
FE000000001FC0
FE000000001FC0
FE000000001FC0
FE000000001FC0
FE000000001FC0
7F000000003F80
7F000000003F80
7F000000003F80
7F000000003F80
3F800000007F00
3F800000007F00
3FC0000000FF00
1FC0000000FE00
1FE0000001FE00
0FF0000001FC00
07F0000003F800
07F8000007F800
03FC00000FF000
01FF00003FE000
00FFC000FFC000
007FF807FF8000
003FFFFFFF0000
000FFFFFFC0000
0003FFFFF00000
0000FFFFC00000
00000FFC000000
ENDCHAR
STARTCHAR 215
ENCODING 215
SWIDTH 3024 0
DWIDTH 42 0
BBX 31 31 6 7
BITMAP
08000020
1C000070
3E0000F8
7F0001FC
FF8003FE
7FC007FC
3FE00FF8
1FF01FF0
0FF83FE0
07FC7FC0
03FEFF80
01FFFF00
00FFFE00
007FFC00
003FF800
001FF000
003FF800
007FFC00
00FFFE00
01FFFF00
03FEFF80
07FC7FC0
0FF83FE0
1FF01FF0
3FE00FF8
7FC007FC
FF8003FE
7F0001FC
3E0000F8
1C000070
08000020
ENDCHAR
STARTCHAR 216
ENCODING 216
SWIDTH 4032 0
DWIDTH 56 0
BBX 51 55 3 -4
BITMAP
00000000000300
00000FFC000780
0000FFFFC007E0
0003FFFFF00FC0
000FFFFFFC1F80
003FFFFFFF3F00
007FF807FFFE00
00FFC000FFFC00
01FF00003FFC00
03FE00001FF800
07F8000007F800
07F0000007F800
0FE000000FFC00
1FE000001FFE00
1FC000003FFE00
3FC000007EFF00
3F800000FC7F00
3F800001FC7F00
7F000003F83F80
7F000007F03F80
7F000007E03F80
7F00000FC03F80
FE00001F801FC0
FE00003F001FC0
FE00007E001FC0
FE0000FC001FC0
FE0001FC001FC0
FE0003F8001FC0
FE0007F0001FC0
FE000FE0001FC0
FE000FC0001FC0
FE001F80001FC0
FE003F00001FC0
FE007E00001FC0
7F00FC00003F80
7F01F800003F80
7F03F800003F80
7F07F000003F80
3F8FE000007F00
3F8FC000007F00
3FDF800000FF00
1FFF000000FE00
1FFE000001FE00
0FFC000001FC00
07F8000003F800
07F8000007F800
07FE00000FF000
0FFF00003FE000
0FFFC000FFC000
1FFFF807FF8000
3F3FFFFFFF0000
7E0FFFFFFC0000
FC03FFFFF00000
F800FFFFC00000
78000FFC000000
ENDCHAR
STARTCHAR 217
ENCODING 217
SWIDTH 3744 0
DWIDTH 52 0
BBX 40 66 6 -4
BITMAP
001FF00000
000FF00000
0007F00000
0003F80000
0001F80000
0001FC0000
0000FC0000
00007E0000
00003E0000
00003F0000
0000000000
0000000000
0000000000
FE0000007F
FE0000007F
FE0000007F
FE0000007F
FE0000007F
FE0000007F
FE0000007F
FE0000007F
FE0000007F
FE0000007F
FE0000007F
FE0000007F
FE0000007F
FE0000007F
FE0000007F
FE0000007F
FE0000007F
FE0000007F
FE0000007F
FE0000007F
FE0000007F
FE0000007F
FE0000007F
FE0000007F
FE0000007F
FE0000007F
FE0000007F
FE0000007F
FE0000007F
FE0000007F
FE0000007F
FE0000007F
FE0000007F
FE0000007F
FE0000007F
FE0000007F
FE0000007F
FE0000007F
7F000000FE
7F000000FE
7F000000FE
7F000000FE
3F800001FC
3F800001FC
3FC00003FC
1FE00007F8
0FF8001FF0
07FF00FFF0
03FFFFFFE0
01FFFFFF80
00FFFFFF00
003FFFF800
0003FFC000
ENDCHAR
STARTCHAR 218
ENCODING 218
SWIDTH 3744 0
DWIDTH 52 0
BBX 40 66 6 -4
BITMAP
00000FF800
00000FF000
00000FE000
00001FC000
00001F8000
00003F8000
00003F0000
00007E0000
00007C0000
0000FC0000
0000000000
0000000000
0000000000
FE0000007F
FE0000007F
FE0000007F
FE0000007F
FE0000007F
FE0000007F
FE0000007F
FE0000007F
FE0000007F
FE0000007F
FE0000007F
FE0000007F
FE0000007F
FE0000007F
FE0000007F
FE0000007F
FE0000007F
FE0000007F
FE0000007F
FE0000007F
FE0000007F
FE0000007F
FE0000007F
FE0000007F
FE0000007F
FE0000007F
FE0000007F
FE0000007F
FE0000007F
FE0000007F
FE0000007F
FE0000007F
FE0000007F
FE0000007F
FE0000007F
FE0000007F
FE0000007F
FE0000007F
7F000000FE
7F000000FE
7F000000FE
7F000000FE
3F800001FC
3F800001FC
3FC00003FC
1FE00007F8
0FF8001FF0
07FF00FFF0
03FFFFFFE0
01FFFFFF80
00FFFFFF00
003FFFF800
0003FFC000
ENDCHAR
STARTCHAR 219
ENCODING 219
SWIDTH 3744 0
DWIDTH 52 0
BBX 40 66 6 -4
BITMAP
0000FF0000
0000FF0000
0001FF8000
0003FFC000
0007FFE000
000FE7F000
000FC3F000
001FC3F800
003F81FC00
007F00FE00
0000000000
0000000000
0000000000
FE0000007F
FE0000007F
FE0000007F
FE0000007F
FE0000007F
FE0000007F
FE0000007F
FE0000007F
FE0000007F
FE0000007F
FE0000007F
FE0000007F
FE0000007F
FE0000007F
FE0000007F
FE0000007F
FE0000007F
FE0000007F
FE0000007F
FE0000007F
FE0000007F
FE0000007F
FE0000007F
FE0000007F
FE0000007F
FE0000007F
FE0000007F
FE0000007F
FE0000007F
FE0000007F
FE0000007F
FE0000007F
FE0000007F
FE0000007F
FE0000007F
FE0000007F
FE0000007F
FE0000007F
7F000000FE
7F000000FE
7F000000FE
7F000000FE
3F800001FC
3F800001FC
3FC00003FC
1FE00007F8
0FF8001FF0
07FF00FFF0
03FFFFFFE0
01FFFFFF80
00FFFFFF00
003FFFF800
0003FFC000
ENDCHAR
STARTCHAR 220
ENCODING 220
SWIDTH 3744 0
DWIDTH 52 0
BBX 40 64 6 -4
BITMAP
003F81FC00
003F81FC00
003F81FC00
003F81FC00
003F81FC00
003F81FC00
003F81FC00
0000000000
0000000000
0000000000
0000000000
FE0000007F
FE0000007F
FE0000007F
FE0000007F
FE0000007F
FE0000007F
FE0000007F
FE0000007F
FE0000007F
FE0000007F
FE0000007F
FE0000007F
FE0000007F
FE0000007F
FE0000007F
FE0000007F
FE0000007F
FE0000007F
FE0000007F
FE0000007F
FE0000007F
FE0000007F
FE0000007F
FE0000007F
FE0000007F
FE0000007F
FE0000007F
FE0000007F
FE0000007F
FE0000007F
FE0000007F
FE0000007F
FE0000007F
FE0000007F
FE0000007F
FE0000007F
FE0000007F
FE0000007F
7F000000FE
7F000000FE
7F000000FE
7F000000FE
3F800001FC
3F800001FC
3FC00003FC
1FE00007F8
0FF8001FF0
07FF00FFF0
03FFFFFFE0
01FFFFFF80
00FFFFFF00
003FFFF800
0003FFC000
ENDCHAR
STARTCHAR 221
ENCODING 221
SWIDTH 3456 0
DWIDTH 48 0
BBX 48 65 0 -3
BITMAP
000000FF8000
000000FF0000
000000FE0000
000001FC0000
000001F80000
000003F80000
000003F00000
000007E00000
000007C00000
00000FC00000
000000000000
000000000000
000000000000
FF80000001FF
7F80000001FE
3FC0000003FC
3FE0000003FC
1FE0000007F8
0FF000000FF0
07F800000FF0
07F800001FE0
03FC00003FC0
01FE00003FC0
01FE00007F80
00FF00007F00
007F8000FF00
007F8001FE00
003FC001FC00
001FE003FC00
000FE007F800
000FF007F000
0007F80FF000
0003F81FE000
0003FC1FC000
0001FE3FC000
0000FE3F8000
0000FF7F0000
00007FFF0000
00003FFE0000
00001FFC0000
00001FFC0000
00000FF80000
000007F00000
000007F00000
000007F00000
000007F00000
000007F00000
000007F00000
000007F00000
000007F00000
000007F00000
000007F00000
000007F00000
000007F00000
000007F00000
000007F00000
000007F00000
000007F00000
000007F00000
000007F00000
000007F00000
000007F00000
000007F00000
000007F00000
000007F00000
ENDCHAR
STARTCHAR 222
ENCODING 222
SWIDTH 3456 0
DWIDTH 48 0
BBX 39 52 6 -3
BITMAP
FE00000000
FE00000000
FE00000000
FE00000000
FE00000000
FE00000000
FE00000000
FE00000000
FE00000000
FE00000000
FFFFFFE000
FFFFFFFE00
FFFFFFFF80
FFFFFFFFC0
FFFFFFFFE0
FE00003FF0
FE00000FF8
FE000007F8
FE000003FC
FE000001FC
FE000001FC
FE000001FE
FE000000FE
FE000000FE
FE000000FE
FE000000FE
FE000000FE
FE000000FE
FE000000FE
FE000001FE
FE000001FC
FE000001FC
FE000003FC
FE000007F8
FE00001FF0
FE00007FF0
FFFFFFFFE0
FFFFFFFF80
FFFFFFFF00
FFFFFFFC00
FFFFFFC000
FE00000000
FE00000000
FE00000000
FE00000000
FE00000000
FE00000000
FE00000000
FE00000000
FE00000000
FE00000000
FE00000000
ENDCHAR
STARTCHAR 223
ENCODING 223
SWIDTH 3168 0
DWIDTH 44 0
BBX 36 54 5 -4
BITMAP
003FF00000
00FFFC0000
03FFFF0000
07FFFF8000
0FFFFFC000
1FF07FE000
3FC01FE000
3F800FF000
7F0007F000
7F0007F000
7F0007F000
7E0007F000
FE0007F000
FE000FE000
FE000FE000
FE000FE000
FE001FC000
FE001FC000
FE003F8000
FE003F8000
FE007F0000
FE007F0000
FE007F0000
FE00FE0000
FE00FE0000
FE00FE0000
FE00FE0000
FE00FF0000
FE00FF8000
FE007FE000
FE003FF000
FE001FF800
FE000FFE00
FE0007FF00
FE0003FF80
FE0000FFC0
FE00007FE0
FE00003FE0
FE00000FE0
FE00000FF0
FE000007F0
FE000007F0
FE000007F0
FE000007F0
FE000007F0
FE1FC00FF0
FE1FC00FE0
FE0FE01FE0
FE0FF03FC0
FE07FFFF80
FE07FFFF80
FE01FFFE00
FE00FFFC00
00001FE000
ENDCHAR
STARTCHAR 224
ENCODING 224
SWIDTH 2880 0
DWIDTH 40 0
BBX 32 54 3 -4
BITMAP
00FF8000
007F8000
003F8000
001FC000
000FC000
000FE000
0007E000
0003F000
0001F000
0001F800
00000000
00000000
00000000
00000000
00000000
001FFC00
00FFFFC0
03FFFFF0
07FFFFF8
0FFFFFFC
1FF807FC
3FE001FE
3FC000FE
3F8000FE
7F00007F
7F00007F
7F00007F
0000007F
0000007F
0000007F
0003FFFF
003FFFFF
01FFFFFF
07FFFFFF
0FFFFFFF
1FFE007F
3FE0007F
7FC0007F
7F80007F
7F00007F
FE00007F
FE00007F
FE00007F
FE00007F
FE0000FF
FE0001FF
FF0003FF
7F800FFF
7FE03FFF
3FFFFFFF
1FFFFE7F
0FFFFC7F
03FFF07F
00FF8000
ENDCHAR
STARTCHAR 225
ENCODING 225
SWIDTH 2880 0
DWIDTH 40 0
BBX 32 54 3 -4
BITMAP
00007FC0
00007F80
00007F00
0000FE00
0000FC00
0001FC00
0001F800
0003F000
0003E000
0007E000
00000000
00000000
00000000
00000000
00000000
001FFC00
00FFFFC0
03FFFFF0
07FFFFF8
0FFFFFFC
1FF807FC
3FE001FE
3FC000FE
3F8000FE
7F00007F
7F00007F
7F00007F
0000007F
0000007F
0000007F
0003FFFF
003FFFFF
01FFFFFF
07FFFFFF
0FFFFFFF
1FFE007F
3FE0007F
7FC0007F
7F80007F
7F00007F
FE00007F
FE00007F
FE00007F
FE00007F
FE0000FF
FE0001FF
FF0003FF
7F800FFF
7FE03FFF
3FFFFFFF
1FFFFE7F
0FFFFC7F
03FFF07F
00FF8000
ENDCHAR
STARTCHAR 226
ENCODING 226
SWIDTH 2880 0
DWIDTH 40 0
BBX 32 54 3 -4
BITMAP
0007F800
0007F800
000FFC00
001FFE00
003FFF00
007F3F80
007E1F80
00FE1FC0
01FC0FE0
03F807F0
00000000
00000000
00000000
00000000
00000000
001FFC00
00FFFFC0
03FFFFF0
07FFFFF8
0FFFFFFC
1FF807FC
3FE001FE
3FC000FE
3F8000FE
7F00007F
7F00007F
7F00007F
0000007F
0000007F
0000007F
0003FFFF
003FFFFF
01FFFFFF
07FFFFFF
0FFFFFFF
1FFE007F
3FE0007F
7FC0007F
7F80007F
7F00007F
FE00007F
FE00007F
FE00007F
FE00007F
FE0000FF
FE0001FF
FF0003FF
7F800FFF
7FE03FFF
3FFFFFFF
1FFFFE7F
0FFFFC7F
03FFF07F
00FF8000
ENDCHAR
STARTCHAR 227
ENCODING 227
SWIDTH 2880 0
DWIDTH 40 0
BBX 32 53 3 -4
BITMAP
007E00F8
00FF80F8
01FFF1F8
03FFFFF0
03FFFFF0
07E3FFE0
07C07FC0
07C01F80
00000000
00000000
00000000
00000000
00000000
00000000
001FFC00
00FFFFC0
03FFFFF0
07FFFFF8
0FFFFFFC
1FF807FC
3FE001FE
3FC000FE
3F8000FE
7F00007F
7F00007F
7F00007F
0000007F
0000007F
0000007F
0003FFFF
003FFFFF
01FFFFFF
07FFFFFF
0FFFFFFF
1FFE007F
3FE0007F
7FC0007F
7F80007F
7F00007F
FE00007F
FE00007F
FE00007F
FE00007F
FE0000FF
FE0001FF
FF0003FF
7F800FFF
7FE03FFF
3FFFFFFF
1FFFFE7F
0FFFFC7F
03FFF07F
00FF8000
ENDCHAR
STARTCHAR 228
ENCODING 228
SWIDTH 2880 0
DWIDTH 40 0
BBX 32 52 3 -4
BITMAP
01FC0FE0
01FC0FE0
01FC0FE0
01FC0FE0
01FC0FE0
01FC0FE0
01FC0FE0
00000000
00000000
00000000
00000000
00000000
00000000
001FFC00
00FFFFC0
03FFFFF0
07FFFFF8
0FFFFFFC
1FF807FC
3FE001FE
3FC000FE
3F8000FE
7F00007F
7F00007F
7F00007F
0000007F
0000007F
0000007F
0003FFFF
003FFFFF
01FFFFFF
07FFFFFF
0FFFFFFF
1FFE007F
3FE0007F
7FC0007F
7F80007F
7F00007F
FE00007F
FE00007F
FE00007F
FE00007F
FE0000FF
FE0001FF
FF0003FF
7F800FFF
7FE03FFF
3FFFFFFF
1FFFFE7F
0FFFFC7F
03FFF07F
00FF8000
ENDCHAR
STARTCHAR 229
ENCODING 229
SWIDTH 2880 0
DWIDTH 40 0
BBX 32 55 3 -4
BITMAP
0001F000
0007FC00
000FFE00
000F1E00
001E0F00
001C0700
001C0700
001C0700
001E0F00
000F1E00
000FFE00
0007FC00
0001F000
00000000
00000000
00000000
001FFC00
00FFFFC0
03FFFFF0
07FFFFF8
0FFFFFFC
1FF807FC
3FE001FE
3FC000FE
3F8000FE
7F00007F
7F00007F
7F00007F
0000007F
0000007F
0000007F
0003FFFF
003FFFFF
01FFFFFF
07FFFFFF
0FFFFFFF
1FFE007F
3FE0007F
7FC0007F
7F80007F
7F00007F
FE00007F
FE00007F
FE00007F
FE00007F
FE0000FF
FE0001FF
FF0003FF
7F800FFF
7FE03FFF
3FFFFFFF
1FFFFE7F
0FFFFC7F
03FFF07F
00FF8000
ENDCHAR
STARTCHAR 230
ENCODING 230
SWIDTH 4608 0
DWIDTH 64 0
BBX 58 39 3 -4
BITMAP
001FFE0007FC0000
00FFFFC03FFF8000
03FFFFF07FFFE000
07FFFFF9FFFFF000
0FFFFFFFFFFFF800
1FF807FFFC07FC00
3FE001FFF003FE00
3FC000FFE000FE00
3F8000FFE000FF00
7F0000FFC0007F00
7F00007FC0003F80
7F00007F80003F80
0000007F80003F80
0000007F80001F80
0000007F00001FC0
0003FFFF00001FC0
003FFFFFFFFFFFC0
01FFFFFFFFFFFFC0
07FFFFFFFFFFFFC0
0FFFFFFFFFFFFFC0
1FFE007FFFFFFFC0
3FE0007F00000000
7FC0007F00000000
7F80007F00000000
FF00007F00000000
FE00007F80000000
FE00007F80000000
FE0000FF80003F80
FE0000FFC0003F80
FE0001FFC0003F00
FE0001FFE0007F00
FF0003FFF000FF00
7F800FFFF801FE00
7FE03FE7FE07FE00
3FFFFFC3FFFFFC00
1FFFFF81FFFFF800
0FFFFE007FFFE000
03FFFC003FFF8000
00FFC00007FC0000
ENDCHAR
STARTCHAR 231
ENCODING 231
SWIDTH 2592 0
DWIDTH 36 0
BBX 32 39 3 -4
BITMAP
0007FC00
003FFF80
00FFFFC0
03FFFFF0
07FFFFF8
0FFC0FFC
0FF003FC
1FE001FE
3FC000FE
3F80007F
7F80007F
7F00007F
7F000000
7F000000
FE000000
FE000000
FE000000
FE000000
FE000000
FE000000
FE000000
FE000000
FE000000
FE000000
FE000000
7F000000
7F000000
7F00007F
7F80007F
3F80007F
3FC000FE
1FE001FE
1FF003FC
0FFC0FFC
07FFFFF8
03FFFFF0
01FFFFE0
007FFF80
000FFE00
ENDCHAR
STARTCHAR 232
ENCODING 232
SWIDTH 2880 0
DWIDTH 40 0
BBX 34 54 3 -4
BITMAP
00FF800000
007F800000
003F800000
001FC00000
000FC00000
000FE00000
0007E00000
0003F00000
0001F00000
0001F80000
0000000000
0000000000
0000000000
0000000000
0000000000
0007FC0000
003FFF0000
00FFFFC000
03FFFFF000
07FFFFF800
0FFC0FFC00
0FF003FE00
1FE001FE00
3FC000FF00
3F80007F00
7F80007F80
7F00003F80
7F00003F80
7F00001F80
FE00001FC0
FE00001FC0
FFFFFFFFC0
FFFFFFFFC0
FFFFFFFFC0
FFFFFFFFC0
FFFFFFFFC0
FE00000000
FE00000000
FE00000000
FE00000000
7F00000000
7F00000000
7F00003F80
7F80003F80
3F80007F00
3FC0007F00
1FE000FF00
0FF001FE00
07FC07FC00
07FFFFFC00
01FFFFF000
00FFFFE000
003FFF8000
0007FC0000
ENDCHAR
STARTCHAR 233
ENCODING 233
SWIDTH 2880 0
DWIDTH 40 0
BBX 34 54 3 -4
BITMAP
00007FC000
00007F8000
00007F0000
0000FE0000
0000FC0000
0001FC0000
0001F80000
0003F00000
0003E00000
0007E00000
0000000000
0000000000
0000000000
0000000000
0000000000
0007FC0000
003FFF0000
00FFFFC000
03FFFFF000
07FFFFF800
0FFC0FFC00
0FF003FE00
1FE001FE00
3FC000FF00
3F80007F00
7F80007F80
7F00003F80
7F00003F80
7F00001F80
FE00001FC0
FE00001FC0
FFFFFFFFC0
FFFFFFFFC0
FFFFFFFFC0
FFFFFFFFC0
FFFFFFFFC0
FE00000000
FE00000000
FE00000000
FE00000000
7F00000000
7F00000000
7F00003F80
7F80003F80
3F80007F00
3FC0007F00
1FE000FF00
0FF001FE00
07FC07FC00
07FFFFFC00
01FFFFF000
00FFFFE000
003FFF8000
0007FC0000
ENDCHAR
STARTCHAR 234
ENCODING 234
SWIDTH 2880 0
DWIDTH 40 0
BBX 34 54 3 -4
BITMAP
0007F80000
0007F80000
000FFC0000
001FFE0000
003FFF0000
007F3F8000
007E1F8000
00FE1FC000
01FC0FE000
03F807F000
0000000000
0000000000
0000000000
0000000000
0000000000
0007FC0000
003FFF0000
00FFFFC000
03FFFFF000
07FFFFF800
0FFC0FFC00
0FF003FE00
1FE001FE00
3FC000FF00
3F80007F00
7F80007F80
7F00003F80
7F00003F80
7F00001F80
FE00001FC0
FE00001FC0
FFFFFFFFC0
FFFFFFFFC0
FFFFFFFFC0
FFFFFFFFC0
FFFFFFFFC0
FE00000000
FE00000000
FE00000000
FE00000000
7F00000000
7F00000000
7F00003F80
7F80003F80
3F80007F00
3FC0007F00
1FE000FF00
0FF001FE00
07FC07FC00
07FFFFFC00
01FFFFF000
00FFFFE000
003FFF8000
0007FC0000
ENDCHAR
STARTCHAR 235
ENCODING 235
SWIDTH 2880 0
DWIDTH 40 0
BBX 34 52 3 -4
BITMAP
01FC0FE000
01FC0FE000
01FC0FE000
01FC0FE000
01FC0FE000
01FC0FE000
01FC0FE000
0000000000
0000000000
0000000000
0000000000
0000000000
0000000000
0007FC0000
003FFF0000
00FFFFC000
03FFFFF000
07FFFFF800
0FFC0FFC00
0FF003FE00
1FE001FE00
3FC000FF00
3F80007F00
7F80007F80
7F00003F80
7F00003F80
7F00001F80
FE00001FC0
FE00001FC0
FFFFFFFFC0
FFFFFFFFC0
FFFFFFFFC0
FFFFFFFFC0
FFFFFFFFC0
FE00000000
FE00000000
FE00000000
FE00000000
7F00000000
7F00000000
7F00003F80
7F80003F80
3F80007F00
3FC0007F00
1FE000FF00
0FF001FE00
07FC07FC00
07FFFFFC00
01FFFFF000
00FFFFE000
003FFF8000
0007FC0000
ENDCHAR
STARTCHAR 236
ENCODING 236
SWIDTH 1224 0
DWIDTH 17 0
BBX 13 53 0 -3
BITMAP
FF80
7F80
3F80
1FC0
0FC0
0FE0
07E0
03F0
01F0
01F8
0000
0000
0000
0000
0000
0000
07F0
07F0
07F0
07F0
07F0
07F0
07F0
07F0
07F0
07F0
07F0
07F0
07F0
07F0
07F0
07F0
07F0
07F0
07F0
07F0
07F0
07F0
07F0
07F0
07F0
07F0
07F0
07F0
07F0
07F0
07F0
07F0
07F0
07F0
07F0
07F0
07F0
ENDCHAR
STARTCHAR 237
ENCODING 237
SWIDTH 1224 0
DWIDTH 17 0
BBX 13 53 4 -3
BITMAP
0FF8
0FF0
0FE0
1FC0
1F80
3F80
3F00
7E00
7C00
FC00
0000
0000
0000
0000
0000
0000
7F00
7F00
7F00
7F00
7F00
7F00
7F00
7F00
7F00
7F00
7F00
7F00
7F00
7F00
7F00
7F00
7F00
7F00
7F00
7F00
7F00
7F00
7F00
7F00
7F00
7F00
7F00
7F00
7F00
7F00
7F00
7F00
7F00
7F00
7F00
7F00
7F00
ENDCHAR
STARTCHAR 238
ENCODING 238
SWIDTH 1224 0
DWIDTH 17 0
BBX 17 53 0 -3
BITMAP
07F800
07F800
0FFC00
1FFE00
3FFF00
7F3F80
7E1F80
FE1F80
FC0F80
F80780
000000
000000
000000
000000
000000
000000
07F000
07F000
07F000
07F000
07F000
07F000
07F000
07F000
07F000
07F000
07F000
07F000
07F000
07F000
07F000
07F000
07F000
07F000
07F000
07F000
07F000
07F000
07F000
07F000
07F000
07F000
07F000
07F000
07F000
07F000
07F000
07F000
07F000
07F000
07F000
07F000
07F000
ENDCHAR
STARTCHAR 239
ENCODING 239
SWIDTH 1224 0
DWIDTH 17 0
BBX 17 51 0 -3
BITMAP
FC0F80
FC0F80
FC0F80
FC0F80
FC0F80
FC0F80
FC0F80
000000
000000
000000
000000
000000
000000
000000
07F000
07F000
07F000
07F000
07F000
07F000
07F000
07F000
07F000
07F000
07F000
07F000
07F000
07F000
07F000
07F000
07F000
07F000
07F000
07F000
07F000
07F000
07F000
07F000
07F000
07F000
07F000
07F000
07F000
07F000
07F000
07F000
07F000
07F000
07F000
07F000
07F000
ENDCHAR
STARTCHAR 240
ENCODING 240
SWIDTH 2880 0
DWIDTH 40 0
BBX 34 53 3 -4
BITMAP
00FF002000
003F80F000
001FE3F000
0007FFF800
0003FFE000
0001FF8000
0003FE0000
000FFE0000
003FFF0000
00FFBF8000
00FE1FC000
00780FE000
006007E000
000007F000
000003F000
000FFBF800
007FFFFC00
00FFFFFC00
03FFFFFE00
07FFFFFE00
0FFC0FFF00
1FF003FF00
1FE001FF00
3FC000FF80
3F80007F80
7F80007F80
7F00003F80
7F00003F80
7F00003FC0
FE00001FC0
FE00001FC0
FE00001FC0
FE00001FC0
FE00001FC0
FE00001FC0
FE00001FC0
FE00001FC0
FE00001FC0
FE00001FC0
7F00003F80
7F00003F80
7F00003F80
7F80007F80
3F80007F00
3FC000FF00
1FE001FE00
1FF003FE00
0FFC0FFC00
07FFFFF800
03FFFFF000
00FFFFC000
007FFF8000
000FFC0000
ENDCHAR
STARTCHAR 241
ENCODING 241
SWIDTH 2880 0
DWIDTH 40 0
BBX 30 52 5 -3
BITMAP
01F803E0
03FE03E0
07FFC7E0
0FFFFFC0
0FFFFFC0
1F8FFF80
1F01FF00
1F007E00
00000000
00000000
00000000
00000000
00000000
00000000
0003FC00
FE0FFF80
FE3FFFC0
FE7FFFE0
FEFFFFF0
FFFC1FF0
FFF007F8
FFC003F8
FF8003F8
FF0001FC
FE0001FC
FE0001FC
FE0001FC
FE0001FC
FE0001FC
FE0001FC
FE0001FC
FE0001FC
FE0001FC
FE0001FC
FE0001FC
FE0001FC
FE0001FC
FE0001FC
FE0001FC
FE0001FC
FE0001FC
FE0001FC
FE0001FC
FE0001FC
FE0001FC
FE0001FC
FE0001FC
FE0001FC
FE0001FC
FE0001FC
FE0001FC
FE0001FC
ENDCHAR
STARTCHAR 242
ENCODING 242
SWIDTH 2880 0
DWIDTH 40 0
BBX 34 54 3 -4
BITMAP
00FF800000
007F800000
003F800000
001FC00000
000FC00000
000FE00000
0007E00000
0003F00000
0001F00000
0001F80000
0000000000
0000000000
0000000000
0000000000
0000000000
000FFC0000
003FFF0000
00FFFFC000
03FFFFF000
07FFFFF800
0FFC0FFC00
0FF003FE00
1FE001FE00
3FC000FF00
3F80007F00
7F80007F80
7F00003F80
7F00003F80
7F00003F80
FE00001FC0
FE00001FC0
FE00001FC0
FE00001FC0
FE00001FC0
FE00001FC0
FE00001FC0
FE00001FC0
FE00001FC0
FE00001FC0
FE00001FC0
7F00003F80
7F00003F80
7F00003F80
7F80007F80
3F80007F00
3FC000FF00
1FE001FE00
0FF003FC00
0FFC0FFC00
07FFFFF800
03FFFFF000
00FFFFC000
003FFF0000
000FFC0000
ENDCHAR
STARTCHAR 243
ENCODING 243
SWIDTH 2880 0
DWIDTH 40 0
BBX 34 54 3 -4
BITMAP
00007FC000
00007F8000
00007F0000
0000FE0000
0000FC0000
0001FC0000
0001F80000
0003F00000
0003E00000
0007E00000
0000000000
0000000000
0000000000
0000000000
0000000000
000FFC0000
003FFF0000
00FFFFC000
03FFFFF000
07FFFFF800
0FFC0FFC00
0FF003FE00
1FE001FE00
3FC000FF00
3F80007F00
7F80007F80
7F00003F80
7F00003F80
7F00003F80
FE00001FC0
FE00001FC0
FE00001FC0
FE00001FC0
FE00001FC0
FE00001FC0
FE00001FC0
FE00001FC0
FE00001FC0
FE00001FC0
FE00001FC0
7F00003F80
7F00003F80
7F00003F80
7F80007F80
3F80007F00
3FC000FF00
1FE001FE00
0FF003FC00
0FFC0FFC00
07FFFFF800
03FFFFF000
00FFFFC000
003FFF0000
000FFC0000
ENDCHAR
STARTCHAR 244
ENCODING 244
SWIDTH 2880 0
DWIDTH 40 0
BBX 34 54 3 -4
BITMAP
0007F80000
0007F80000
000FFC0000
001FFE0000
003FFF0000
007F3F8000
007E1F8000
00FE1FC000
01FC0FE000
03F807F000
0000000000
0000000000
0000000000
0000000000
0000000000
000FFC0000
003FFF0000
00FFFFC000
03FFFFF000
07FFFFF800
0FFC0FFC00
0FF003FE00
1FE001FE00
3FC000FF00
3F80007F00
7F80007F80
7F00003F80
7F00003F80
7F00003F80
FE00001FC0
FE00001FC0
FE00001FC0
FE00001FC0
FE00001FC0
FE00001FC0
FE00001FC0
FE00001FC0
FE00001FC0
FE00001FC0
FE00001FC0
7F00003F80
7F00003F80
7F00003F80
7F80007F80
3F80007F00
3FC000FF00
1FE001FE00
0FF003FC00
0FFC0FFC00
07FFFFF800
03FFFFF000
00FFFFC000
003FFF0000
000FFC0000
ENDCHAR
STARTCHAR 245
ENCODING 245
SWIDTH 2880 0
DWIDTH 40 0
BBX 34 53 3 -4
BITMAP
007E00F800
00FF80F800
01FFF1F800
03FFFFF000
03FFFFF000
07E3FFE000
07C07FC000
07C01F8000
0000000000
0000000000
0000000000
0000000000
0000000000
0000000000
000FFC0000
003FFF0000
00FFFFC000
03FFFFF000
07FFFFF800
0FFC0FFC00
0FF003FE00
1FE001FE00
3FC000FF00
3F80007F00
7F80007F80
7F00003F80
7F00003F80
7F00003F80
FE00001FC0
FE00001FC0
FE00001FC0
FE00001FC0
FE00001FC0
FE00001FC0
FE00001FC0
FE00001FC0
FE00001FC0
FE00001FC0
FE00001FC0
7F00003F80
7F00003F80
7F00003F80
7F80007F80
3F80007F00
3FC000FF00
1FE001FE00
0FF003FC00
0FFC0FFC00
07FFFFF800
03FFFFF000
00FFFFC000
003FFF0000
000FFC0000
ENDCHAR
STARTCHAR 246
ENCODING 246
SWIDTH 2880 0
DWIDTH 40 0
BBX 34 52 3 -4
BITMAP
01FC0FE000
01FC0FE000
01FC0FE000
01FC0FE000
01FC0FE000
01FC0FE000
01FC0FE000
0000000000
0000000000
0000000000
0000000000
0000000000
0000000000
000FFC0000
003FFF0000
00FFFFC000
03FFFFF000
07FFFFF800
0FFC0FFC00
0FF003FE00
1FE001FE00
3FC000FF00
3F80007F00
7F80007F80
7F00003F80
7F00003F80
7F00003F80
FE00001FC0
FE00001FC0
FE00001FC0
FE00001FC0
FE00001FC0
FE00001FC0
FE00001FC0
FE00001FC0
FE00001FC0
FE00001FC0
FE00001FC0
7F00003F80
7F00003F80
7F00003F80
7F80007F80
3F80007F00
3FC000FF00
1FE001FE00
0FF003FC00
0FFC0FFC00
07FFFFF800
03FFFFF000
00FFFFC000
003FFF0000
000FFC0000
ENDCHAR
STARTCHAR 247
ENCODING 247
SWIDTH 3024 0
DWIDTH 42 0
BBX 33 30 4 7
BITMAP
0007F00000
0007F00000
0007F00000
0007F00000
0007F00000
0007F00000
0007F00000
0000000000
0000000000
0000000000
0000000000
0000000000
FFFFFFFF80
FFFFFFFF80
FFFFFFFF80
FFFFFFFF80
FFFFFFFF80
FFFFFFFF80
0000000000
0000000000
0000000000
0000000000
0000000000
0007F00000
0007F00000
0007F00000
0007F00000
0007F00000
0007F00000
0007F00000
ENDCHAR
STARTCHAR 248
ENCODING 248
SWIDTH 2880 0
DWIDTH 40 0
BBX 34 41 3 -4
BITMAP
0000000200
0000000700
000FF807C0
003FFF0F80
00FFFFDF00
03FFFFFF00
07FFFFFE00
0FFC0FFC00
0FF003FC00
1FE001FE00
3FC003FF00
3F8003FF00
7F8007FF80
7F000FBF80
7F000F3F80
7F001F3F80
FE003E1FC0
FE007C1FC0
FE007C1FC0
FE00F81FC0
FE01F01FC0
FE01E01FC0
FE03E01FC0
FE07C01FC0
FE0F801FC0
FE0F801FC0
FE1F001FC0
7F3E003F80
7F3C003F80
7F7C003F80
7FF8007F80
3FF0007F00
3FF000FF00
1FE001FE00
1FF003FC00
0FFC0FFC00
1FFFFFF800
3FFFFFF000
3EFFFFC000
7C3FFF0000
F807FC0000
ENDCHAR
STARTCHAR 249
ENCODING 249
SWIDTH 2880 0
DWIDTH 40 0
BBX 30 54 5 -4
BITMAP
03FE0000
01FE0000
00FE0000
007F0000
003F0000
003F8000
001F8000
000FC000
0007C000
0007E000
00000000
00000000
00000000
00000000
00000000
00000000
FE0001FC
FE0001FC
FE0001FC
FE0001FC
FE0001FC
FE0001FC
FE0001FC
FE0001FC
FE0001FC
FE0001FC
FE0001FC
FE0001FC
FE0001FC
FE0001FC
FE0001FC
FE0001FC
FE0001FC
FE0001FC
FE0001FC
FE0001FC
FE0001FC
FE0001FC
FE0001FC
FE0001FC
FE0001FC
FE0001FC
FE0001FC
FE0001FC
FE0003FC
7F0007FC
7F000FFC
7F803FFC
3FE0FFFC
3FFFFDFC
1FFFF9FC
0FFFF1FC
07FFC1FC
00FF0000
ENDCHAR
STARTCHAR 250
ENCODING 250
SWIDTH 2880 0
DWIDTH 40 0
BBX 30 54 5 -4
BITMAP
0001FF00
0001FE00
0001FC00
0003F800
0003F000
0007F000
0007E000
000FC000
000F8000
001F8000
00000000
00000000
00000000
00000000
00000000
00000000
FE0001FC
FE0001FC
FE0001FC
FE0001FC
FE0001FC
FE0001FC
FE0001FC
FE0001FC
FE0001FC
FE0001FC
FE0001FC
FE0001FC
FE0001FC
FE0001FC
FE0001FC
FE0001FC
FE0001FC
FE0001FC
FE0001FC
FE0001FC
FE0001FC
FE0001FC
FE0001FC
FE0001FC
FE0001FC
FE0001FC
FE0001FC
FE0001FC
FE0003FC
7F0007FC
7F000FFC
7F803FFC
3FE0FFFC
3FFFFDFC
1FFFF9FC
0FFFF1FC
07FFC1FC
00FF0000
ENDCHAR
STARTCHAR 251
ENCODING 251
SWIDTH 2880 0
DWIDTH 40 0
BBX 30 54 5 -4
BITMAP
001FE000
001FE000
003FF000
007FF800
00FFFC00
01FCFE00
01F87E00
03F87F00
07F03F80
0FE01FC0
00000000
00000000
00000000
00000000
00000000
00000000
FE0001FC
FE0001FC
FE0001FC
FE0001FC
FE0001FC
FE0001FC
FE0001FC
FE0001FC
FE0001FC
FE0001FC
FE0001FC
FE0001FC
FE0001FC
FE0001FC
FE0001FC
FE0001FC
FE0001FC
FE0001FC
FE0001FC
FE0001FC
FE0001FC
FE0001FC
FE0001FC
FE0001FC
FE0001FC
FE0001FC
FE0001FC
FE0001FC
FE0003FC
7F0007FC
7F000FFC
7F803FFC
3FE0FFFC
3FFFFDFC
1FFFF9FC
0FFFF1FC
07FFC1FC
00FF0000
ENDCHAR
STARTCHAR 252
ENCODING 252
SWIDTH 2880 0
DWIDTH 40 0
BBX 30 52 5 -4
BITMAP
07F03F80
07F03F80
07F03F80
07F03F80
07F03F80
07F03F80
07F03F80
00000000
00000000
00000000
00000000
00000000
00000000
00000000
FE0001FC
FE0001FC
FE0001FC
FE0001FC
FE0001FC
FE0001FC
FE0001FC
FE0001FC
FE0001FC
FE0001FC
FE0001FC
FE0001FC
FE0001FC
FE0001FC
FE0001FC
FE0001FC
FE0001FC
FE0001FC
FE0001FC
FE0001FC
FE0001FC
FE0001FC
FE0001FC
FE0001FC
FE0001FC
FE0001FC
FE0001FC
FE0001FC
FE0003FC
7F0007FC
7F000FFC
7F803FFC
3FE0FFFC
3FFFFDFC
1FFFF9FC
0FFFF1FC
07FFC1FC
00FF0000
ENDCHAR
STARTCHAR 253
ENCODING 253
SWIDTH 2592 0
DWIDTH 36 0
BBX 34 54 1 -4
BITMAP
00007FC000
00007F8000
00007F0000
0000FE0000
0000FC0000
0001FC0000
0001F80000
0003F00000
0003E00000
0007E00000
0000000000
0000000000
0000000000
0000000000
0000000000
0000000000
FF00003FC0
7F00003F80
7F00003F80
7F80007F80
3F80007F00
3F80007F00
3FC000FF00
1FC000FE00
1FC000FE00
0FE001FC00
0FE001FC00
0FE001FC00
07F003F800
07F003F800
03F003F000
03F807F000
03F807F000
01F807E000
01FC0FE000
01FC0FE000
00FC0FC000
00FE1FC000
007E1F8000
007E1F8000
007F3F8000
003F3F0000
003F3F0000
003FFF0000
001FFE0000
001FFE0000
000FFC0000
000FFC0000
000FFC0000
0007F80000
0007F80000
0007F80000
0003F00000
0003F00000
ENDCHAR
STARTCHAR 254
ENCODING 254
SWIDTH 2880 0
DWIDTH 40 0
BBX 32 53 5 -4
BITMAP
FE000000
FE000000
FE000000
FE000000
FE000000
FE000000
FE000000
FE000000
FE000000
FE000000
FE000000
FE000000
FE000000
FE000000
FE03F800
FE1FFF00
FE3FFF80
FE7FFFE0
FEFFFFF0
FFFC1FF0
FFF007F8
FFC003FC
FF8001FC
FF0001FC
FF0000FE
FE0000FE
FE0000FE
FE00007F
FE00007F
FE00007F
FE00007F
FE00007F
FE00007F
FE00007F
FE00007F
FE00007F
FE00007F
FE00007F
FE00007F
FE0000FE
FE0000FE
FE0000FE
FE0000FE
FE0001FC
FF0003FC
FF8003F8
FFE007F8
FFF81FF0
FFFFFFE0
FFFFFFC0
FE7FFF80
FE3FFE00
FE07F800
ENDCHAR
STARTCHAR 255
ENCODING 255
SWIDTH 2592 0
DWIDTH 36 0
BBX 34 52 1 -4
BITMAP
01FC0FE000
01FC0FE000
01FC0FE000
01FC0FE000
01FC0FE000
01FC0FE000
01FC0FE000
0000000000
0000000000
0000000000
0000000000
0000000000
0000000000
0000000000
FF00003FC0
7F00003F80
7F00003F80
7F80007F80
3F80007F00
3F80007F00
3FC000FF00
1FC000FE00
1FC000FE00
0FE001FC00
0FE001FC00
0FE001FC00
07F003F800
07F003F800
03F003F000
03F807F000
03F807F000
01F807E000
01FC0FE000
01FC0FE000
00FC0FC000
00FE1FC000
007E1F8000
007E1F8000
007F3F8000
003F3F0000
003F3F0000
003FFF0000
001FFE0000
001FFE0000
000FFC0000
000FFC0000
000FFC0000
0007F80000
0007F80000
0007F80000
0003F00000
0003F00000
ENDCHAR
ENDFONT
